SplineFontDB: 3.0
FontName: LinguisticsPro-Italic
FullName: LinguisticsPro-Italic
FamilyName: Linguistics Pro
Weight: Normal
Copyright: Copyright \\(c\\) 2016 by Stefan Peev, Context Ltd. All rights reserved.
Version: 001.001
ItalicAngle: -12
UnderlinePosition: -250
UnderlineWidth: 50
Ascent: 800
Descent: 200
InvalidEm: 0
sfntRevision: 0x0001028f
LayerCount: 2
Layer: 0 0 "Back" 1
Layer: 1 0 "Fore" 0
XUID: [1021 1017 285194369 29906]
StyleMap: 0x0001
FSType: 0
OS2Version: 3
OS2_WeightWidthSlopeOnly: 0
OS2_UseTypoMetrics: 0
CreationTime: 1164221255
ModificationTime: 1467532083
PfmFamily: 17
TTFWeight: 400
TTFWidth: 5
LineGap: 24
VLineGap: 0
Panose: 2 0 5 3 8 0 0 9 0 4
OS2TypoAscent: 742
OS2TypoAOffset: 0
OS2TypoDescent: -242
OS2TypoDOffset: 0
OS2TypoLinegap: 48
OS2WinAscent: 891
OS2WinAOffset: 0
OS2WinDescent: 250
OS2WinDOffset: 0
HheadAscent: 891
HheadAOffset: 0
HheadDescent: -250
HheadDOffset: 0
OS2SubXSize: 650
OS2SubYSize: 600
OS2SubXOff: 0
OS2SubYOff: 75
OS2SupXSize: 650
OS2SupYSize: 600
OS2SupXOff: 0
OS2SupYOff: 350
OS2StrikeYSize: 50
OS2StrikeYPos: 250
OS2CapHeight: 693
OS2XHeight: 502
OS2Vendor: 'CNTX'
OS2CodePages: 20000117.00000000
OS2UnicodeRanges: a00002ff.5000015b.00000000.00000000
Lookup: 1 0 0 "'aalt' Access All Alternates lookup 0" { "'aalt' Access All Alternates lookup 0 subtable"  } ['aalt' ('DFLT' <'dflt' > 'cyrl' <'BGR ' 'MKD ' 'RUS ' 'SRB ' 'UKR ' 'dflt' > 'grek' <'dflt' > 'hebr' <'dflt' > 'latn' <'AZE ' 'CAT ' 'EWE ' 'LTH ' 'MOL ' 'NLD ' 'ROM ' 'TRK ' 'VIT ' 'dflt' > ) ]
Lookup: 3 0 0 "'aalt' Access All Alternates lookup 1" { "'aalt' Access All Alternates lookup 1 subtable"  } ['aalt' ('DFLT' <'dflt' > 'cyrl' <'BGR ' 'MKD ' 'RUS ' 'SRB ' 'UKR ' 'dflt' > 'grek' <'dflt' > 'hebr' <'dflt' > 'latn' <'AZE ' 'CAT ' 'EWE ' 'LTH ' 'MOL ' 'NLD ' 'ROM ' 'TRK ' 'VIT ' 'dflt' > ) ]
Lookup: 4 0 1 "'liga' Standard Ligatures in Cyrillic lookup 2" { "'liga' Standard Ligatures in Cyrillic lookup 2 subtable"  } ['liga' ('cyrl' <'MKD ' 'SRB ' 'dflt' > ) ]

StartChar: .notdef
Encoding: 256 -1 0
Width: 586
Flags: MW
HStem: 0 72<50 517 97 517 97 536> 510 20G<50 536 536 536>
LayerCount: 2
Fore
SplineSet
50 0 m 1
 50 530 l 1
 536 530 l 1
 536 0 l 1
 50 0 l 1
69 74 m 1
 118 181 190 273 271 355 c 1
 242 368 220 375 194 380 c 1
 139 286 102 188 69 74 c 1
348 313 m 1
 234 255 153 173 76 72 c 1
 180 145 288 209 416 255 c 1
 391 281 373 297 348 313 c 1
97 72 m 1
 517 72 l 1
 511 111 500 141 477 173 c 1
 343 155 195 115 97 72 c 1
EndSplineSet
EndChar

StartChar: exclam
Encoding: 33 33 2
Width: 265
Flags: MW
HStem: -12 125<128 158.5> 687 20G<262.5 316.5>
VStem: 82 122<36 65.5>
LayerCount: 2
Fore
SplineSet
163 209 m 1
 218 644 l 2
 223 680 236 707 289 707 c 0
 344 707 344 679 331 639 c 2
 191 209 l 1
 163 209 l 1
82 45 m 0
 82 86 109 113 147 113 c 0
 183 113 204 87 204 57 c 0
 204 15 178 -12 139 -12 c 0
 103 -12 82 13 82 45 c 0
EndSplineSet
EndChar

StartChar: quotedbl
Encoding: 34 34 3
Width: 402
Flags: MW
HStem: 722 20G<254 294 424 464>
VStem: 212 107 382 107
LayerCount: 2
Fore
SplineSet
206 469 m 1
 218 690 l 2
 221 725 235 742 273 742 c 0
 315 742 327 725 314 690 c 2
 234 469 l 1
 206 469 l 1
376 469 m 1
 388 690 l 2
 391 725 405 742 443 742 c 0
 485 742 497 725 484 690 c 2
 404 469 l 1
 376 469 l 1
EndSplineSet
EndChar

StartChar: numbersign
Encoding: 35 35 4
Width: 530
Flags: MW
HStem: 0 21G<112 169 112 112 301 357 301 301> 231 48<89 210 106 193 106 250 267 382 455 543> 410 48<168 256 151 273 168 313 330 445 518 605> 648 20G<347 403 403 403 536 591 591 591>
VStem: 89 531<231 458>
LayerCount: 2
Fore
SplineSet
89 231 m 1
 106 279 l 1
 210 279 l 1
 256 410 l 1
 151 410 l 1
 168 458 l 1
 273 458 l 1
 347 668 l 1
 403 668 l 1
 330 458 l 1
 462 458 l 1
 536 668 l 1
 591 668 l 1
 518 458 l 1
 620 458 l 1
 605 410 l 1
 501 410 l 1
 455 279 l 1
 558 279 l 1
 543 231 l 1
 438 231 l 1
 357 0 l 1
 301 0 l 1
 382 231 l 1
 250 231 l 1
 169 0 l 1
 112 0 l 1
 193 231 l 1
 89 231 l 1
267 279 m 1
 399 279 l 1
 445 410 l 1
 313 410 l 1
 267 279 l 1
EndSplineSet
EndChar

StartChar: dollar
Encoding: 36 36 5
Width: 530
Flags: MW
HStem: 2 35<243 250> 631 35<429 437> 723 20G<414 454 454 454>
VStem: 66 75 171 80<483 540> 440 86<137 199> 510 76
LayerCount: 2
Fore
SplineSet
66 120 m 0xfc
 67 150 90 170 113 170 c 0
 129 170 136 161 141 146 c 0
 168 65 212 42 250 37 c 1
 314 316 l 1
 208 360 171 414 171 482 c 0
 171 598 267 669 396 668 c 1
 414 743 l 1
 454 743 l 1
 437 666 l 1
 516 659 587 618 586 560 c 0
 585 532 559 515 538 515 c 0
 521 515 514 525 510 541 c 0xfa
 496 596 467 625 429 631 c 1
 372 386 l 1
 455 348 526 299 526 195 c 0
 526 79 430 -2 283 0 c 1
 260 -109 l 1
 218 -109 l 1
 243 2 l 1
 136 9 65 64 66 120 c 0xfc
251 512 m 0
 251 454 284 428 334 403 c 1
 388 633 l 1
 305 633 251 586 251 512 c 0
292 35 m 1
 380 32 440 86 440 169 c 0xdc
 440 229 410 270 351 298 c 1
 292 35 l 1
EndSplineSet
EndChar

StartChar: percent
Encoding: 37 37 6
Width: 826
Flags: MW
HStem: -12 30<607 682 607 709> 314 30<245 320 245 347> 324 30<649.5 721> 597 34<486 665 486 679 463 665> 650 30<287.5 359> 682 20G<775 775>
VStem: 133 77<414.5 448.5 408.5 490> 391 77<547 551.5 502 585.5> 495 77<88.5 122.5 82.5 164> 753 77<221 255 176 259.5>
LayerCount: 2
Fore
SplineSet
133 447 m 0xdfc0
 133 533 185 680 333 680 c 0
 385 680 420 659 440 644 c 0
 451 635 460 631 486 631 c 2
 665 631 l 2
 698 633 722 649 750 677 c 2
 775 702 l 1
 805 678 l 1
 200 -25 l 1
 169 3 l 1
 679 597 l 1
 463 597 l 1
 467 582 468 560 468 543 c 0
 468 461 422 314 272 314 c 0
 169 314 133 382 133 447 c 0xdfc0
210 424 m 0
 210 393 217 344 273 344 c 0
 367 344 391 524 391 570 c 0
 391 601 386 650 332 650 c 0
 243 650 210 473 210 424 c 0
495 121 m 0
 495 207 547 354 695 354 c 0xbfc0
 788 354 830 293 830 217 c 0
 830 135 784 -12 634 -12 c 0
 531 -12 495 56 495 121 c 0
572 98 m 0
 572 67 579 18 635 18 c 0
 729 18 753 198 753 244 c 0
 753 275 748 324 694 324 c 0
 605 324 572 147 572 98 c 0
EndSplineSet
EndChar

StartChar: ampersand
Encoding: 38 38 7
Width: 725
Flags: MW
HStem: -12 49<284.5 324> -7 25<730 734> 645 35<389 437>
VStem: 95 95<138.5 223.5> 242 80<505 551.5> 483 78<526 583.5> 653 77
LayerCount: 2
Fore
SplineSet
95 162 m 0xbe
 95 285 204 335 277 369 c 1
 257 403 242 459 242 493 c 0
 242 610 325 680 417 680 c 0
 495 680 561 635 561 552 c 0
 561 456 472 415 373 375 c 1
 408 312 468 231 535 159 c 1
 621 248 646 340 653 417 c 1
 680 430 706 436 730 433 c 1
 745 389 738 361 723 330 c 0
 688 266 640 207 557 133 c 1
 600 94 659 31 734 18 c 1
 730 -7 l 1x7e
 680 -5 l 2
 601 -2 546 29 498 75 c 1
 423 13 362 -12 286 -12 c 0
 156 -12 95 76 95 162 c 0xbe
190 172 m 0
 190 105 242 37 327 37 c 0xbe
 385 37 437 64 475 99 c 1
 403 174 341 258 293 339 c 1
 265 327 190 276 190 172 c 0
322 524 m 0
 322 486 336 435 358 401 c 1
 423 432 483 488 483 564 c 0
 483 603 463 645 411 645 c 0
 367 645 322 600 322 524 c 0
EndSplineSet
EndChar

StartChar: quotesingle
Encoding: 39 39 8
Width: 216
Flags: MW
HStem: 722 20G<244 284>
VStem: 202 107
LayerCount: 2
Fore
SplineSet
196 469 m 1
 208 690 l 2
 211 725 225 742 263 742 c 0
 305 742 317 725 304 690 c 2
 224 469 l 1
 196 469 l 1
EndSplineSet
EndChar

StartChar: parenleft
Encoding: 40 40 9
Width: 350
Flags: MW
HStem: 667 25<488 493>
VStem: 141 67
LayerCount: 2
Fore
SplineSet
160 301 m 0
 212 536 323 698 493 692 c 1
 488 667 l 1
 395 652 288 554 231 306 c 0
 167 28 254 -92 309 -105 c 1
 303 -128 l 1
 167 -118 108 68 160 301 c 0
EndSplineSet
EndChar

StartChar: parenright
Encoding: 41 41 10
Width: 350
Flags: MW
HStem: -128 23<-11 -6> 667 25<173 179> 672 20G<179 179>
VStem: 274 67
LayerCount: 2
Fore
SplineSet
-11 -128 m 1xb0
 -6 -105 l 1
 87 -90 194 10 251 258 c 0
 315 536 228 654 173 667 c 1xd0
 179 692 l 1
 315 682 374 496 322 263 c 0
 270 28 159 -134 -11 -128 c 1xb0
EndSplineSet
EndChar

StartChar: asterisk
Encoding: 42 42 11
Width: 412
Flags: MW
HStem: 583 57<441 474> 687 20G<337.5 366>
VStem: 253 69<389 396> 312 69<675 686>
LayerCount: 2
Fore
SplineSet
146 441 m 0xe0
 136 463 140 479 163 487 c 2
 283 528 l 2
 295 532 295 541 282 546 c 2
 196 577 l 2
 171 586 171 607 185 627 c 0
 203 652 219 651 231 639 c 2
 299 569 l 2
 307 561 314 565 314 578 c 2
 312 676 l 2
 312 696 322 707 353 707 c 0
 379 707 391 695 381 675 c 2xd0
 337 578 l 2
 331 564 338 560 350 569 c 2
 441 640 l 2
 459 653 474 651 486 629 c 0
 500 604 493 589 474 583 c 2
 355 544 l 2
 341 539 336 530 348 526 c 2
 444 487 l 2
 461 480 464 461 446 439 c 0
 430 419 415 415 400 432 c 2
 337 503 l 2
 327 514 320 505 320 494 c 2
 322 389 l 2
 323 364 307 356 282 356 c 0
 251 356 243 373 253 396 c 2
 297 494 l 2
 303 506 298 515 283 503 c 2
 199 432 l 2
 175 412 158 417 146 441 c 0xe0
EndSplineSet
EndChar

StartChar: plus
Encoding: 43 43 12
Width: 570
Flags: MW
HStem: 0 21G<301 369 301 301> 221 58<93 301 93 301 369 577> 470 20G<301 369 369 369>
VStem: 301 68<0 221 0 221 279 490>
LayerCount: 2
Fore
SplineSet
93 221 m 1
 93 279 l 1
 301 279 l 1
 301 490 l 1
 369 490 l 1
 369 279 l 1
 577 279 l 1
 577 221 l 1
 369 221 l 1
 369 0 l 1
 301 0 l 1
 301 221 l 1
 93 221 l 1
EndSplineSet
EndChar

StartChar: comma
Encoding: 44 44 13
Width: 265
Flags: MW
HStem: -134 276<63 150>
VStem: 117 91
LayerCount: 2
Fore
SplineSet
46 -116 m 1
 82 -81 113 -41 117 -1 c 0
 119 20 113 34 106 49 c 0
 101 61 94 74 94 89 c 0
 94 117 118 142 150 142 c 0
 187 144 208 106 208 74 c 0
 208 -16 125 -82 63 -134 c 1
 46 -116 l 1
EndSplineSet
EndChar

StartChar: hyphen
Encoding: 45 45 14
Width: 392
Flags: MW
HStem: 216 70<117 376 131 362>
VStem: 117 259<216 286>
LayerCount: 2
Fore
SplineSet
117 216 m 1
 131 286 l 1
 376 286 l 1
 362 216 l 1
 117 216 l 1
EndSplineSet
EndChar

StartChar: period
Encoding: 46 46 15
Width: 265
Flags: MW
HStem: -12 125<128 158.5>
VStem: 82 122<36 65.5>
LayerCount: 2
Fore
SplineSet
82 45 m 0
 82 86 109 113 147 113 c 0
 183 113 204 87 204 57 c 0
 204 15 178 -12 139 -12 c 0
 103 -12 82 13 82 45 c 0
EndSplineSet
EndChar

StartChar: slash
Encoding: 47 47 16
Width: 270
Flags: MW
HStem: -15 21G<35 35 35 106> 687 20G<305 376 376 376>
VStem: 35 341
LayerCount: 2
Fore
SplineSet
35 -15 m 1
 305 707 l 1
 376 707 l 1
 106 -15 l 1
 35 -15 l 1
EndSplineSet
EndChar

StartChar: zero
Encoding: 48 48 17
Width: 530
Flags: MW
HStem: -12 35<251.5 321 251.5 332.5> 645 35<362.5 433>
VStem: 95 90<150 192 111.5 256> 486 90<489 504 425 546>
LayerCount: 2
Fore
SplineSet
95 204 m 0
 95 308 122 426 168 512 c 0
 222 612 294 680 397 680 c 0
 557 680 576 547 576 461 c 0
 576 389 557 262 507 161 c 0
 455 52 386 -12 279 -12 c 0
 138 -12 95 96 95 204 c 0
185 162 m 0
 185 61 224 23 279 23 c 0
 363 23 408 127 441 240 c 0
 474 350 486 472 486 506 c 0
 486 586 468 645 398 645 c 0
 327 645 272 556 236 444 c 0
 200 335 185 222 185 162 c 0
EndSplineSet
Substitution2: "'pnum' Proportional Numbers in Latin lookup 13 subtable" zero.pnum
Substitution2: "'pnum' Proportional Numbers in Cyrillic lookup 12 subtable" zero.pnum
Substitution2: "'pnum' Proportional Numbers in Greek lookup 11 subtable" zero.pnum
Substitution2: "'onum' Oldstyle Figures in Latin lookup 10 subtable" uniF643
Substitution2: "'onum' Oldstyle Figures in Cyrillic lookup 9 subtable" uniF643
Substitution2: "'onum' Oldstyle Figures in Greek lookup 8 subtable" uniF643
Substitution2: "'sups' Superscript in Latin lookup 7 subtable" uni2070
Substitution2: "'sups' Superscript in Cyrillic lookup 6 subtable" uni2070
Substitution2: "'sups' Superscript in Greek lookup 5 subtable" uni2070
AlternateSubs2: "'aalt' Access All Alternates lookup 1 subtable" uni2070 uniF643 zero.pnum
EndChar

StartChar: one
Encoding: 49 49 18
Width: 530
Flags: MW
HStem: 0 32 654 20G<464 464> 660 20G<456 456>
VStem: 109 355
LayerCount: 2
Fore
SplineSet
109 0 m 1xb0
 115 29 l 1
 206 36 l 2
 223 37 234 48 239 72 c 2
 352 578 l 2
 356 597 354 609 340 611 c 2
 243 621 l 1
 251 645 l 1
 456 680 l 1
 464 674 l 1xd0
 328 72 l 2
 322 44 333 35 349 34 c 2
 438 29 l 1
 432 0 l 1
 109 0 l 1xb0
EndSplineSet
Substitution2: "'pnum' Proportional Numbers in Latin lookup 13 subtable" one.pnum
Substitution2: "'pnum' Proportional Numbers in Cyrillic lookup 12 subtable" one.pnum
Substitution2: "'pnum' Proportional Numbers in Greek lookup 11 subtable" one.pnum
Substitution2: "'onum' Oldstyle Figures in Latin lookup 10 subtable" uniF644
Substitution2: "'onum' Oldstyle Figures in Cyrillic lookup 9 subtable" uniF644
Substitution2: "'onum' Oldstyle Figures in Greek lookup 8 subtable" uniF644
Substitution2: "'sups' Superscript in Latin lookup 7 subtable" uni00B9
Substitution2: "'sups' Superscript in Cyrillic lookup 6 subtable" uni00B9
Substitution2: "'sups' Superscript in Greek lookup 5 subtable" uni00B9
AlternateSubs2: "'aalt' Access All Alternates lookup 1 subtable" uni00B9 uniF644 one.pnum
EndChar

StartChar: two
Encoding: 50 50 19
Width: 530
Flags: MW
HStem: 0 74<135 385 385 407 135 453> 645 35<352.5 420>
VStem: 473 100<481.5 555.5>
LayerCount: 2
Fore
SplineSet
33 10 m 1
 60 88 114 160 266 264 c 0
 406 359 473 433 473 530 c 0
 473 581 461 645 379 645 c 0
 326 645 278 605 245 512 c 0
 241 499 235 487 216 487 c 0
 194 487 167 506 167 535 c 0
 167 592 250 680 381 680 c 0
 490 680 573 627 573 516 c 0
 573 389 467 333 345 262 c 0
 231 196 166 137 135 74 c 1
 385 74 l 2
 429 74 443 82 477 131 c 1
 507 125 l 1
 453 0 l 1
 44 0 l 1
 33 10 l 1
EndSplineSet
Substitution2: "'pnum' Proportional Numbers in Latin lookup 13 subtable" two.pnum
Substitution2: "'pnum' Proportional Numbers in Cyrillic lookup 12 subtable" two.pnum
Substitution2: "'pnum' Proportional Numbers in Greek lookup 11 subtable" two.pnum
Substitution2: "'onum' Oldstyle Figures in Latin lookup 10 subtable" uniF645
Substitution2: "'onum' Oldstyle Figures in Cyrillic lookup 9 subtable" uniF645
Substitution2: "'onum' Oldstyle Figures in Greek lookup 8 subtable" uniF645
Substitution2: "'sups' Superscript in Latin lookup 7 subtable" uni00B2
Substitution2: "'sups' Superscript in Cyrillic lookup 6 subtable" uni00B2
Substitution2: "'sups' Superscript in Greek lookup 5 subtable" uni00B2
AlternateSubs2: "'aalt' Access All Alternates lookup 1 subtable" uni00B2 uniF645 two.pnum
EndChar

StartChar: three
Encoding: 51 51 20
Width: 530
Flags: MW
HStem: -12 35<234 297 234 328> 340 59<216.5 226.5> 350 38<297 354.5> 645 35<341 408>
VStem: 54 81 175 75 417 104<147 246> 461 98<499.5 561.5>
LayerCount: 2
Fore
SplineSet
54 111 m 0xbe
 54 144 82 166 105 166 c 0
 121 166 129 155 135 135 c 0
 156 55 203 23 265 23 c 0
 329 23 417 71 417 223 c 0
 417 269 398 350 311 350 c 0xbe
 269 350 233 340 220 340 c 0
 204 340 201 350 201 362 c 0
 201 379 210 399 223 399 c 0xde
 241 399 274 388 320 388 c 0
 400 388 461 457 461 542 c 0
 461 581 448 645 368 645 c 0
 314 645 275 604 250 540 c 0
 242 521 233 513 219 513 c 0
 202 513 175 528 175 559 c 0
 175 615 261 680 373 680 c 0
 453 680 559 648 559 531 c 0xbd
 559 422 458 380 382 374 c 1
 382 371 l 1
 440 363 521 319 521 213 c 0
 521 58 394 -12 262 -12 c 0
 120 -12 54 63 54 111 c 0xbe
EndSplineSet
Substitution2: "'pnum' Proportional Numbers in Latin lookup 13 subtable" three.pnum
Substitution2: "'pnum' Proportional Numbers in Cyrillic lookup 12 subtable" three.pnum
Substitution2: "'pnum' Proportional Numbers in Greek lookup 11 subtable" three.pnum
Substitution2: "'onum' Oldstyle Figures in Latin lookup 10 subtable" uniF646
Substitution2: "'onum' Oldstyle Figures in Cyrillic lookup 9 subtable" uniF646
Substitution2: "'onum' Oldstyle Figures in Greek lookup 8 subtable" uniF646
Substitution2: "'sups' Superscript in Latin lookup 7 subtable" uni00B3
Substitution2: "'sups' Superscript in Cyrillic lookup 6 subtable" uni00B3
Substitution2: "'sups' Superscript in Greek lookup 5 subtable" uni00B3
AlternateSubs2: "'aalt' Access All Alternates lookup 1 subtable" uni00B3 uniF646 three.pnum
EndChar

StartChar: four
Encoding: 52 52 21
Width: 530
Flags: MW
HStem: 0 32<431 431 431 474> 187 46<151 351 446 534> 648 20G<469 537 537 537>
VStem: 67 477<206 233>
LayerCount: 2
Fore
SplineSet
67 206 m 1
 196 367 329 526 469 668 c 1
 537 668 l 1
 446 233 l 1
 544 233 l 1
 534 187 l 1
 436 187 l 1
 411 67 l 2
 406 43 411 33 431 32 c 2
 481 29 l 1
 474 0 l 1
 210 0 l 1
 218 29 l 1
 292 34 l 2
 308 35 321 42 326 67 c 2
 351 187 l 1
 76 187 l 1
 67 206 l 1
151 233 m 1
 361 233 l 1
 434 573 l 1
 432 575 l 1
 333 469 239 351 151 233 c 1
EndSplineSet
Substitution2: "'pnum' Proportional Numbers in Latin lookup 13 subtable" four.pnum
Substitution2: "'pnum' Proportional Numbers in Cyrillic lookup 12 subtable" four.pnum
Substitution2: "'pnum' Proportional Numbers in Greek lookup 11 subtable" four.pnum
Substitution2: "'onum' Oldstyle Figures in Latin lookup 10 subtable" uniF647
Substitution2: "'onum' Oldstyle Figures in Cyrillic lookup 9 subtable" uniF647
Substitution2: "'onum' Oldstyle Figures in Greek lookup 8 subtable" uniF647
Substitution2: "'sups' Superscript in Latin lookup 7 subtable" uni2074
Substitution2: "'sups' Superscript in Cyrillic lookup 6 subtable" uni2074
Substitution2: "'sups' Superscript in Greek lookup 5 subtable" uni2074
AlternateSubs2: "'aalt' Access All Alternates lookup 1 subtable" uni2074 uniF647 four.pnum
EndChar

StartChar: five
Encoding: 53 53 22
Width: 553
Flags: MW
HStem: -12 35<249 321 249 349.5> 381 46<331.5 358> 594 74<295.5 304 304 552>
VStem: 68 81 440 104<170 276.5>
LayerCount: 2
Fore
SplineSet
68 108 m 0
 68 140 95 164 121 164 c 0
 135 164 144 153 149 135 c 0
 171 52 218 23 280 23 c 0
 362 23 440 106 440 230 c 0
 440 323 395 381 321 381 c 0
 268 381 224 357 189 315 c 1
 165 327 l 1
 238 660 l 1
 248 668 l 1
 589 668 l 1
 594 657 l 1
 552 594 l 1
 304 594 l 2
 287 594 278 592 272 570 c 2
 218 383 l 1
 220 381 l 1
 255 409 309 427 354 427 c 0
 471 427 544 358 544 242 c 0
 544 98 426 -12 273 -12 c 0
 135 -12 68 56 68 108 c 0
EndSplineSet
Substitution2: "'pnum' Proportional Numbers in Latin lookup 13 subtable" five.pnum
Substitution2: "'pnum' Proportional Numbers in Cyrillic lookup 12 subtable" five.pnum
Substitution2: "'pnum' Proportional Numbers in Greek lookup 11 subtable" five.pnum
Substitution2: "'onum' Oldstyle Figures in Latin lookup 10 subtable" uniF648
Substitution2: "'onum' Oldstyle Figures in Cyrillic lookup 9 subtable" uniF648
Substitution2: "'onum' Oldstyle Figures in Greek lookup 8 subtable" uniF648
Substitution2: "'sups' Superscript in Latin lookup 7 subtable" uni2075
Substitution2: "'sups' Superscript in Cyrillic lookup 6 subtable" uni2075
Substitution2: "'sups' Superscript in Greek lookup 5 subtable" uni2075
AlternateSubs2: "'aalt' Access All Alternates lookup 1 subtable" uni2075 uniF648 five.pnum
EndChar

StartChar: six
Encoding: 54 54 23
Width: 530
Flags: MW
HStem: -12 35<247.5 334.5 247.5 380.5> 371 49<332.5 372> 645 35<376 435>
VStem: 91 93<149 232 140 278> 448 97<181 284>
LayerCount: 2
Fore
SplineSet
91 207 m 0
 91 349 143 503 213 585 c 0
 268 649 339 680 413 680 c 0
 546 680 586 610 586 572 c 0
 586 544 555 526 533 526 c 0
 514 526 507 537 504 554 c 0
 492 613 460 645 410 645 c 0
 315 645 239 532 199 338 c 1
 201 338 l 1
 237 377 297 420 368 420 c 0
 488 420 545 343 545 239 c 0
 545 123 464 -12 297 -12 c 0
 141 -12 91 91 91 207 c 0
184 168 m 0
 184 112 199 23 296 23 c 0
 373 23 448 103 448 247 c 0
 448 321 406 371 338 371 c 0
 243 371 184 296 184 168 c 0
EndSplineSet
Substitution2: "'pnum' Proportional Numbers in Latin lookup 13 subtable" six.pnum
Substitution2: "'pnum' Proportional Numbers in Cyrillic lookup 12 subtable" six.pnum
Substitution2: "'pnum' Proportional Numbers in Greek lookup 11 subtable" six.pnum
Substitution2: "'onum' Oldstyle Figures in Latin lookup 10 subtable" uniF649
Substitution2: "'onum' Oldstyle Figures in Cyrillic lookup 9 subtable" uniF649
Substitution2: "'onum' Oldstyle Figures in Greek lookup 8 subtable" uniF649
Substitution2: "'sups' Superscript in Latin lookup 7 subtable" uni2076
Substitution2: "'sups' Superscript in Cyrillic lookup 6 subtable" uni2076
Substitution2: "'sups' Superscript in Greek lookup 5 subtable" uni2076
AlternateSubs2: "'aalt' Access All Alternates lookup 1 subtable" uni2076 uniF649 six.pnum
EndChar

StartChar: seven
Encoding: 55 55 24
Width: 530
Flags: MW
HStem: -12 21G<210 244> 594 74<271 297 297 538>
VStem: 178 102
LayerCount: 2
Fore
SplineSet
165 530 m 1
 207 668 l 1
 627 668 l 1
 635 657 l 1
 582 531 515 468 423 355 c 0
 350 267 305 179 280 29 c 0
 275 -3 262 -12 226 -12 c 0
 194 -12 178 2 178 25 c 0
 178 98 224 192 392 383 c 0
 477 479 521 547 538 594 c 1
 297 594 l 2
 245 594 226 580 211 556 c 2
 195 530 l 1
 165 530 l 1
EndSplineSet
Substitution2: "'pnum' Proportional Numbers in Latin lookup 13 subtable" seven.pnum
Substitution2: "'pnum' Proportional Numbers in Cyrillic lookup 12 subtable" seven.pnum
Substitution2: "'pnum' Proportional Numbers in Greek lookup 11 subtable" seven.pnum
Substitution2: "'onum' Oldstyle Figures in Latin lookup 10 subtable" uniF64A
Substitution2: "'onum' Oldstyle Figures in Cyrillic lookup 9 subtable" uniF64A
Substitution2: "'onum' Oldstyle Figures in Greek lookup 8 subtable" uniF64A
Substitution2: "'sups' Superscript in Latin lookup 7 subtable" uni2077
Substitution2: "'sups' Superscript in Cyrillic lookup 6 subtable" uni2077
Substitution2: "'sups' Superscript in Greek lookup 5 subtable" uni2077
AlternateSubs2: "'aalt' Access All Alternates lookup 1 subtable" uni2077 uniF64A seven.pnum
EndChar

StartChar: eight
Encoding: 56 56 25
Width: 530
Flags: MW
HStem: -12 35<258.5 342.5 258.5 374> 343 38<325 362.5> 645 35<347 422>
VStem: 81 96<115.5 202.5 111 220> 178 89<467 511 452 560.5> 440 96<168 253 145.5 259> 481 89<504.5 564 481 578>
LayerCount: 2
Fore
SplineSet
81 159 m 0xfc
 81 281 166 359 260 370 c 1
 260 374 l 1
 215 393 178 434 178 500 c 0
 178 621 281 680 387 680 c 0
 526 680 570 598 570 530 c 0xfa
 570 432 501 382 431 368 c 1
 431 365 l 1
 474 350 536 299 536 207 c 0
 536 84 456 -12 292 -12 c 0
 143 -12 81 72 81 159 c 0xfc
177 151 m 0
 177 71 221 23 296 23 c 0
 389 23 440 115 440 221 c 0xfc
 440 297 397 343 328 343 c 0
 238 343 177 254 177 151 c 0
267 477 m 0
 267 427 291 381 359 381 c 0
 426 381 481 455 481 554 c 0xfa
 481 602 453 645 391 645 c 0
 303 645 267 545 267 477 c 0
EndSplineSet
Substitution2: "'pnum' Proportional Numbers in Latin lookup 13 subtable" eight.pnum
Substitution2: "'pnum' Proportional Numbers in Cyrillic lookup 12 subtable" eight.pnum
Substitution2: "'pnum' Proportional Numbers in Greek lookup 11 subtable" eight.pnum
Substitution2: "'onum' Oldstyle Figures in Latin lookup 10 subtable" uniF64B
Substitution2: "'onum' Oldstyle Figures in Cyrillic lookup 9 subtable" uniF64B
Substitution2: "'onum' Oldstyle Figures in Greek lookup 8 subtable" uniF64B
Substitution2: "'sups' Superscript in Latin lookup 7 subtable" uni2078
Substitution2: "'sups' Superscript in Cyrillic lookup 6 subtable" uni2078
Substitution2: "'sups' Superscript in Greek lookup 5 subtable" uni2078
AlternateSubs2: "'aalt' Access All Alternates lookup 1 subtable" uni2078 uniF64B eight.pnum
EndChar

StartChar: nine
Encoding: 57 57 26
Width: 530
Flags: MW
HStem: -12 35<242 297.5 242 307> 266 50<303 340.5> 645 35<325 408>
VStem: 86 78 133 93<416.5 514> 476 95<415.5 504 375 510>
LayerCount: 2
Fore
SplineSet
86 96 m 0xf4
 86 132 114 152 135 152 c 0
 151 152 159 141 164 122 c 0xf4
 183 51 218 23 266 23 c 0
 329 23 373 69 406 138 c 0
 440 210 457 278 466 338 c 1
 464 338 l 1
 419 293 371 266 310 266 c 0
 210 266 133 334 133 439 c 0xec
 133 589 242 680 363 680 c 0
 509 680 571 582 571 426 c 0
 571 324 539 180 464 86 c 0
 413 22 351 -12 263 -12 c 0
 150 -12 86 51 86 96 c 0xf4
226 452 m 0xec
 226 381 256 316 350 316 c 0
 425 316 476 372 476 459 c 0
 476 561 455 645 361 645 c 0
 289 645 226 579 226 452 c 0xec
EndSplineSet
Substitution2: "'pnum' Proportional Numbers in Latin lookup 13 subtable" nine.pnum
Substitution2: "'pnum' Proportional Numbers in Cyrillic lookup 12 subtable" nine.pnum
Substitution2: "'pnum' Proportional Numbers in Greek lookup 11 subtable" nine.pnum
Substitution2: "'onum' Oldstyle Figures in Latin lookup 10 subtable" uniF64C
Substitution2: "'onum' Oldstyle Figures in Cyrillic lookup 9 subtable" uniF64C
Substitution2: "'onum' Oldstyle Figures in Greek lookup 8 subtable" uniF64C
Substitution2: "'sups' Superscript in Latin lookup 7 subtable" uni2079
Substitution2: "'sups' Superscript in Cyrillic lookup 6 subtable" uni2079
Substitution2: "'sups' Superscript in Greek lookup 5 subtable" uni2079
AlternateSubs2: "'aalt' Access All Alternates lookup 1 subtable" uni2079 uniF64C nine.pnum
EndChar

StartChar: colon
Encoding: 58 58 27
Width: 265
Flags: MW
HStem: -12 125<128 158.5> 365 125<207 237.5>
VStem: 82 122<36 65.5> 161 122<413 442.5>
LayerCount: 2
Fore
SplineSet
161 422 m 0x50
 161 463 188 490 226 490 c 0
 262 490 283 464 283 434 c 0
 283 392 257 365 218 365 c 0
 182 365 161 390 161 422 c 0x50
82 45 m 0xa0
 82 86 109 113 147 113 c 0
 183 113 204 87 204 57 c 0
 204 15 178 -12 139 -12 c 0
 103 -12 82 13 82 45 c 0xa0
EndSplineSet
EndChar

StartChar: semicolon
Encoding: 59 59 28
Width: 265
Flags: MW
HStem: -134 276<63 150> 365 125<207 237.5>
VStem: 117 91 161 122<413 442.5>
LayerCount: 2
Fore
SplineSet
161 422 m 0x50
 161 463 188 490 226 490 c 0
 262 490 283 464 283 434 c 0
 283 392 257 365 218 365 c 0
 182 365 161 390 161 422 c 0x50
46 -116 m 1xa0
 82 -81 113 -41 117 -1 c 0
 119 20 113 34 106 49 c 0
 101 61 94 74 94 89 c 0
 94 117 118 142 150 142 c 0
 187 144 208 106 208 74 c 0
 208 -16 125 -82 63 -134 c 1
 46 -116 l 1xa0
EndSplineSet
EndChar

StartChar: less
Encoding: 60 60 29
Width: 570
Flags: MW
HStem: 477 20G<564 564>
VStem: 86 59<248 248 248 288 248 288>
LayerCount: 2
Fore
SplineSet
86 207 m 1
 86 288 l 1
 564 497 l 1
 564 428 l 1
 145 248 l 1
 564 68 l 1
 564 1 l 1
 86 207 l 1
EndSplineSet
EndChar

StartChar: equal
Encoding: 61 61 30
Width: 570
Flags: MW
HStem: 111 58<93 577 93 577> 331 58<93 577 93 577>
VStem: 93 484<111 169 111 169 331 389 111 389>
LayerCount: 2
Fore
SplineSet
93 111 m 1
 93 169 l 1
 577 169 l 1
 577 111 l 1
 93 111 l 1
93 331 m 1
 93 389 l 1
 577 389 l 1
 577 331 l 1
 93 331 l 1
EndSplineSet
EndChar

StartChar: greater
Encoding: 62 62 31
Width: 570
Flags: MW
HStem: 477 20G<86 86>
VStem: 505 59<248 248>
LayerCount: 2
Fore
SplineSet
86 1 m 1
 86 68 l 1
 505 248 l 1
 86 428 l 1
 86 497 l 1
 564 288 l 1
 564 207 l 1
 86 1 l 1
EndSplineSet
EndChar

StartChar: question
Encoding: 63 63 32
Width: 425
Flags: MW
HStem: -12 125<196 226.5> 199 45<239 322> 672 35<314.5 359.5>
VStem: 150 122<36 65.5> 160 89<280.5 308.5> 164 75 398 93<567.5 617.5 537.5 619.5>
LayerCount: 2
Fore
SplineSet
160 285 m 0xea
 160 332 195 368 264 408 c 0
 359 464 398 536 398 599 c 0
 398 640 380 672 339 672 c 0
 290 672 261 624 239 568 c 0
 235 557 225 549 208 549 c 0
 192 549 164 564 164 593 c 0xe6
 164 634 222 707 334 707 c 0
 431 707 491 655 491 580 c 0
 491 495 440 460 363 421 c 0
 298 388 249 354 249 302 c 0
 249 259 280 244 313 244 c 0
 331 244 344 246 356 247 c 1
 362 230 l 1
 340 214 298 199 264 199 c 0
 214 199 160 223 160 285 c 0xea
150 45 m 0x90
 150 86 177 113 215 113 c 0
 251 113 272 87 272 57 c 0
 272 15 246 -12 207 -12 c 0
 171 -12 150 13 150 45 c 0x90
EndSplineSet
EndChar

StartChar: at
Encoding: 64 64 33
Width: 794
Flags: MW
HStem: -15 39<380.5 495> 172 38<630 665.5> 504 29<500.5 563> 666 41<427.5 599>
VStem: 123 78<245.5 398.5 245.5 430> 300 82<253.5 292> 537 69 782 50<357.5 409>
LayerCount: 2
Fore
SplineSet
123 303 m 0
 123 557 320 707 526 707 c 0
 716 707 832 576 832 414 c 0
 832 277 724 172 607 172 c 0
 547 172 517 203 551 309 c 1
 549 310 l 1
 521 260 442 170 366 172 c 0
 336 173 300 190 300 255 c 0
 300 329 374 533 552 533 c 0
 575 533 588 530 607 520 c 1
 611 528 l 1
 676 528 l 1
 610 270 l 2
 598 222 616 210 644 210 c 0
 711 210 782 306 782 409 c 0
 785 573 670 666 528 666 c 0
 327 666 201 490 201 307 c 0
 201 184 267 24 492 24 c 0
 550 24 616 36 661 55 c 1
 669 30 l 1
 607 -4 526 -15 464 -15 c 0
 297 -15 123 87 123 303 c 0
382 270 m 0
 382 237 394 219 416 219 c 0
 487 219 581 397 600 490 c 1
 585 500 573 504 553 504 c 0
 448 504 382 331 382 270 c 0
EndSplineSet
EndChar

StartChar: A
Encoding: 65 65 34
Width: 624
Flags: MW
HStem: 0 29<-23 -17 -17 -17 -17 202> 267 38<263 462 263 467 243 462> 672 20G<435 506 506 506>
LayerCount: 2
Fore
SplineSet
-23 0 m 1
 -17 29 l 1
 16 33 l 2
 47 36 64 47 96 99 c 0
 133 159 216 308 267 397 c 2
 435 692 l 1
 506 692 l 1
 580 90 l 2
 585 49 589 35 620 32 c 2
 658 29 l 1
 652 0 l 1
 406 0 l 1
 412 29 l 1
 465 34 l 2
 485 36 493 44 490 73 c 2
 467 267 l 1
 243 267 l 1
 206 200 173 135 140 71 c 0
 131 50 133 36 153 34 c 2
 208 29 l 1
 202 0 l 1
 -23 0 l 1
263 305 m 1
 462 305 l 1
 427 599 l 1
 425 599 l 1
 371 502 316 404 263 305 c 1
EndSplineSet
EndChar

StartChar: B
Encoding: 66 66 35
Width: 632
Flags: MW
HStem: 0 35<100 100 286.5 342> 355 35<306 338 299 371> 657 35<239 239 404.5 427 186 480>
VStem: 524 108<168.5 259.5 165.5 270> 569 102<519.5 567 503 580>
LayerCount: 2
Fore
SplineSet
38 0 m 1xf0
 44 29 l 1
 100 35 l 2
 124 38 135 50 142 83 c 2
 260 609 l 2
 268 643 262 655 239 657 c 2
 180 663 l 1
 186 692 l 1
 427 692 l 2
 499 693 564 686 608 659 c 0
 650 634 671 593 671 541 c 0xe8
 671 465 615 391 482 375 c 1
 481 372 l 1
 554 358 632 312 632 207 c 0
 632 124 584 0 342 0 c 2
 38 0 l 1xf0
242 99 m 2
 233 60 237 35 336 35 c 0
 470 35 524 124 524 213 c 0xf0
 524 327 437 355 338 355 c 2
 299 355 l 1
 242 99 l 2
306 390 m 1
 371 390 l 2
 425 390 477 402 510 427 c 0
 545 455 569 494 569 545 c 0xe8
 569 615 522 657 438 657 c 0
 371 657 366 652 359 622 c 2
 306 390 l 1
EndSplineSet
EndChar

StartChar: C
Encoding: 67 67 36
Width: 661
Flags: MW
HStem: -15 35<362 462.5> 672 35<475.5 572 443 591.5>
VStem: 114 107<209 294 172 309.5> 692 30<504 504>
LayerCount: 2
Fore
SplineSet
114 275 m 0
 114 344 127 436 182 525 c 0
 240 619 349 707 537 707 c 0
 607 707 701 690 758 654 c 1
 722 504 l 1
 692 504 l 1
 697 613 654 672 529 672 c 0
 422 672 343 614 293 530 c 0
 245 450 221 339 221 249 c 0
 221 95 304 20 420 20 c 0
 543 20 594 86 649 186 c 1
 679 186 l 1
 630 27 l 1
 566 -5 498 -15 427 -15 c 0
 179 -15 114 143 114 275 c 0
EndSplineSet
EndChar

StartChar: D
Encoding: 68 68 37
Width: 763
Flags: MW
HStem: 0 35<102 102 293.5 347> 657 35<425.5 457 457 469>
VStem: 695 107<390 451.5 381 473>
LayerCount: 2
Fore
SplineSet
40 0 m 1
 46 29 l 1
 102 35 l 2
 126 37 136 50 143 83 c 2
 262 609 l 2
 269 642 264 656 241 658 c 2
 182 663 l 1
 188 692 l 1
 457 692 l 2
 568 692 658 669 716 620 c 0
 773 572 802 492 802 411 c 0
 802 351 792 267 735 181 c 0
 663 72 547 0 347 0 c 2
 40 0 l 1
239 86 m 2
 229 42 266 35 321 35 c 0
 487 35 573 97 630 191 c 0
 675 265 695 347 695 433 c 0
 695 513 677 653 469 657 c 0
 382 657 368 654 360 620 c 2
 239 86 l 2
EndSplineSet
EndChar

StartChar: E
Encoding: 69 69 38
Width: 596
Flags: MW
HStem: 0 35<100 100 337.5 423.5> 341 38<304 427 296 435> 657 35<380.5 389 389 510>
VStem: 514 30<255 255> 560 30<464 464> 581 30<176 176> 624 30<525 525>
LayerCount: 2
Fore
SplineSet
38 0 m 1xfa
 44 29 l 1
 100 35 l 2
 124 37 133 49 141 83 c 2
 261 611 l 2
 269 645 262 657 239 659 c 2
 179 663 l 1
 186 692 l 1
 692 692 l 1
 654 525 l 1
 624 525 l 1
 633 615 636 657 510 657 c 2
 389 657 l 2
 372 657 366 652 361 628 c 2
 304 379 l 1
 435 379 l 2
 523 379 534 395 560 464 c 1
 590 464 l 1xfa
 544 255 l 1
 514 255 l 1
 518 320 515 341 427 341 c 2
 296 341 l 1
 245 122 l 2
 234 75 235 60 250 48 c 0
 263 38 313 35 362 35 c 0
 485 35 530 53 581 176 c 1
 611 176 l 1xf6
 560 0 l 1
 38 0 l 1xfa
EndSplineSet
EndChar

StartChar: F
Encoding: 70 70 39
Width: 571
Flags: MW
HStem: 0 29<38 44 44 44 44 329> 241 21G<512 542 512 512> 327 38<301 425 293 433> 657 35<239 239 381 390 390 513>
VStem: 512 30<241 241> 558 30<451 451> 627 30<527 527>
LayerCount: 2
Fore
SplineSet
38 0 m 1
 44 29 l 1
 100 34 l 2
 124 36 134 50 141 80 c 2
 261 612 l 2
 268 641 262 655 239 657 c 2
 180 663 l 1
 186 692 l 1
 695 692 l 1
 657 527 l 1
 627 527 l 1
 636 615 639 657 513 657 c 2
 390 657 l 2
 372 657 367 652 361 627 c 2
 301 365 l 1
 433 365 l 2
 521 365 532 381 558 451 c 1
 588 451 l 1
 542 241 l 1
 512 241 l 1
 516 306 513 327 425 327 c 2
 293 327 l 1
 237 80 l 2
 230 50 236 36 260 34 c 2
 335 29 l 1
 329 0 l 1
 38 0 l 1
EndSplineSet
EndChar

StartChar: G
Encoding: 71 71 40
Width: 709
Flags: MW
HStem: -15 35<385.5 468.5> 280 29<503 772 766 766> 672 35<466.5 585 466.5 615.5>
VStem: 114 110<235 329> 701 30<501 501>
LayerCount: 2
Fore
SplineSet
114 285 m 0
 114 373 143 479 209 563 c 0
 279 652 390 707 543 707 c 0
 627 707 706 690 767 657 c 1
 731 501 l 1
 701 501 l 1
 708 587 689 672 542 672 c 0
 303 672 224 438 224 278 c 0
 224 101 313 20 434 20 c 0
 538 20 551 45 558 74 c 2
 595 225 l 2
 604 260 597 271 578 273 c 2
 503 280 l 1
 509 309 l 1
 772 309 l 1
 766 280 l 1
 722 276 l 2
 705 274 699 259 691 225 c 2
 644 23 l 1
 587 2 505 -15 432 -15 c 0
 339 -15 258 8 199 59 c 0
 147 104 114 185 114 285 c 0
EndSplineSet
EndChar

StartChar: H
Encoding: 72 72 41
Width: 775
Flags: MW
HStem: 0 29<40 46 46 46 46 314> 341 38<306 631 297 640> 663 29<182 463 456 456 885 885>
LayerCount: 2
Fore
SplineSet
40 0 m 1
 46 29 l 1
 101 35 l 2
 125 37 135 49 143 83 c 2
 263 609 l 2
 270 641 264 657 241 659 c 2
 182 663 l 1
 189 692 l 1
 463 692 l 1
 456 663 l 1
 401 658 l 2
 376 656 367 642 359 609 c 2
 306 379 l 1
 640 379 l 1
 692 609 l 2
 699 641 693 657 670 659 c 2
 611 663 l 1
 618 692 l 1
 892 692 l 1
 885 663 l 1
 830 658 l 2
 805 656 796 642 788 609 c 2
 668 83 l 2
 660 50 666 35 690 33 c 2
 749 29 l 1
 743 0 l 1
 469 0 l 1
 475 29 l 1
 530 35 l 2
 554 37 564 49 572 83 c 2
 631 341 l 1
 297 341 l 1
 239 83 l 2
 232 50 237 35 261 33 c 2
 320 29 l 1
 314 0 l 1
 40 0 l 1
EndSplineSet
EndChar

StartChar: I
Encoding: 73 73 42
Width: 345
Flags: MW
HStem: 0 29<40 46 46 46 46 314> 663 29<182 463 456 456>
LayerCount: 2
Fore
SplineSet
40 0 m 1
 46 29 l 1
 101 35 l 2
 125 37 136 51 143 83 c 2
 263 609 l 2
 270 639 264 657 241 659 c 2
 182 663 l 1
 189 692 l 1
 463 692 l 1
 456 663 l 1
 401 658 l 2
 376 656 366 640 359 609 c 2
 239 83 l 2
 232 52 237 35 261 33 c 2
 320 29 l 1
 314 0 l 1
 40 0 l 1
EndSplineSet
EndChar

StartChar: J
Encoding: 74 74 43
Width: 352
Flags: MW
HStem: -117 25<-43 -43> 663 29<189 471 464 464>
LayerCount: 2
Fore
SplineSet
-43 -92 m 1
 7 -87 48 -73 82 -42 c 0
 113 -13 140 50 162 144 c 2
 271 612 l 2
 278 643 272 656 248 658 c 2
 189 663 l 1
 196 692 l 1
 471 692 l 1
 464 663 l 1
 409 659 l 2
 384 657 374 643 367 612 c 2
 250 109 l 2
 227 9 192 -47 145 -80 c 0
 105 -108 36 -119 -10 -119 c 0
 -21 -119 -32 -118 -43 -117 c 1
 -43 -92 l 1
EndSplineSet
EndChar

StartChar: K
Encoding: 75 75 44
Width: 650
Flags: MW
HStem: 0 29<40 46 46 46 46 314> 663 29<182 463 456 456 817 817>
LayerCount: 2
Fore
SplineSet
40 0 m 1
 46 29 l 1
 101 35 l 2
 125 37 136 51 143 83 c 2
 263 609 l 2
 270 639 264 657 241 659 c 2
 182 663 l 1
 189 692 l 1
 463 692 l 1
 456 663 l 1
 401 658 l 2
 376 656 366 640 359 609 c 2
 305 372 l 1
 307 370 l 1
 411 458 509 539 605 627 c 0
 625 646 625 658 606 660 c 2
 568 663 l 1
 572 692 l 1
 821 692 l 1
 817 663 l 1
 736 658 712 643 655 603 c 0
 563 539 480 471 390 395 c 1
 432 307 500 185 567 101 c 0
 603 56 627 29 684 24 c 1
 677 -5 l 1
 628 -4 l 2
 551 -2 508 19 460 84 c 0
 399 167 350 267 304 361 c 1
 302 361 l 1
 239 83 l 2
 232 52 237 35 261 33 c 2
 320 29 l 1
 314 0 l 1
 40 0 l 1
EndSplineSet
EndChar

StartChar: L
Encoding: 76 76 45
Width: 565
Flags: MW
HStem: 0 35<101 101 339.5 420.5> 663 29<182 468 461 461>
VStem: 573 30<176 176>
LayerCount: 2
Fore
SplineSet
40 0 m 1
 46 29 l 1
 101 35 l 2
 125 37 135 48 143 83 c 2
 263 609 l 2
 271 642 264 656 241 658 c 2
 182 663 l 1
 189 692 l 1
 468 692 l 1
 461 663 l 1
 401 659 l 2
 376 657 366 642 358 609 c 2
 247 122 l 2
 236 75 237 60 252 48 c 0
 265 38 315 35 364 35 c 0
 477 35 522 53 573 176 c 1
 603 176 l 1
 552 0 l 1
 40 0 l 1
EndSplineSet
EndChar

StartChar: M
Encoding: 77 77 46
Width: 920
Flags: MW
HStem: 0 29<31 36 36 36 36 267> 663 29<174 375 1030 1030>
LayerCount: 2
Fore
SplineSet
31 0 m 1
 36 29 l 1
 67 32 l 2
 96 35 114 43 126 75 c 0
 138 108 149 146 161 199 c 2
 255 609 l 2
 263 642 256 655 233 657 c 2
 174 663 l 1
 181 692 l 1
 375 692 l 1
 392 603 412 515 432 425 c 2
 488 148 l 1
 491 148 l 1
 668 418 l 2
 729 511 788 601 841 692 c 1
 1037 692 l 1
 1030 663 l 1
 975 659 l 2
 950 657 941 643 933 609 c 2
 813 83 l 2
 806 51 811 37 835 35 c 2
 894 29 l 1
 888 0 l 1
 616 0 l 1
 622 29 l 1
 677 35 l 2
 701 37 711 49 719 83 c 2
 842 606 l 1
 839 606 l 1
 450 12 l 1
 422 12 l 1
 302 606 l 1
 300 606 l 1
 208 199 l 2
 196 146 190 108 187 75 c 0
 184 44 201 35 233 32 c 2
 272 29 l 1
 267 0 l 1
 31 0 l 1
EndSplineSet
EndChar

StartChar: N
Encoding: 78 78 47
Width: 763
Flags: MW
HStem: 0 29<31 36 36 36 36 267> 663 29<174 371 885 885>
LayerCount: 2
Fore
SplineSet
31 0 m 1
 36 29 l 1
 67 32 l 2
 97 35 114 43 126 75 c 0
 138 108 149 146 161 199 c 2
 255 609 l 2
 263 642 256 655 233 657 c 2
 174 663 l 1
 181 692 l 1
 371 692 l 1
 455 505 541 318 627 131 c 1
 631 131 l 1
 713 493 l 2
 725 546 731 584 734 617 c 0
 737 650 720 655 688 659 c 2
 649 663 l 1
 654 692 l 1
 890 692 l 1
 885 663 l 1
 854 660 l 2
 824 657 807 649 795 617 c 0
 783 584 772 546 760 493 c 2
 648 0 l 1
 583 0 l 1
 491 203 399 406 305 609 c 1
 302 609 l 1
 208 199 l 2
 196 146 190 108 187 75 c 0
 184 44 201 35 233 32 c 2
 272 29 l 1
 267 0 l 1
 31 0 l 1
EndSplineSet
EndChar

StartChar: O
Encoding: 79 79 48
Width: 753
Flags: MW
HStem: -15 35<344 463 344 495.5> 672 35<451 559>
VStem: 114 105<187.5 272 160.5 303> 684 105<437.5 516.5 394.5 536.5>
LayerCount: 2
Fore
SplineSet
114 270 m 0
 114 336 128 430 183 523 c 0
 241 619 340 707 500 707 c 0
 665 707 789 619 789 414 c 0
 789 375 780 273 726 175 c 0
 671 76 584 -15 407 -15 c 0
 208 -15 114 105 114 270 c 0
219 230 m 0
 219 91 290 20 398 20 c 0
 528 20 596 113 637 220 c 0
 678 326 684 409 684 466 c 0
 684 607 614 672 504 672 c 0
 398 672 327 599 281 504 c 0
 235 407 219 314 219 230 c 0
EndSplineSet
EndChar

StartChar: P
Encoding: 80 80 49
Width: 614
Flags: MW
HStem: 0 29<40 46 46 46 46 324> 280 35<326.5 358> 657 35<400.5 423 423 456 189 475.5>
VStem: 576 105<470.5 542 470.5 568.5>
LayerCount: 2
Fore
SplineSet
40 0 m 1
 46 29 l 1
 101 35 l 2
 125 37 135 49 143 83 c 2
 263 609 l 2
 271 642 264 656 241 658 c 2
 182 663 l 1
 189 692 l 1
 423 692 l 2
 489 692 553 683 600 656 c 0
 649 628 681 576 681 508 c 0
 681 433 644 366 580 327 c 0
 523 292 443 280 358 280 c 2
 284 280 l 1
 239 83 l 2
 232 51 237 37 261 35 c 2
 330 29 l 1
 324 0 l 1
 40 0 l 1
301 357 m 2
 294 325 292 315 361 315 c 0
 496 315 576 383 576 526 c 0
 576 611 525 657 426 657 c 0
 375 657 368 648 362 622 c 2
 301 357 l 2
EndSplineSet
EndChar

StartChar: Q
Encoding: 81 81 50
Width: 753
Flags: MW
HStem: -203 33 -11 31 672 35<451 559>
VStem: 114 105<195.5 272 160.5 303> 684 105<437.5 516.5 394.5 536.5>
LayerCount: 2
Fore
SplineSet
114 270 m 0
 114 336 128 430 183 523 c 0
 241 619 340 707 500 707 c 0
 665 707 789 619 789 414 c 0
 789 375 780 273 726 175 c 0
 678 88 605 8 468 -11 c 1
 480 -30 505 -62 534 -91 c 0
 582 -139 629 -171 696 -170 c 1
 699 -187 l 1
 682 -197 650 -203 624 -203 c 0
 570 -203 505 -180 454 -137 c 0
 411 -101 373 -53 351 -11 c 1
 191 9 114 121 114 270 c 0
219 230 m 0
 219 91 290 20 398 20 c 0
 528 20 596 113 637 220 c 0
 678 326 684 409 684 466 c 0
 684 607 614 672 504 672 c 0
 398 672 327 599 281 504 c 0
 235 407 219 314 219 230 c 0
EndSplineSet
EndChar

StartChar: R
Encoding: 82 82 51
Width: 640
Flags: MW
HStem: 0 29<40 46 46 46 46 314> 326 35<302 354 294 366> 657 35<409 459 459 479.5>
VStem: 462 101 572 105<481.5 566.5 481.5 584.5>
LayerCount: 2
Fore
SplineSet
40 0 m 1
 46 29 l 1
 101 35 l 2
 125 37 135 48 143 83 c 2
 263 609 l 2
 271 642 264 656 241 658 c 2
 182 663 l 1
 189 692 l 1
 459 692 l 2
 646 692 677 602 677 531 c 0
 677 432 593 362 471 345 c 1
 471 343 l 1
 562 318 564 250 563 170 c 0
 562 118 567 81 577 64 c 0
 589 44 613 33 657 29 c 1
 648 0 l 1
 570 0 l 2
 506 0 476 27 469 77 c 0
 460 151 468 228 462 264 c 0
 458 286 447 303 430 313 c 0
 415 323 387 326 354 326 c 2
 294 326 l 1
 239 83 l 2
 231 49 237 36 261 34 c 2
 320 29 l 1
 314 0 l 1
 40 0 l 1
302 361 m 1
 366 361 l 2
 495 361 572 422 572 541 c 0
 572 628 512 657 447 657 c 0
 371 657 368 648 361 619 c 2
 302 361 l 1
EndSplineSet
EndChar

StartChar: S
Encoding: 83 83 52
Width: 533
Flags: MW
HStem: -15 35<244 278> 672 35<347.5 429 310.5 439>
VStem: 95 29<220 220> 168 84<507 551> 441 90<152.5 205>
LayerCount: 2
Fore
SplineSet
69 67 m 1
 95 220 l 1
 124 220 l 1
 118 87 198 20 290 20 c 0
 390 20 441 94 441 165 c 0
 441 245 393 287 313 327 c 0
 232 366 168 415 168 509 c 0
 168 593 223 707 398 707 c 0
 460 707 534 690 577 656 c 1
 541 516 l 1
 512 516 l 1
 524 619 487 672 391 672 c 0
 304 672 252 616 252 545 c 0
 252 469 323 435 381 405 c 0
 482 353 531 296 531 206 c 0
 531 99 472 -13 278 -15 c 0
 205 -15 108 15 69 67 c 1
EndSplineSet
EndChar

StartChar: T
Encoding: 84 84 53
Width: 606
Flags: MW
HStem: 0 31 657 35<284 333 333 402 498 561 498 498>
VStem: 678 27
LayerCount: 2
Fore
SplineSet
137 525 m 1
 175 692 l 1
 743 692 l 1
 705 525 l 1
 675 525 l 1
 684 615 685 657 561 657 c 2
 498 657 l 1
 368 81 l 2
 361 50 366 35 394 33 c 2
 467 29 l 1
 460 0 l 1
 152 0 l 1
 159 29 l 1
 224 33 l 2
 254 35 265 50 272 81 c 2
 402 657 l 1
 333 657 l 2
 235 657 199 627 167 525 c 1
 137 525 l 1
EndSplineSet
EndChar

StartChar: U
Encoding: 85 85 54
Width: 794
Flags: MW
HStem: -15 35<359.5 478> 663 29<180 461 454 454 908 908>
LayerCount: 2
Fore
SplineSet
177 256 m 2
 261 609 l 2
 269 642 262 656 239 658 c 2
 180 663 l 1
 187 692 l 1
 461 692 l 1
 454 663 l 1
 399 659 l 2
 374 657 365 643 357 609 c 2
 278 269 l 2
 234 81 304 20 415 20 c 0
 554 20 603 127 634 260 c 2
 715 609 l 2
 723 642 716 656 693 658 c 2
 634 663 l 1
 641 692 l 1
 915 692 l 1
 908 663 l 1
 853 658 l 2
 828 656 819 643 811 609 c 2
 726 247 l 2
 671 14 546 -15 410 -15 c 0
 238 -15 130 57 177 256 c 2
EndSplineSet
EndChar

StartChar: V
Encoding: 86 86 55
Width: 637
Flags: MW
HStem: 0 21G<287 356 287 287> 663 29<131 386 381 381 816 816>
LayerCount: 2
Fore
SplineSet
131 663 m 1
 136 692 l 1
 386 692 l 1
 381 663 l 1
 317 657 l 2
 299 655 298 643 300 624 c 0
 308 541 318 454 330 366 c 2
 365 100 l 1
 367 100 l 1
 510 349 l 2
 594 495 642 582 663 627 c 0
 674 650 669 656 651 658 c 2
 596 663 l 1
 601 692 l 1
 821 692 l 1
 816 663 l 1
 763 659 747 653 725 619 c 0
 685 557 624 456 559 345 c 2
 356 0 l 1
 287 0 l 1
 245 320 l 2
 232 420 220 519 208 611 c 0
 203 647 194 655 171 658 c 2
 131 663 l 1
EndSplineSet
EndChar

StartChar: W
Encoding: 87 87 56
Width: 946
Flags: MW
HStem: 0 21G<238 308 238 238 639 709 639 639> 663 29<121 380 373 373 1105 1105>
LayerCount: 2
Fore
SplineSet
121 663 m 1
 127 692 l 1
 380 692 l 1
 373 663 l 1
 308 657 l 2
 292 656 285 648 287 625 c 2
 320 122 l 1
 325 122 l 1
 596 674 l 1
 666 674 l 1
 717 122 l 1
 721 122 l 1
 841 373 l 2
 902 500 939 582 955 622 c 0
 963 643 962 654 946 656 c 2
 881 663 l 1
 886 692 l 1
 1110 692 l 1
 1105 663 l 1
 1043 657 1036 651 1008 603 c 0
 990 572 939 471 883 357 c 2
 709 0 l 1
 639 0 l 1
 587 551 l 1
 582 551 l 1
 308 0 l 1
 238 0 l 1
 194 616 l 2
 192 646 187 656 165 658 c 2
 121 663 l 1
EndSplineSet
EndChar

StartChar: X
Encoding: 88 88 57
Width: 632
Flags: MW
HStem: 0 29<-1 5 5 5 5 248> 663 29<145 411 405 405 764 764>
LayerCount: 2
Fore
SplineSet
-1 0 m 1
 5 29 l 1
 67 35 84 39 116 73 c 0
 174 135 274 255 352 349 c 1
 312 440 268 555 238 620 c 0
 222 655 205 658 145 663 c 1
 151 692 l 1
 411 692 l 1
 405 663 l 1
 353 659 l 2
 332 657 327 646 336 623 c 0
 362 559 390 489 418 424 c 1
 420 424 l 1
 482 495 557 590 586 628 c 0
 599 645 597 657 577 659 c 2
 534 663 l 1
 540 692 l 1
 770 692 l 1
 764 663 l 1
 711 659 690 653 668 634 c 0
 612 583 504 465 436 383 c 1
 483 277 547 131 571 80 c 0
 591 37 608 34 674 29 c 1
 668 0 l 1
 398 0 l 1
 403 29 l 1
 455 34 l 2
 477 36 481 48 472 70 c 0
 442 145 406 225 372 305 c 1
 368 305 l 1
 302 224 219 115 183 63 c 0
 172 47 178 37 197 35 c 2
 254 29 l 1
 248 0 l 1
 -1 0 l 1
EndSplineSet
EndChar

StartChar: Y
Encoding: 89 89 58
Width: 591
Flags: MW
HStem: 0 29<161 161 161 465 155 161> 663 29<131 386 380 380 773 773>
LayerCount: 2
Fore
SplineSet
131 663 m 1
 137 692 l 1
 386 692 l 1
 380 663 l 1
 325 658 l 2
 306 656 302 647 306 629 c 2
 397 322 l 1
 400 322 l 1
 479 429 572 563 611 630 c 0
 620 647 617 658 596 659 c 2
 544 663 l 1
 550 692 l 1
 779 692 l 1
 773 663 l 1
 716 659 704 652 668 612 c 0
 614 551 514 418 438 307 c 0
 428 293 417 274 410 247 c 2
 372 78 l 2
 366 50 371 37 395 35 c 2
 471 29 l 1
 465 0 l 1
 155 0 l 1
 161 29 l 1
 233 36 l 2
 259 39 268 50 274 78 c 2
 312 246 l 2
 317 267 317 282 312 299 c 0
 279 409 248 518 214 617 c 0
 201 656 194 658 131 663 c 1
EndSplineSet
EndChar

StartChar: Z
Encoding: 90 90 59
Width: 622
Flags: MW
HStem: 0 35<154 357 357 436> 657 35<347.5 403 403 598>
VStem: 188 30<523 523>
LayerCount: 2
Fore
SplineSet
15 13 m 1
 212 229 408 446 598 657 c 1
 403 657 l 2
 292 657 259 639 218 523 c 1
 188 523 l 1
 225 692 l 1
 733 692 l 1
 738 679 l 1
 541 463 344 246 154 35 c 1
 357 35 l 2
 515 35 558 53 611 176 c 1
 641 176 l 1
 590 0 l 1
 19 0 l 1
 15 13 l 1
EndSplineSet
EndChar

StartChar: bracketleft
Encoding: 91 91 60
Width: 330
Flags: MW
HStem: -128 27<104 268> 665 27<444 444>
LayerCount: 2
Fore
SplineSet
104 -128 m 1
 290 692 l 1
 449 692 l 1
 444 665 l 1
 353 660 345 654 335 610 c 2
 185 -46 l 2
 176 -90 180 -96 268 -101 c 1
 263 -128 l 1
 104 -128 l 1
EndSplineSet
EndChar

StartChar: backslash
Encoding: 92 92 61
Width: 390
Flags: MW
HStem: -15 21G<335 406 335 335> 687 20G<124 195 195 195>
VStem: 124 71<707 707> 335 71<-15 -15>
LayerCount: 2
Fore
SplineSet
124 707 m 1
 195 707 l 1
 406 -15 l 1
 335 -15 l 1
 124 707 l 1
EndSplineSet
EndChar

StartChar: bracketright
Encoding: 93 93 62
Width: 330
Flags: MW
HStem: -128 27<14 19 19 19 19 173> 665 27<195 359>
LayerCount: 2
Fore
SplineSet
14 -128 m 1
 19 -101 l 1
 111 -96 118 -90 128 -46 c 2
 278 610 l 2
 288 654 284 660 195 665 c 1
 200 692 l 1
 359 692 l 1
 173 -128 l 1
 14 -128 l 1
EndSplineSet
EndChar

StartChar: asciicircum
Encoding: 94 94 63
Width: 570
Flags: MW
HStem: 648 20G<314 391 391 391>
VStem: 118 76<228 228> 506 76<228 228>
LayerCount: 2
Fore
SplineSet
118 228 m 1
 314 668 l 1
 391 668 l 1
 582 228 l 1
 506 228 l 1
 352 595 l 1
 194 228 l 1
 118 228 l 1
EndSplineSet
EndChar

StartChar: underscore
Encoding: 95 95 64
Width: 500
Flags: MW
HStem: -125 50<0 500 0 500>
VStem: 0 500<-125 -75 -125 -75>
LayerCount: 2
Fore
SplineSet
0 -75 m 1
 500 -75 l 1
 500 -125 l 1
 0 -125 l 1
 0 -75 l 1
EndSplineSet
EndChar

StartChar: grave
Encoding: 96 96 65
Width: 400
Flags: MW
HStem: 542 181<212.5 388>
VStem: 181 222<562 690>
LayerCount: 2
Fore
SplineSet
181 680 m 0
 181 700 205 723 220 723 c 0
 237 723 254 713 284 682 c 2
 403 562 l 1
 388 542 l 1
 237 626 l 2
 207 642 181 659 181 680 c 0
EndSplineSet
EndChar

StartChar: a
Encoding: 97 97 66
Width: 561
Flags: MW
HStem: -12 52<192.5 215.5> 467 35<341.5 431.5 299 432> 474 20G<496 580 580 580>
VStem: 66 99<90.5 165 90.5 173>
LayerCount: 2
Fore
SplineSet
66 107 m 0xb0
 66 239 180 502 418 502 c 0xd0
 445 502 474 493 491 481 c 1
 496 494 l 1
 580 494 l 1
 474 95 l 2
 465 63 464 40 484 40 c 0
 512 40 556 111 574 146 c 1
 598 132 l 1
 564 56 508 -12 432 -12 c 0
 378 -12 367 29 388 100 c 2
 422 214 l 1
 420 214 l 1
 362 112 269 -12 162 -12 c 0
 94 -12 66 47 66 107 c 0xb0
165 110 m 0
 165 71 176 40 209 40 c 0
 257 40 318 107 374 192 c 0
 427 272 463 371 481 445 c 1
 466 459 444 467 420 467 c 0
 263 467 165 220 165 110 c 0
EndSplineSet
EndChar

StartChar: b
Encoding: 98 98 67
Width: 559
Flags: MW
HStem: -12 35<261.5 333.5> 0 21G<82 82 82 118> 450 52<447 458.5> 695 23<152 158> 722 20G<337 337>
VStem: 494 98<353.5 395.5>
LayerCount: 2
Fore
SplineSet
82 0 m 1x74
 229 639 l 2
 238 678 234 685 209 688 c 2
 152 695 l 1
 158 718 l 1
 337 742 l 1
 342 737 l 1
 231 296 l 1
 233 296 l 1
 310 433 409 502 485 502 c 0
 559 502 592 450 592 376 c 0
 592 331 576 242 526 154 c 0
 477 66 392 -12 275 -12 c 0xbc
 218 -12 167 16 149 58 c 1
 118 0 l 1
 82 0 l 1x74
205 109 m 0
 205 59 236 23 287 23 c 0
 434 23 494 295 494 367 c 0
 494 424 477 450 440 450 c 0
 378 450 303 364 258 284 c 0
 226 226 205 157 205 109 c 0
EndSplineSet
EndChar

StartChar: c
Encoding: 99 99 68
Width: 441
Flags: MW
HStem: -12 49<231.5 261> 467 35<301 363>
VStem: 81 99<132.5 230>
LayerCount: 2
Fore
SplineSet
81 148 m 0
 81 312 193 502 371 502 c 0
 446 502 500 464 500 413 c 0
 500 380 460 357 436 357 c 0
 418 357 409 369 407 387 c 0
 401 447 379 467 347 467 c 0
 255 467 180 298 180 168 c 0
 180 97 195 37 268 37 c 0
 335 37 394 108 428 154 c 1
 452 135 l 1
 383 20 298 -12 224 -12 c 0
 154 -12 81 26 81 148 c 0
EndSplineSet
EndChar

StartChar: d
Encoding: 100 100 69
Width: 587
Flags: MW
HStem: -12 52<205 229.5> 467 35<338 429 295.5 433.5> 695 47
VStem: 72 99<89.5 166 89.5 180.5>
LayerCount: 2
Fore
SplineSet
72 120 m 0
 72 241 179 502 412 502 c 0
 446 502 477 495 496 485 c 1
 498 487 l 1
 536 648 l 2
 544 680 542 687 518 689 c 2
 458 695 l 1
 464 718 l 1
 642 742 l 1
 647 737 l 1
 489 95 l 2
 481 63 479 40 499 40 c 0
 527 40 571 111 589 146 c 1
 613 132 l 1
 579 56 523 -12 450 -12 c 0
 399 -13 384 28 404 99 c 2
 437 218 l 1
 435 218 l 1
 376 111 287 -12 172 -12 c 0
 91 -12 72 55 72 120 c 0
171 112 m 0
 171 67 189 40 221 40 c 0
 274 40 340 115 388 193 c 0
 439 276 472 370 487 447 c 1
 475 458 449 467 418 467 c 0
 258 467 171 220 171 112 c 0
EndSplineSet
EndChar

StartChar: e
Encoding: 101 101 70
Width: 453
Flags: MW
HStem: -12 49<235 265.5> 467 35<337 371.5>
VStem: 80 99<136.5 178.5 136.5 194> 412 94<388 425.5>
LayerCount: 2
Fore
SplineSet
80 152 m 0
 80 236 110 323 163 388 c 0
 218 456 292 502 382 502 c 0
 464 502 506 455 506 402 c 0
 506 374 499 341 464 306 c 0
 421 266 348 226 180 192 c 1
 179 185 179 181 179 176 c 0
 179 97 200 37 270 37 c 0
 345 37 399 104 435 151 c 1
 458 131 l 1
 390 20 302 -12 229 -12 c 0
 171 -12 80 12 80 152 c 0
182 226 m 1
 351 262 412 338 412 408 c 0
 412 443 389 467 354 467 c 0
 274 467 199 347 182 226 c 1
EndSplineSet
EndChar

StartChar: f
Encoding: 102 102 71
Width: 315
Flags: MW
HStem: -242 37<47.5 58 47.5 69> 452 38<123 201 112 210 302 422> 707 35<392.5 409.5>
VStem: -72 611
LayerCount: 2
Fore
SplineSet
-72 -184 m 0
 -72 -159 -49 -134 -27 -134 c 0
 -14 -134 -7 -146 0 -156 c 0
 27 -197 42 -205 53 -205 c 0
 63 -205 73 -199 85 -137 c 2
 201 452 l 1
 112 452 l 1
 123 490 l 1
 210 490 l 1
 220 527 l 2
 234 580 254 634 285 673 c 0
 318 715 360 742 425 742 c 0
 485 742 539 707 539 664 c 0
 539 639 510 620 490 620 c 0
 475 620 468 627 463 637 c 0
 441 685 423 707 396 707 c 0
 368 707 349 679 330 603 c 2
 302 490 l 1
 432 490 l 1
 422 452 l 1
 296 452 l 1
 203 31 l 2
 161 -161 119 -242 19 -242 c 0
 -28 -242 -71 -217 -72 -184 c 0
EndSplineSet
EndChar

StartChar: g
Encoding: 103 103 72
Width: 499
Flags: MW
HStem: -242 35<228.5 309.5 228.5 317.5> 180 35<288.5 334.5 270.5 365.5> 467 35<292.5 355>
VStem: 30 92<-123 -54.5> 113 85<130 138> 120 94<281 332.5 276 353.5> 409 85<-130 -52> 420 92<336.5 372.5 307.5 417.5>
LayerCount: 2
Fore
SplineSet
30 -96 m 0xf2
 30 -13 116 29 184 41 c 1
 184 43 l 1
 143 62 113 85 113 118 c 0xe8
 113 158 173 180 204 193 c 1
 204 195 l 1
 174 206 120 244 120 318 c 0xe4
 120 389 169 502 333 502 c 0
 382 502 431 489 457 472 c 1
 602 512 l 1
 608 503 l 1
 575 440 l 1
 491 428 l 1
 504 411 512 386 512 359 c 0
 512 256 435 180 296 180 c 0
 281 180 262 180 242 183 c 1
 218 177 198 163 198 144 c 0xe9
 198 116 235 102 319 82 c 0
 437 54 494 0 494 -75 c 0
 494 -185 385 -242 250 -242 c 0
 123 -242 30 -185 30 -96 c 0xf2
122 -87 m 0xf2
 122 -159 185 -207 272 -207 c 0
 347 -207 409 -170 409 -94 c 0
 409 -10 291 16 228 25 c 1
 187 19 122 -15 122 -87 c 0xf2
214 301 m 0xe5
 214 251 244 215 297 215 c 0
 372 215 420 290 420 383 c 0
 420 452 370 467 340 467 c 0
 245 467 214 364 214 301 c 0xe5
EndSplineSet
EndChar

StartChar: h
Encoding: 104 104 73
Width: 607
Flags: MW
HStem: -12 52<435.5 523> 450 52<460.5 478> 675 20G<161 161> 722 20G<347 347>
VStem: 404 89 499 90
LayerCount: 2
Fore
SplineSet
92 -12 m 1
 238 639 l 2
 247 678 243 685 218 688 c 2
 161 695 l 1
 167 718 l 1
 347 742 l 1
 352 737 l 1
 240 279 l 1
 243 279 l 1
 307 399 413 502 508 502 c 0
 589 502 602 436 578 357 c 2
 499 95 l 2
 489 63 489 40 509 40 c 0
 537 40 581 111 599 146 c 1
 623 132 l 1
 589 56 533 -12 464 -12 c 0
 407 -12 393 30 412 96 c 2
 494 380 l 2
 506 421 494 450 462 450 c 0
 375 450 276 298 246 220 c 0
 221 157 206 102 179 0 c 1
 92 -12 l 1
EndSplineSet
EndChar

StartChar: i
Encoding: 105 105 74
Width: 317
Flags: MW
HStem: -12 52<145 234> 450 24<126 132> 482 20<314 314> 593 122<287.5 318.5>
VStem: 244 119<640 665>
LayerCount: 2
Fore
SplineSet
244 649 m 0
 244 681 266 715 309 715 c 0
 337 715 363 699 363 660 c 0
 363 620 338 593 299 593 c 0
 269 593 244 612 244 649 c 0
120 86 m 2
 204 399 l 2
 213 434 210 443 183 445 c 2
 126 450 l 1
 132 474 l 1
 314 502 l 1
 319 497 l 1
 210 95 l 2
 201 63 200 40 220 40 c 0
 248 40 292 111 310 146 c 1
 334 132 l 1
 300 56 244 -12 172 -12 c 0
 118 -12 105 29 120 86 c 2
EndSplineSet
EndChar

StartChar: j
Encoding: 106 106 75
Width: 309
Flags: MW
HStem: -242 35<9 74> 450 24<136 142> 482 20<321 321> 593 122<289.5 320.5>
VStem: 246 119<640 665>
LayerCount: 2
Fore
SplineSet
246 649 m 0
 246 681 268 715 311 715 c 0
 339 715 365 699 365 660 c 0
 365 620 340 593 301 593 c 0
 271 593 246 612 246 649 c 0
-60 -184 m 0
 -60 -159 -37 -134 -15 -134 c 0
 -2 -134 5 -145 11 -154 c 0
 38 -194 56 -207 68 -207 c 0
 80 -207 87 -195 91 -176 c 2
 213 395 l 2
 221 430 222 443 198 445 c 2
 136 450 l 1
 142 474 l 1
 321 502 l 1
 326 497 l 1
 213 -3 l 2
 193 -92 170 -156 142 -192 c 0
 114 -227 81 -242 35 -242 c 0
 -17 -242 -59 -217 -60 -184 c 0
EndSplineSet
EndChar

StartChar: k
Encoding: 107 107 76
Width: 545
Flags: MW
HStem: -12 55<456.5 464> 426 76<458 569.5> 695 23<170 176> 722 20G<355 355>
LayerCount: 2
Fore
SplineSet
92 -12 m 1
 247 639 l 2
 256 678 252 685 227 688 c 2
 170 695 l 1
 176 718 l 1
 355 742 l 1
 360 737 l 1
 184 0 l 1
 92 -12 l 1
255 267 m 1
 302 324 354 379 410 428 c 0
 461 471 510 502 550 502 c 0
 589 502 602 480 602 453 c 0
 602 428 581 399 553 399 c 0
 542 399 532 403 525 407 c 0
 502 421 491 426 476 426 c 0
 440 426 362 341 334 309 c 1
 353 242 378 177 409 114 c 0
 434 62 448 43 465 43 c 0
 492 43 517 82 545 142 c 1
 570 129 l 1
 540 45 496 -12 432 -12 c 0
 384 -12 355 19 326 83 c 0
 298 144 274 203 255 267 c 1
EndSplineSet
EndChar

StartChar: l
Encoding: 108 108 77
Width: 306
Flags: MW
HStem: -12 52<141 227> 695 47
LayerCount: 2
Fore
SplineSet
116 86 m 2
 253 639 l 2
 263 678 258 685 233 688 c 2
 176 695 l 1
 182 718 l 1
 361 742 l 1
 366 737 l 1
 205 94 l 2
 197 61 197 40 215 40 c 0
 239 40 284 101 307 146 c 1
 331 132 l 1
 299 57 238 -12 168 -12 c 0
 114 -12 102 29 116 86 c 2
EndSplineSet
EndChar

StartChar: m
Encoding: 109 109 78
Width: 912
Flags: MW
HStem: -12 52<741 829> 450 24<126 132> 450 52<466 481 764 782.5>
LayerCount: 2
Fore
SplineSet
98 -12 m 1xa0
 201 397 l 2
 209 429 211 443 187 445 c 2
 126 450 l 1
 132 474 l 1xc0
 313 502 l 1
 318 497 l 1
 255 290 l 1
 258 290 l 1
 327 416 420 502 512 502 c 0
 582 502 602 449 572 353 c 2
 552 290 l 1
 556 290 l 1
 628 419 719 502 809 502 c 0
 892 502 905 436 882 357 c 2
 805 95 l 2
 796 63 795 40 815 40 c 0
 843 40 887 111 905 146 c 1
 929 132 l 1
 895 56 839 -12 766 -12 c 0
 716 -12 696 24 714 86 c 2
 800 380 l 2
 813 423 799 450 766 450 c 0
 682 450 591 306 554 221 c 0
 528 160 512 102 483 0 c 1
 396 -12 l 1
 422 86 l 1
 496 366 l 2
 512 428 496 450 466 450 c 0
 383 450 285 300 251 213 c 0
 230 160 214 102 185 0 c 1
 98 -12 l 1xa0
EndSplineSet
EndChar

StartChar: n
Encoding: 110 110 79
Width: 618
Flags: MW
HStem: -12 52<443 535> 450 24<126 132> 450 52<470 489.5>
LayerCount: 2
Fore
SplineSet
98 -12 m 1xa0
 203 397 l 2
 212 429 212 443 188 445 c 2
 126 450 l 1
 132 474 l 1xc0
 315 502 l 1
 320 497 l 1
 255 279 l 1
 258 279 l 1
 318 396 422 502 518 502 c 0
 600 502 612 436 589 357 c 2
 511 95 l 2
 502 63 501 40 521 40 c 0
 549 40 593 111 611 146 c 1
 635 132 l 1
 601 56 545 -12 470 -12 c 0
 416 -12 403 30 419 86 c 2
 505 379 l 2
 516 418 507 450 472 450 c 0
 391 450 295 304 258 218 c 0
 232 156 215 102 186 0 c 1
 98 -12 l 1xa0
EndSplineSet
EndChar

StartChar: o
Encoding: 111 111 80
Width: 537
Flags: MW
HStem: -12 35<242 322.5> 467 35<311 407.5>
VStem: 84 97<115.5 183 93.5 212> 460 97<326.5 393>
LayerCount: 2
Fore
SplineSet
84 169 m 0
 84 255 141 502 378 502 c 0
 459 502 557 465 557 327 c 0
 557 273 540 188 494 116 c 0
 447 42 377 -12 268 -12 c 0
 142 -12 84 62 84 169 c 0
181 129 m 0
 181 58 213 23 271 23 c 0
 408 23 460 291 460 362 c 0
 460 424 438 467 377 467 c 0
 245 467 181 237 181 129 c 0
EndSplineSet
EndChar

StartChar: p
Encoding: 112 112 81
Width: 590
Flags: MW
HStem: -242 21G<57 57> -12 35<283 381 279.5 431.5> 450 24<120 126> 450 52<471.5 486>
VStem: 522 99<330 393.5>
LayerCount: 2
Fore
SplineSet
57 -242 m 1xd8
 197 397 l 2
 204 427 206 443 182 445 c 2
 120 450 l 1
 126 474 l 1xe8
 307 502 l 1
 312 497 l 1
 255 286 l 1
 258 286 l 1
 334 429 433 502 510 502 c 0
 584 502 621 455 621 368 c 0
 621 292 554 -12 309 -12 c 0
 257 -12 222 -3 201 10 c 1
 146 -230 l 1
 57 -242 l 1xd8
211 53 m 1
 233 34 260 23 299 23 c 0
 463 23 522 288 522 367 c 0
 522 420 504 450 468 450 c 0xd8
 411 450 338 370 290 286 c 0
 252 219 224 117 211 53 c 1
EndSplineSet
EndChar

StartChar: q
Encoding: 113 113 82
Width: 559
Flags: MW
HStem: -242 21G<331 331> -12 52<202 209.5> 467 35<341 440>
VStem: 73 99<99.5 172 99.5 175.5>
LayerCount: 2
Fore
SplineSet
73 107 m 0
 73 244 174 502 423 502 c 0
 470 502 505 489 521 480 c 1
 564 525 l 1
 602 525 l 1
 424 -222 l 1
 331 -242 l 1
 430 190 l 1
 427 190 l 1
 353 66 251 -12 168 -12 c 0
 119 -12 73 20 73 107 c 0
172 123 m 0
 172 76 184 40 220 40 c 0
 261 40 317 84 372 156 c 0
 426 228 470 331 494 446 c 1
 479 457 456 467 424 467 c 0
 258 467 172 221 172 123 c 0
EndSplineSet
EndChar

StartChar: r
Encoding: 114 114 83
Width: 402
Flags: MW
HStem: -12 21G<104 104> 396 106<420 448.5> 421 81<297 381.5> 448 26 477 20G<302 302>
VStem: 104 379
LayerCount: 2
Fore
SplineSet
104 -12 m 1xa4
 196 397 l 2
 203 429 205 443 181 445 c 2
 119 450 l 1
 125 474 l 1x94
 297 502 l 1xa4
 302 497 l 1x8c
 257 331 l 1
 259 331 l 1
 313 439 382 502 438 502 c 0
 470 502 484 485 483 458 c 0
 483 429 461 396 436 396 c 0xc4
 404 396 397 421 366 421 c 0
 328 421 278 335 242 204 c 0
 226 146 207 65 190 0 c 1
 104 -12 l 1xa4
EndSplineSet
EndChar

StartChar: s
Encoding: 115 115 84
Width: 389
Flags: MW
HStem: -12 35<209.5 249 209.5 258> 467 35<257.5 292.5>
VStem: 143 71<388 395.5> 300 77<98 117.5>
LayerCount: 2
Fore
SplineSet
54 83 m 0
 54 110 76 137 106 137 c 0
 123 137 132 126 138 107 c 0
 154 54 191 23 228 23 c 0
 270 23 300 51 300 98 c 0
 300 137 274 181 231 215 c 0
 179 257 143 303 143 355 c 0
 143 436 203 502 305 502 c 0
 394 502 432 455 432 424 c 0
 432 393 404 378 384 378 c 0
 369 378 361 386 356 398 c 0
 335 445 309 467 276 467 c 0
 239 467 214 434 214 402 c 0
 214 374 225 341 285 292 c 0
 352 237 377 194 377 139 c 0
 377 57 312 -12 204 -12 c 0
 109 -12 54 40 54 83 c 0
EndSplineSet
EndChar

StartChar: t
Encoding: 116 116 85
Width: 341
Flags: MW
HStem: -12 52<147 244.5> 452 38<143 215 132 224 312 428>
LayerCount: 2
Fore
SplineSet
125 86 m 2
 215 452 l 1
 132 452 l 1
 143 490 l 1
 224 490 l 1
 237 539 l 1
 334 616 l 1
 346 609 l 1
 312 490 l 1
 439 490 l 1
 428 452 l 1
 303 452 l 1
 214 88 l 2
 208 63 208 40 229 40 c 0
 260 40 311 107 334 146 c 1
 356 129 l 1
 316 54 252 -12 172 -12 c 0
 122 -12 110 29 125 86 c 2
EndSplineSet
EndChar

StartChar: u
Encoding: 117 117 86
Width: 618
Flags: MW
HStem: -12 52<232 249> 450 52
VStem: 124 92 423 88
LayerCount: 2
Fore
SplineSet
126 450 m 1
 132 474 l 1
 314 502 l 1
 319 497 l 1
 223 128 l 2
 208 70 216 40 248 40 c 0
 331 40 418 173 462 274 c 0
 488 335 504 388 533 490 c 1
 622 502 l 1
 515 94 l 2
 507 63 507 40 528 40 c 0
 556 40 600 112 620 146 c 1
 644 131 l 1
 609 57 549 -12 477 -12 c 0
 424 -12 412 29 431 96 c 2
 464 210 l 1
 462 210 l 1
 402 94 297 -12 201 -12 c 0
 121 -12 113 53 134 133 c 2
 203 397 l 2
 211 428 212 443 188 445 c 2
 126 450 l 1
EndSplineSet
EndChar

StartChar: v
Encoding: 118 118 87
Width: 510
Flags: MW
HStem: -12 52<239.5 247> 448 26 477 20G<307 307> 482 20G<302 302 520 536>
VStem: 129 88 471 92<356 443.5>
LayerCount: 2
Fore
SplineSet
119 450 m 1xdc
 125 474 l 1
 302 502 l 1xdc
 307 497 l 1xec
 220 110 l 2
 209 62 227 40 252 40 c 0
 334 37 463 219 471 356 c 0
 471 408 469 446 459 481 c 1
 480 494 508 502 532 502 c 0
 540 502 563 463 563 424 c 0
 562 362 514 253 446 161 c 0
 377 68 290 -12 204 -12 c 0
 147 -12 115 28 135 119 c 2
 196 397 l 2
 203 430 204 443 181 445 c 2
 119 450 l 1xdc
EndSplineSet
EndChar

StartChar: w
Encoding: 119 119 88
Width: 785
Flags: MW
HStem: -12 52<241 247.5 528.5 549.5> 448 26 473 20G<588 588> 477 20G<311 311> 482 20G<306 306 800 816>
VStem: 129 89 424 84 752 91<297 444.5>
LayerCount: 2
Fore
SplineSet
122 450 m 1x8f
 127 474 l 1
 306 502 l 1xcf
 311 497 l 1x97
 223 121 l 2
 209 63 228 40 254 40 c 0
 294 40 341 90 382 152 c 0
 440 240 469 361 502 487 c 1
 588 493 l 1xa7
 518 178 l 2
 498 86 506 40 551 40 c 0
 631 40 752 228 752 366 c 0
 752 408 750 446 740 481 c 1
 761 494 788 502 812 502 c 0
 820 502 843 465 843 424 c 0
 842 365 797 256 731 160 c 0
 666 65 591 -12 508 -12 c 0
 448 -12 424 30 424 85 c 0
 424 113 433 156 440 192 c 1
 438 194 l 1
 378 74 289 -12 206 -12 c 0
 150 -12 113 29 135 124 c 2
 198 397 l 2
 206 432 205 443 183 445 c 2
 122 450 l 1x8f
EndSplineSet
EndChar

StartChar: x
Encoding: 120 120 89
Width: 516
Flags: MW
HStem: -12 52<418.5 428.5> -12 77<75 155> 427 75 428 24<125 128>
LayerCount: 2
Fore
SplineSet
31 39 m 0x40
 31 63 48 89 74 89 c 0
 91 89 104 79 114 74 c 0
 123 69 133 65 143 65 c 0
 167 65 204 117 247 190 c 2
 275 238 l 1
 239 383 l 2
 228 429 221 434 203 433 c 2
 128 428 l 1
 125 452 l 1x50
 290 502 l 1
 296 498 l 1
 336 330 l 1
 338 330 l 1
 382 398 l 2
 417 454 462 502 515 502 c 0
 543 502 566 490 566 459 c 0
 566 432 545 411 523 411 c 0
 511 411 501 415 491 419 c 0
 480 425 472 427 463 427 c 0
 434 427 383 347 347 283 c 1
 379 152 l 2
 401 63 409 40 428 40 c 0
 456 40 483 93 507 138 c 1
 533 124 l 1
 503 63 465 -12 392 -12 c 0xa0
 341 -12 322 31 303 111 c 2
 285 189 l 1
 283 189 l 1
 243 123 l 2
 202 56 163 -12 95 -12 c 0
 55 -12 31 10 31 39 c 0x40
EndSplineSet
EndChar

StartChar: y
Encoding: 121 121 90
Width: 468
Flags: MW
HStem: -242 60<46 132> 482 20G<239 239 512.5 525.5>
VStem: 210 77<-2 61> 444 96
LayerCount: 2
Fore
SplineSet
-5 -187 m 0
 -5 -158 20 -128 46 -127 c 0
 61 -127 69 -135 81 -151 c 0
 96 -171 107 -182 122 -182 c 0
 142 -182 168 -153 186 -111 c 0
 208 -58 210 -17 210 13 c 0
 210 93 188 285 177 363 c 0
 169 415 164 432 142 431 c 2
 74 429 l 1
 71 454 l 1
 239 502 l 1
 247 498 l 1
 261 425 280 214 287 61 c 1
 290 61 l 1
 356 175 415 283 431 339 c 0
 443 381 445 442 444 477 c 1
 469 494 503 502 522 502 c 0
 529 502 540 481 540 446 c 0
 540 406 477 309 420 215 c 0
 358 113 298 7 278 -27 c 0
 190 -179 153 -242 68 -242 c 0
 24 -242 -5 -214 -5 -187 c 0
EndSplineSet
EndChar

StartChar: z
Encoding: 122 122 91
Width: 468
Flags: MW
HStem: -12 78<363.5 401.5 363.5 411.5> 426 64<214.5 238 238 414> 476 14<185 518>
VStem: 39 70<11.5 12 12 26>
LayerCount: 2
Fore
SplineSet
39 18 m 0xb0
 39 34 47 56 63 72 c 0
 171 182 287 298 414 426 c 1
 238 426 l 2xd0
 191 426 175 395 143 337 c 1
 118 348 l 1
 140 417 171 472 185 490 c 1
 510 490 l 1
 518 476 l 1
 397 358 283 239 172 123 c 1
 198 120 233 107 266 95 c 0
 303 81 348 66 379 66 c 0
 424 66 448 126 473 188 c 1
 501 181 l 1
 474 76 444 -12 379 -12 c 0
 332 -12 285 7 232 28 c 0
 173 51 138 74 122 74 c 0
 114 74 109 67 109 56 c 2
 109 12 l 2
 109 -5 76 -12 62 -12 c 0
 45 -12 39 5 39 18 c 0xb0
EndSplineSet
EndChar

StartChar: braceleft
Encoding: 123 123 92
Width: 340
Flags: MW
HStem: -128 25<229.5 277 258 277> 269 26<138 146> 667 25<451 451>
VStem: 135 63 260 71
CounterMasks: 1 e0
LayerCount: 2
Fore
SplineSet
135 -39 m 0
 134 1 152 46 180 107 c 0
 212 180 252 266 138 269 c 1
 146 295 l 1
 260 298 258 384 260 465 c 0
 266 588 292 692 441 692 c 2
 458 692 l 1
 451 667 l 1
 391 663 359 639 345 603 c 0
 333 568 332 525 331 495 c 0
 328 382 330 312 212 285 c 1
 212 279 l 1
 315 258 287 180 235 69 c 0
 221 37 197 -12 198 -47 c 0
 200 -78 220 -99 277 -103 c 1
 269 -128 l 1
 258 -128 l 2
 201 -128 138 -108 135 -39 c 0
EndSplineSet
EndChar

StartChar: bar
Encoding: 124 124 93
Width: 270
Flags: MW
HStem: -250 1000<165 233 165 233>
VStem: 165 68<-250 750 -250 750>
LayerCount: 2
Fore
SplineSet
165 -250 m 1
 165 750 l 1
 233 750 l 1
 233 -250 l 1
 165 -250 l 1
EndSplineSet
EndChar

StartChar: braceright
Encoding: 125 125 94
Width: 340
Flags: MW
HStem: -128 25<15 22 22 22 22 31> 269 26<326 334> 667 25<196 214>
VStem: 142 70 275 62
CounterMasks: 1 e0
LayerCount: 2
Fore
SplineSet
15 -128 m 1
 22 -103 l 1
 82 -99 114 -75 128 -39 c 0
 141 -5 141 39 142 69 c 0
 145 182 143 252 261 279 c 1
 261 285 l 1
 158 306 186 384 238 495 c 0
 253 527 276 576 275 611 c 0
 273 642 253 663 196 667 c 1
 204 692 l 1
 214 692 l 2
 271 692 334 672 337 603 c 0
 338 563 319 518 292 457 c 0
 260 384 220 298 334 295 c 1
 326 269 l 1
 212 266 216 180 212 99 c 0
 206 -24 185 -128 31 -128 c 2
 15 -128 l 1
EndSplineSet
EndChar

StartChar: asciitilde
Encoding: 126 126 95
Width: 570
Flags: MW
HStem: 192 69<428 457 428 465.5> 238 69<233 265>
LayerCount: 2
Fore
SplineSet
133 201 m 1x40
 157 251 190 307 263 307 c 0x40
 293 307 325 296 356 284 c 0
 387 273 416 261 440 261 c 0
 474 261 488 275 517 318 c 1
 557 293 l 1
 529 232 494 192 437 192 c 0x80
 408 192 374 204 342 215 c 0
 310 227 278 238 252 238 c 0
 214 238 195 217 174 176 c 1
 133 201 l 1x40
EndSplineSet
EndChar

StartChar: exclamdown
Encoding: 257 161 97
Width: 265
Flags: MW
HStem: 377 125<212.5 243>
VStem: 167 122<424.5 454>
LayerCount: 2
Fore
SplineSet
40 -149 m 2
 180 281 l 1
 208 281 l 1
 153 -154 l 2
 148 -190 135 -217 82 -217 c 0
 27 -217 27 -189 40 -149 c 2
167 433 m 0
 167 475 193 502 232 502 c 0
 268 502 289 477 289 445 c 0
 289 404 262 377 224 377 c 0
 188 377 167 403 167 433 c 0
EndSplineSet
EndChar

StartChar: cent
Encoding: 258 162 98
Width: 530
Flags: MW
HStem: 87 42<334 375> 563 36<343.5 409 409 443> 649 20G<424 424>
VStem: 129 95
LayerCount: 2
Fore
SplineSet
129 275 m 0
 132 426 235 594 409 599 c 1
 424 669 l 1
 465 668 l 1
 451 599 l 1
 522 597 599 559 598 500 c 0
 598 468 563 454 542 455 c 0
 526 455 518 465 515 480 c 0
 503 533 470 562 443 563 c 1
 344 129 l 1
 406 129 459 151 514 220 c 1
 536 201 l 1
 486 124 410 88 334 87 c 1
 310 -21 l 1
 269 -21 l 1
 293 87 l 1
 229 89 127 131 129 275 c 0
224 277 m 0
 223 210 238 155 305 138 c 1
 401 563 l 1
 286 563 226 382 224 277 c 0
EndSplineSet
EndChar

StartChar: sterling
Encoding: 259 163 99
Width: 530
Flags: MW
HStem: 0 72<203 420 420 445 203 467> 291 38<131 238 131 244 122 238 337 337 337 472> 645 35<373 430>
VStem: 213 85 508 76
LayerCount: 2
Fore
SplineSet
44 5 m 1
 67 45 l 1
 139 70 221 105 244 175 c 0
 254 204 256 239 244 291 c 1
 122 291 l 1
 131 329 l 1
 238 329 l 1
 223 373 212 426 213 477 c 0
 215 584 283 680 424 680 c 0
 533 680 585 620 584 582 c 0
 584 546 552 534 533 534 c 0
 516 534 511 547 508 559 c 0
 492 615 454 645 406 645 c 0
 340 645 301 591 298 519 c 0
 295 451 317 393 333 329 c 1
 481 329 l 1
 472 291 l 1
 337 291 l 1
 338 273 337 254 333 232 c 0
 324 180 286 123 202 76 c 1
 203 72 l 1
 420 72 l 2
 470 72 487 103 505 125 c 1
 531 115 l 1
 467 0 l 1
 47 0 l 1
 44 5 l 1
EndSplineSet
EndChar

StartChar: currency
Encoding: 260 164 100
Width: 530
Flags: MW
HStem: 109 53<308.5 353.5> 506 53<308.5 353.5 308.5 374.5>
VStem: 109 72<309.5 358.5> 481 72<309.5 358.5 309.5 383>
LayerCount: 2
Fore
SplineSet
108 101 m 0
 83 121 85 142 116 166 c 2
 155 196 l 1
 119 242 109 285 109 334 c 0
 109 383 119 426 155 472 c 1
 116 502 l 2
 85 526 83 547 108 567 c 0
 132 587 151 580 170 552 c 2
 197 513 l 1
 234 548 286 559 331 559 c 0
 376 559 428 548 465 513 c 1
 492 552 l 2
 511 580 530 587 554 567 c 0
 579 547 577 526 546 502 c 2
 507 472 l 1
 543 426 553 383 553 334 c 0
 553 285 543 242 507 196 c 1
 546 166 l 2
 577 142 579 121 554 101 c 0
 530 81 511 88 492 116 c 2
 465 155 l 1
 428 120 376 109 331 109 c 0
 286 109 234 120 197 155 c 1
 170 116 l 2
 151 88 132 81 108 101 c 0
181 334 m 0
 181 236 244 162 331 162 c 0
 418 162 481 236 481 334 c 0
 481 432 418 506 331 506 c 0
 244 506 181 432 181 334 c 0
EndSplineSet
EndChar

StartChar: yen
Encoding: 261 165 101
Width: 530
Flags: MW
HStem: 0 32 187 36<107 267 117 259 352 506> 311 36<144 274 144 283 134 274 399 529> 638 30<653 653>
VStem: 107 573<187 668>
LayerCount: 2
Fore
SplineSet
107 187 m 1
 117 223 l 1
 267 223 l 1
 283 311 l 1
 134 311 l 1
 144 347 l 1
 274 347 l 1
 207 598 l 2
 202 617 195 636 177 637 c 2
 142 639 l 1
 149 668 l 1
 369 668 l 1
 363 639 l 1
 321 637 l 2
 298 636 293 627 297 609 c 2
 357 347 l 1
 359 347 l 1
 426 446 495 538 534 601 c 0
 548 624 549 634 532 635 c 2
 481 639 l 1
 487 668 l 1
 680 668 l 1
 674 639 l 1
 653 638 l 2
 626 637 605 622 580 588 c 2
 399 347 l 1
 538 347 l 1
 529 311 l 1
 373 311 l 1
 352 223 l 1
 515 223 l 1
 506 187 l 1
 344 187 l 1
 317 63 l 2
 313 44 322 36 342 34 c 2
 402 29 l 1
 396 0 l 1
 132 0 l 1
 138 29 l 1
 198 34 l 2
 214 35 227 44 231 63 c 2
 259 187 l 1
 107 187 l 1
EndSplineSet
EndChar

StartChar: brokenbar
Encoding: 262 166 102
Width: 270
Flags: MW
HStem: 655 20G<165 233 233 233>
VStem: 165 68<-175 175 -175 175 325 675>
LayerCount: 2
Fore
SplineSet
165 -175 m 1
 165 175 l 1
 233 175 l 1
 233 -175 l 1
 165 -175 l 1
165 325 m 1
 165 675 l 1
 233 675 l 1
 233 325 l 1
 165 325 l 1
EndSplineSet
EndChar

StartChar: section
Encoding: 253 167 103
Width: 530
Flags: MW
HStem: -115 35<251.5 290 251.5 300.5> 672 35<387 428.5>
VStem: 121 60 258 64 355 68 490 58
LayerCount: 2
Fore
SplineSet
90 -23 m 0
 90 12 121 25 138 25 c 0
 152 25 159 13 165 -1 c 0
 192 -65 235 -80 268 -80 c 0
 312 -80 354 -46 355 9 c 0
 356 46 352 101 243 173 c 0
 132 246 120 312 121 360 c 0
 123 447 182 522 256 572 c 1
 262 621 310 707 431 707 c 0
 525 707 568 660 568 626 c 0
 567 596 538 586 520 586 c 0
 508 586 501 595 494 611 c 0
 477 650 447 672 410 672 c 0
 364 672 323 636 322 587 c 0
 322 562 324 516 421 454 c 0
 511 396 549 341 548 259 c 0
 546 169 489 96 426 39 c 1
 417 -48 357 -115 244 -115 c 0
 146 -115 89 -65 90 -23 c 0
181 406 m 0
 180 356 203 302 284 245 c 0
 365 189 414 135 423 85 c 1
 456 110 489 147 490 207 c 0
 491 272 454 329 389 375 c 0
 317 425 266 472 258 526 c 1
 220 506 182 463 181 406 c 0
EndSplineSet
EndChar

StartChar: dieresis
Encoding: 263 168 104
Width: 400
Flags: MW
HStem: 572 110<249.5 273.5 457.5 481.5>
VStem: 207 107<616 639> 415 107<616 639>
LayerCount: 2
Fore
SplineSet
415 621 m 0
 415 657 441 682 474 682 c 0
 504 682 522 658 522 633 c 0
 522 599 499 572 464 572 c 0
 432 572 415 592 415 621 c 0
207 621 m 0
 207 657 233 682 266 682 c 0
 296 682 314 658 314 633 c 0
 314 599 291 572 256 572 c 0
 224 572 207 592 207 621 c 0
EndSplineSet
EndChar

StartChar: copyright
Encoding: 264 169 105
Width: 836
Flags: MW
HStem: -15 45<406 574 406 590.5> 149 28<462.5 536> 522 28<463 535 441.5 550.5> 662 45<406 574>
VStem: 126 64<257.5 434.5 257.5 446> 300 81<314.5 400.5 314.5 408.5> 624 20<421 519> 790 64<257.5 434.5>
LayerCount: 2
Fore
SplineSet
126 346 m 0
 126 546 289 707 490 707 c 0
 691 707 854 546 854 346 c 0
 854 146 691 -15 490 -15 c 0
 289 -15 126 146 126 346 c 0
190 346 m 0
 190 169 322 30 490 30 c 0
 658 30 790 169 790 346 c 0
 790 523 658 662 490 662 c 0
 322 662 190 523 190 346 c 0
300 348 m 0
 300 469 372 550 511 550 c 0
 559 550 613 539 644 519 c 1
 644 421 l 1
 624 421 l 1
 614 475 592 522 509 522 c 0
 417 522 381 444 381 357 c 0
 381 272 411 177 514 177 c 0
 579 177 613 209 632 280 c 1
 652 280 l 1
 641 180 l 1
 615 161 568 149 504 149 c 0
 357 149 300 235 300 348 c 0
EndSplineSet
EndChar

StartChar: ordfeminine
Encoding: 265 170 106
Width: 425
Flags: MW
HStem: 265 42<210.5 218> 562 28<305.5 359 269 365>
VStem: 112 79<330 377 330 382.5> 332 71
LayerCount: 2
Fore
SplineSet
112 341 m 0
 112 424 191 590 347 590 c 0
 371 590 387 586 402 577 c 1
 405 585 l 1
 478 585 l 1
 408 344 l 2
 401 320 400 307 412 307 c 0
 432 307 461 349 475 371 c 1
 495 359 l 1
 468 306 423 265 371 265 c 0
 339 265 324 289 336 330 c 2
 356 398 l 1
 353 398 l 1
 317 343 257 265 179 265 c 0
 130 265 112 301 112 341 c 0
191 342 m 0
 191 318 200 307 221 307 c 0
 252 307 294 349 325 396 c 0
 359 446 384 507 397 549 c 1
 391 557 375 562 355 562 c 0
 256 562 191 412 191 342 c 0
EndSplineSet
EndChar

StartChar: guillemotleft
Encoding: 266 171 107
Width: 462
Flags: MW
VStem: 117 193 312 193
LayerCount: 2
Fore
SplineSet
312 223 m 2
 306 232 308 246 316 254 c 2
 485 435 l 1
 505 418 l 1
 403 255 l 2
 396 244 395 233 399 221 c 2
 454 56 l 1
 431 41 l 1
 312 223 l 2
117 223 m 2
 111 232 113 246 121 254 c 2
 290 435 l 1
 310 418 l 1
 208 255 l 2
 201 244 200 233 204 221 c 2
 259 56 l 1
 236 41 l 1
 117 223 l 2
EndSplineSet
EndChar

StartChar: logicalnot
Encoding: 267 172 108
Width: 570
Flags: MW
HStem: 331 58<93 577 93 509>
VStem: 509 68<102 331 331 331>
LayerCount: 2
Fore
SplineSet
93 331 m 1
 93 389 l 1
 577 389 l 1
 577 102 l 1
 509 102 l 1
 509 331 l 1
 93 331 l 1
EndSplineSet
EndChar

StartChar: uni00AD
Encoding: 173 173 109
Width: 392
Flags: MW
HStem: 216 70<117 376 131 362>
VStem: 117 259<216 286>
LayerCount: 2
Fore
SplineSet
117 216 m 1
 131 286 l 1
 376 286 l 1
 362 216 l 1
 117 216 l 1
EndSplineSet
EndChar

StartChar: registered
Encoding: 268 174 110
Width: 836
Flags: MW
HStem: -15 45<406 574 406 590.5> 159 20<325 325 325 493> 334 28<441 475 441 479> 512 28<465.5 505> 520 20<325 505> 662 45<406 574>
VStem: 126 64<257.5 434.5 257.5 446> 376 65<211 334 362 486 486 491> 565 70<418.5 468.5> 790 64<257.5 434.5>
LayerCount: 2
Fore
SplineSet
126 346 m 0xe7c0
 126 546 289 707 490 707 c 0
 691 707 854 546 854 346 c 0
 854 146 691 -15 490 -15 c 0
 289 -15 126 146 126 346 c 0xe7c0
190 346 m 0
 190 169 322 30 490 30 c 0
 658 30 790 169 790 346 c 0
 790 523 658 662 490 662 c 0
 322 662 190 523 190 346 c 0
325 159 m 1
 325 179 l 1
 356 183 l 2
 373 185 376 194 376 211 c 2
 376 486 l 2
 376 505 373 513 356 516 c 2
 325 520 l 1
 325 540 l 1xefc0
 505 540 l 2xf7c0
 602 540 635 500 635 446 c 0
 635 391 594 360 538 351 c 1
 538 349 l 1
 598 334 608 297 616 253 c 0
 621 224 630 206 643 191 c 0
 651 183 664 178 678 174 c 1
 678 159 l 1
 634 159 l 2
 591 159 571 174 561 202 c 0
 547 242 544 285 535 304 c 0
 525 325 506 334 475 334 c 2
 441 334 l 1
 441 211 l 2
 441 194 445 185 463 183 c 2
 493 179 l 1
 493 159 l 1
 325 159 l 1
441 362 m 1
 479 362 l 2
 530 362 565 383 565 438 c 0
 565 499 524 512 486 512 c 0xf7c0
 445 512 441 506 441 491 c 2
 441 362 l 1
EndSplineSet
EndChar

StartChar: macron
Encoding: 269 175 111
Width: 400
Flags: MW
HStem: 597 59<228 524 246 506>
VStem: 228 296<597 656>
LayerCount: 2
Fore
SplineSet
228 597 m 1
 246 656 l 1
 524 656 l 1
 506 597 l 1
 228 597 l 1
EndSplineSet
EndChar

StartChar: degree
Encoding: 270 176 112
Width: 400
Flags: MW
HStem: 404 48<303 346.5 303 362.5> 632 48<302.5 346>
VStem: 187 56<516 542 516 542> 407 56<516 567.5>
LayerCount: 2
Fore
SplineSet
187 542 m 0
 186 617 249 680 325 680 c 0
 400 680 463 617 463 542 c 0
 463 466 400 404 325 404 c 0
 249 404 187 466 187 542 c 0
243 542 m 0
 243 490 281 452 325 452 c 0
 368 452 407 490 407 542 c 0
 407 593 368 632 324 632 c 0
 281 632 242 593 243 542 c 0
EndSplineSet
EndChar

StartChar: plusminus
Encoding: 271 177 113
Width: 570
Flags: MW
HStem: 0 58<93 577 93 577> 311 58<93 302 93 302 370 577>
VStem: 302 68<114 311 114 311 369 556>
LayerCount: 2
Fore
SplineSet
93 311 m 1
 93 369 l 1
 302 369 l 1
 302 556 l 1
 370 556 l 1
 370 369 l 1
 577 369 l 1
 577 311 l 1
 370 311 l 1
 370 114 l 1
 302 114 l 1
 302 311 l 1
 93 311 l 1
93 0 m 1
 93 58 l 1
 577 58 l 1
 577 0 l 1
 93 0 l 1
EndSplineSet
EndChar

StartChar: uni00B2
Encoding: 272 178 114
Width: 370
Flags: MW
HStem: 408 59<175 330 330 346 175 376> 788 28<300.5 338.5>
VStem: 370 83<692 738>
LayerCount: 2
Fore
SplineSet
89 417 m 1
 107 466 167 527 234 562 c 0
 324 609 370 661 370 723 c 0
 370 753 360 788 317 788 c 0
 284 788 254 763 238 709 c 0
 235 698 224 688 210 688 c 0
 191 688 172 704 172 720 c 0
 172 756 224 816 319 816 c 0
 410 816 453 770 453 707 c 0
 453 636 391 601 302 562 c 0
 234 532 186 491 175 467 c 1
 330 467 l 2
 362 467 372 477 390 500 c 1
 412 493 l 1
 376 408 l 1
 96 408 l 1
 89 417 l 1
EndSplineSet
Substitution2: "'pnum' Proportional Numbers in Latin lookup 13 subtable" uni00B3.pnum
Substitution2: "'pnum' Proportional Numbers in Cyrillic lookup 12 subtable" uni00B3.pnum
Substitution2: "'pnum' Proportional Numbers in Greek lookup 11 subtable" uni00B3.pnum
Substitution2: "'aalt' Access All Alternates lookup 0 subtable" uni00B3.pnum
EndChar

StartChar: uni00B3
Encoding: 273 179 115
Width: 370
Flags: MW
HStem: 401 28<225.5 269.5 225.5 298> 599 46<209 213> 606 31<263 283> 704 21G<192.5 209> 788 28<285.5 320.5>
VStem: 105 66 325 83<505.5 543.5 493 561> 357 78<710 746 690 751>
LayerCount: 2
Fore
SplineSet
105 480 m 0xbe
 105 497 121 519 146 519 c 0
 161 519 166 508 171 493 c 0
 185 450 207 429 244 429 c 0
 295 429 325 475 325 536 c 0
 325 586 302 606 264 606 c 0xbe
 246 606 217 599 209 599 c 0
 200 599 196 606 196 615 c 0
 196 634 205 645 213 645 c 0xde
 223 645 252 637 274 637 c 0
 332 637 357 688 357 732 c 0
 357 770 335 788 306 788 c 0
 265 788 247 757 229 723 c 0
 223 712 217 704 201 704 c 0
 184 704 167 720 167 735 c 0
 167 769 216 816 304 816 c 0
 391 816 435 775 435 717 c 0xbd
 435 663 389 628 327 623 c 1
 327 621 l 1
 390 609 408 562 408 525 c 0
 408 461 359 401 237 401 c 0
 151 401 105 446 105 480 c 0xbe
EndSplineSet
Substitution2: "'pnum' Proportional Numbers in Latin lookup 13 subtable" uni2074.pnum
Substitution2: "'pnum' Proportional Numbers in Cyrillic lookup 12 subtable" uni2074.pnum
Substitution2: "'pnum' Proportional Numbers in Greek lookup 11 subtable" uni2074.pnum
Substitution2: "'aalt' Access All Alternates lookup 0 subtable" uni2074.pnum
EndChar

StartChar: acute
Encoding: 274 180 116
Width: 400
Flags: MW
HStem: 542 181<264 439.5>
VStem: 249 222<562 690>
LayerCount: 2
Fore
SplineSet
249 562 m 1
 368 682 l 2
 398 713 415 723 432 723 c 0
 447 723 471 700 471 680 c 0
 471 659 445 642 415 626 c 2
 264 542 l 1
 249 562 l 1
EndSplineSet
EndChar

StartChar: mu
Encoding: 275 181 117
Width: 618
Flags: MW
HStem: -12 52<232 252.5> 450 24<126 132> 482 20G<314 314 622 622>
LayerCount: 2
Fore
SplineSet
49 -187 m 2
 203 397 l 2
 211 428 212 443 188 445 c 2
 126 450 l 1
 132 474 l 1
 314 502 l 1
 319 497 l 1
 223 128 l 2
 208 70 216 40 248 40 c 0
 331 40 418 173 462 274 c 0
 488 335 504 388 533 490 c 1
 622 502 l 1
 515 94 l 2
 507 63 507 40 528 40 c 0
 556 40 600 112 620 146 c 1
 644 131 l 1
 609 57 549 -12 477 -12 c 0
 424 -12 412 29 431 96 c 2
 464 210 l 1
 462 210 l 1
 402 94 297 -12 208 -12 c 0
 189 -12 171 -5 154 11 c 1
 146 -21 l 2
 139 -46 139 -83 144 -109 c 0
 149 -132 155 -152 155 -170 c 0
 155 -204 101 -232 72 -232 c 0
 51 -232 41 -218 49 -187 c 2
EndSplineSet
EndChar

StartChar: paragraph
Encoding: 276 182 118
Width: 560
Flags: MW
HStem: -101 30 662 30
VStem: 144 528<383 692>
LayerCount: 2
Fore
SplineSet
144 437 m 0
 144 574 261 692 415 692 c 2
 427 692 l 1
 335 250 l 1
 324 250 l 2
 218 250 144 329 144 437 c 0
237 -101 m 1
 242 -75 l 1
 318 -66 l 2
 339 -63 348 -55 354 -26 c 2
 504 692 l 1
 672 692 l 1
 667 666 l 1
 597 657 l 2
 577 654 568 649 562 620 c 2
 411 -101 l 1
 237 -101 l 1
EndSplineSet
EndChar

StartChar: periodcentered
Encoding: 277 183 119
Width: 265
Flags: MW
HStem: 187 125<170 200.5>
VStem: 124 122<235 264.5>
LayerCount: 2
Fore
SplineSet
124 244 m 0
 124 285 151 312 189 312 c 0
 225 312 246 286 246 256 c 0
 246 214 220 187 181 187 c 0
 145 187 124 212 124 244 c 0
EndSplineSet
EndChar

StartChar: cedilla
Encoding: 278 184 120
Width: 400
Flags: MW
HStem: -230 34
VStem: 97 179
LayerCount: 2
Fore
SplineSet
97 -220 m 1
 101 -196 l 1
 146 -202 199 -195 199 -147 c 0
 199 -120 179 -97 144 -95 c 1
 141 -86 l 1
 201 0 l 1
 246 0 l 1
 202 -60 l 1
 248 -66 284 -107 274 -157 c 0
 265 -203 216 -230 163 -230 c 0
 138 -230 112 -226 97 -220 c 1
EndSplineSet
EndChar

StartChar: uni00B9
Encoding: 279 185 121
Width: 370
Flags: MW
HStem: 408 23<139 144 144 144 144 364> 776 19<219 222> 796 20G<372 372>
VStem: 139 233
LayerCount: 2
Fore
SplineSet
139 408 m 1
 144 431 l 1
 195 435 l 2
 213 436 223 442 226 458 c 2
 288 747 l 2
 291 759 289 765 274 767 c 2
 219 776 l 1
 222 795 l 1
 372 816 l 1
 375 812 l 1
 299 458 l 2
 296 442 302 436 321 435 c 2
 369 431 l 1
 364 408 l 1
 139 408 l 1
EndSplineSet
Substitution2: "'pnum' Proportional Numbers in Latin lookup 13 subtable" uni2075.pnum
Substitution2: "'pnum' Proportional Numbers in Cyrillic lookup 12 subtable" uni2075.pnum
Substitution2: "'pnum' Proportional Numbers in Greek lookup 11 subtable" uni2075.pnum
Substitution2: "'aalt' Access All Alternates lookup 0 subtable" uni2075.pnum
EndChar

StartChar: ordmasculine
Encoding: 280 186 122
Width: 389
Flags: MW
HStem: 401 28<238 276.5 238 293.5> 698 28<282.5 345>
VStem: 121 78<484.5 527.5 473.5 534.5> 377 78<614.5 646.5>
LayerCount: 2
Fore
SplineSet
121 519 m 0
 121 550 131 601 161 644 c 0
 192 690 243 726 318 726 c 0
 382 726 455 701 455 603 c 0
 455 578 445 527 416 483 c 0
 384 437 333 401 254 401 c 0
 166 401 121 450 121 519 c 0
199 495 m 0
 199 452 221 429 255 429 c 0
 298 429 327 465 348 511 c 0
 368 556 377 599 377 630 c 0
 377 663 368 698 322 698 c 0
 243 698 199 560 199 495 c 0
EndSplineSet
EndChar

StartChar: guillemotright
Encoding: 281 187 123
Width: 462
Flags: MW
VStem: 64 193 259 193
LayerCount: 2
Fore
SplineSet
259 58 m 1
 361 221 l 2
 368 232 369 243 365 255 c 2
 310 420 l 1
 333 435 l 1
 452 253 l 2
 458 244 456 230 448 222 c 2
 279 41 l 1
 259 58 l 1
64 58 m 1
 166 221 l 2
 173 232 174 243 170 255 c 2
 115 420 l 1
 138 435 l 1
 257 253 l 2
 263 244 261 230 253 222 c 2
 84 41 l 1
 64 58 l 1
EndSplineSet
EndChar

StartChar: onequarter
Encoding: 282 188 124
Width: 890
Flags: MW
HStem: 0 23<611 611 611 799 606 611> 104 33<576 695 772 830> 272 23<146 151 151 151 151 371> 640 19<226 229> 660 20<379 379> 678 20<768 768>
VStem: 146 233
LayerCount: 2
Fore
SplineSet
515 120 m 1xf2
 596 220 683 317 766 401 c 1
 828 401 l 1
 772 137 l 1
 840 137 l 1
 830 104 l 1
 765 104 l 1
 754 50 l 2
 751 34 757 27 771 26 c 2
 804 23 l 1
 799 0 l 1
 606 0 l 1
 611 23 l 1
 657 26 l 2
 670 27 681 34 684 50 c 2
 695 104 l 1
 524 104 l 1
 515 120 l 1xf2
576 137 m 1
 702 137 l 1
 745 329 l 1
 739 329 l 1
 683 273 629 207 576 137 c 1
232 6 m 1x04
 768 698 l 1
 802 671 l 1
 265 -24 l 1
 232 6 l 1x04
146 272 m 1x3a
 151 295 l 1
 202 299 l 2
 220 300 230 306 233 322 c 2
 295 611 l 2
 298 623 296 629 281 631 c 2
 226 640 l 1
 229 659 l 1
 379 680 l 1
 382 676 l 1
 306 322 l 2
 303 306 309 300 328 299 c 2
 376 295 l 1
 371 272 l 1
 146 272 l 1x3a
EndSplineSet
EndChar

StartChar: onehalf
Encoding: 283 189 125
Width: 890
Flags: MW
HStem: 0 59<588 743 743 759 588 789> 272 23<120 125 125 125 125 345> 380 28<713.5 751.5> 640 19<200 203> 660 20<353 353> 678 20<716 716>
VStem: 120 233 783 83<284 330>
LayerCount: 2
Fore
SplineSet
180 6 m 1x04
 716 698 l 1
 750 671 l 1
 213 -24 l 1
 180 6 l 1x04
120 272 m 1x5a
 125 295 l 1
 176 299 l 2
 194 300 204 306 207 322 c 2
 269 611 l 2
 272 623 270 629 255 631 c 2
 200 640 l 1
 203 659 l 1
 353 680 l 1
 356 676 l 1
 280 322 l 2
 277 306 283 300 302 299 c 2
 350 295 l 1
 345 272 l 1
 120 272 l 1x5a
502 9 m 1xa1
 520 58 580 119 647 154 c 0
 737 201 783 253 783 315 c 0
 783 345 773 380 730 380 c 0
 697 380 667 355 651 301 c 0
 648 290 637 280 623 280 c 0
 604 280 585 296 585 312 c 0
 585 348 637 408 732 408 c 0
 823 408 866 362 866 299 c 0
 866 228 804 193 715 154 c 0
 647 124 599 83 588 59 c 1
 743 59 l 2
 775 59 785 69 803 92 c 1
 825 85 l 1
 789 0 l 1
 509 0 l 1
 502 9 l 1xa1
EndSplineSet
EndChar

StartChar: threequarters
Encoding: 284 190 126
Width: 890
Flags: MW
HStem: 0 23<622 622 622 810 617 622> 104 33<587 706 783 841> 265 28<271.5 315.5 271.5 344> 463 46<255 259> 470 31<309 329> 568 21<238.5 255> 652 28<331.5 366.5> 678 20<791 791>
VStem: 151 66 371 83<369.5 407.5 357 425> 403 78<574 610 554 615>
LayerCount: 2
Fore
SplineSet
526 120 m 1xe480
 607 220 694 317 777 401 c 1
 839 401 l 1
 783 137 l 1
 851 137 l 1
 841 104 l 1
 776 104 l 1
 765 50 l 2
 762 34 768 27 782 26 c 2
 815 23 l 1
 810 0 l 1
 617 0 l 1
 622 23 l 1
 668 26 l 2
 681 27 692 34 695 50 c 2
 706 104 l 1
 535 104 l 1
 526 120 l 1xe480
587 137 m 1
 713 137 l 1
 756 329 l 1
 750 329 l 1
 694 273 640 207 587 137 c 1
255 6 m 1x01
 791 698 l 1
 825 671 l 1
 288 -24 l 1
 255 6 l 1x01
151 344 m 0x2ec0
 151 361 167 383 192 383 c 0
 207 383 212 372 217 357 c 0
 231 314 253 293 290 293 c 0
 341 293 371 339 371 400 c 0
 371 450 348 470 310 470 c 0x2ec0
 292 470 263 463 255 463 c 0
 246 463 242 470 242 479 c 0
 242 498 251 509 259 509 c 0x36c0
 269 509 298 501 320 501 c 0
 378 501 403 552 403 596 c 0
 403 634 381 652 352 652 c 0
 311 652 293 621 275 587 c 0
 269 576 263 568 247 568 c 0
 230 568 213 584 213 599 c 0
 213 633 262 680 350 680 c 0
 437 680 481 639 481 581 c 0x2ea0
 481 527 435 492 373 487 c 1
 373 485 l 1
 436 473 454 426 454 389 c 0
 454 325 405 265 283 265 c 0
 197 265 151 310 151 344 c 0x2ec0
EndSplineSet
EndChar

StartChar: questiondown
Encoding: 285 191 127
Width: 425
Flags: MW
HStem: -217 35<169.5 214.5 169.5 251> 246 45<207 290> 377 125<302.5 333>
VStem: 38 93<-127.5 -77.5 -129.5 -47.5> 257 122<424.5 454> 280 89<181.5 209.5> 290 75
LayerCount: 2
Fore
SplineSet
38 -90 m 0xf2
 38 -5 89 30 166 69 c 0
 231 102 280 136 280 188 c 0
 280 231 249 246 216 246 c 0
 198 246 185 244 173 243 c 1
 167 260 l 1
 189 276 231 291 265 291 c 0
 315 291 369 267 369 205 c 0xf4
 369 158 334 122 265 82 c 0
 170 26 131 -46 131 -109 c 0
 131 -150 149 -182 190 -182 c 0
 239 -182 268 -134 290 -78 c 0
 294 -67 304 -59 321 -59 c 0
 337 -59 365 -74 365 -103 c 0
 365 -144 307 -217 195 -217 c 0
 98 -217 38 -165 38 -90 c 0xf2
257 433 m 0xf8
 257 475 283 502 322 502 c 0
 358 502 379 477 379 445 c 0
 379 404 352 377 314 377 c 0
 278 377 257 403 257 433 c 0xf8
EndSplineSet
EndChar

StartChar: Agrave
Encoding: 286 192 128
Width: 624
Flags: MW
HStem: 0 32<620 620 620 652> 267 38<263 462 263 467 243 462> 672 20G<435 506 506 506>
VStem: -23 681<0 29>
LayerCount: 2
Fore
SplineSet
307 841 m 0
 307 856 321 891 346 891 c 0
 360 891 374 883 404 863 c 2
 549 764 l 1
 538 742 l 1
 368 798 l 2
 329 810 307 817 307 841 c 0
-23 0 m 1
 -17 29 l 1
 16 33 l 2
 47 36 64 47 96 99 c 0
 133 159 216 308 267 397 c 2
 435 692 l 1
 506 692 l 1
 580 90 l 2
 585 49 589 35 620 32 c 2
 658 29 l 1
 652 0 l 1
 406 0 l 1
 412 29 l 1
 465 34 l 2
 485 36 493 44 490 73 c 2
 467 267 l 1
 243 267 l 1
 206 200 173 135 140 71 c 0
 131 50 133 36 153 34 c 2
 208 29 l 1
 202 0 l 1
 -23 0 l 1
263 305 m 1
 462 305 l 1
 427 599 l 1
 425 599 l 1
 371 502 316 404 263 305 c 1
EndSplineSet
EndChar

StartChar: Aacute
Encoding: 287 193 129
Width: 624
Flags: MW
HStem: 0 32<620 620 620 652> 267 38<263 462 263 467 243 462> 672 20G<435 506 506 506>
VStem: -23 681<0 29>
LayerCount: 2
Fore
SplineSet
390 764 m 1
 535 863 l 2
 565 883 579 891 593 891 c 0
 618 891 632 856 632 841 c 0
 632 817 610 810 571 798 c 2
 401 742 l 1
 390 764 l 1
-23 0 m 1
 -17 29 l 1
 16 33 l 2
 47 36 64 47 96 99 c 0
 133 159 216 308 267 397 c 2
 435 692 l 1
 506 692 l 1
 580 90 l 2
 585 49 589 35 620 32 c 2
 658 29 l 1
 652 0 l 1
 406 0 l 1
 412 29 l 1
 465 34 l 2
 485 36 493 44 490 73 c 2
 467 267 l 1
 243 267 l 1
 206 200 173 135 140 71 c 0
 131 50 133 36 153 34 c 2
 208 29 l 1
 202 0 l 1
 -23 0 l 1
263 305 m 1
 462 305 l 1
 427 599 l 1
 425 599 l 1
 371 502 316 404 263 305 c 1
EndSplineSet
EndChar

StartChar: Acircumflex
Encoding: 288 194 130
Width: 624
Flags: MW
HStem: 0 29<-23 -17 -17 -17 -17 202> 267 38<263 462 263 467 243 462> 672 20<435 506 506 506> 797 79<477 503>
VStem: 315 306<741 742>
LayerCount: 2
Fore
SplineSet
315 742 m 1
 455 853 l 2
 473 868 484 876 497 876 c 0
 509 876 519 865 530 851 c 2
 621 741 l 1
 603 722 l 1
 513 781 l 2
 501 790 490 797 481 797 c 0
 473 797 458 790 445 783 c 2
 328 722 l 1
 315 742 l 1
-23 0 m 1
 -17 29 l 1
 16 33 l 2
 47 36 64 47 96 99 c 0
 133 159 216 308 267 397 c 2
 435 692 l 1
 506 692 l 1
 580 90 l 2
 585 49 589 35 620 32 c 2
 658 29 l 1
 652 0 l 1
 406 0 l 1
 412 29 l 1
 465 34 l 2
 485 36 493 44 490 73 c 2
 467 267 l 1
 243 267 l 1
 206 200 173 135 140 71 c 0
 131 50 133 36 153 34 c 2
 208 29 l 1
 202 0 l 1
 -23 0 l 1
263 305 m 1
 462 305 l 1
 427 599 l 1
 425 599 l 1
 371 502 316 404 263 305 c 1
EndSplineSet
EndChar

StartChar: Atilde
Encoding: 289 195 131
Width: 624
Flags: MW
HStem: 0 29<-23 -17 -17 -17 -17 202> 267 38<263 462 263 467 243 462> 672 20<435 506 506 506> 736 60<555.5 574.5> 774 60<379 401>
LayerCount: 2
Fore
SplineSet
299 736 m 1x10
 319 776 347 834 411 834 c 0x08
 435 834 463 825 490 815 c 0
 518 806 545 796 566 796 c 0
 594 796 606 807 634 842 c 1
 654 831 l 1
 625 774 599 736 550 736 c 0x10
 528 736 499 746 470 755 c 0
 441 765 412 774 390 774 c 0x08
 357 774 340 758 318 723 c 1
 299 736 l 1x10
-23 0 m 1xe0
 -17 29 l 1
 16 33 l 2
 47 36 64 47 96 99 c 0
 133 159 216 308 267 397 c 2
 435 692 l 1
 506 692 l 1
 580 90 l 2
 585 49 589 35 620 32 c 2
 658 29 l 1
 652 0 l 1
 406 0 l 1
 412 29 l 1
 465 34 l 2
 485 36 493 44 490 73 c 2
 467 267 l 1
 243 267 l 1
 206 200 173 135 140 71 c 0
 131 50 133 36 153 34 c 2
 208 29 l 1
 202 0 l 1
 -23 0 l 1xe0
263 305 m 1
 462 305 l 1
 427 599 l 1
 425 599 l 1
 371 502 316 404 263 305 c 1
EndSplineSet
EndChar

StartChar: Adieresis
Encoding: 290 196 132
Width: 624
Flags: MW
HStem: 0 32<620 620 620 652> 267 38<263 462 263 467 243 462> 672 20G<435 506 506 506> 738 110<362.5 386.5 570.5 594.5>
VStem: 320 107<782 805> 528 107<782 805>
LayerCount: 2
Fore
SplineSet
528 787 m 0
 528 823 554 848 587 848 c 0
 617 848 635 824 635 799 c 0
 635 765 612 738 577 738 c 0
 545 738 528 758 528 787 c 0
320 787 m 0
 320 823 346 848 379 848 c 0
 409 848 427 824 427 799 c 0
 427 765 404 738 369 738 c 0
 337 738 320 758 320 787 c 0
-23 0 m 1
 -17 29 l 1
 16 33 l 2
 47 36 64 47 96 99 c 0
 133 159 216 308 267 397 c 2
 435 692 l 1
 506 692 l 1
 580 90 l 2
 585 49 589 35 620 32 c 2
 658 29 l 1
 652 0 l 1
 406 0 l 1
 412 29 l 1
 465 34 l 2
 485 36 493 44 490 73 c 2
 467 267 l 1
 243 267 l 1
 206 200 173 135 140 71 c 0
 131 50 133 36 153 34 c 2
 208 29 l 1
 202 0 l 1
 -23 0 l 1
263 305 m 1
 462 305 l 1
 427 599 l 1
 425 599 l 1
 371 502 316 404 263 305 c 1
EndSplineSet
EndChar

StartChar: Aring
Encoding: 291 197 133
Width: 624
Flags: MW
HStem: 0 29<-23 -17 -17 -17 -17 202> 267 38<263 462 263 467 243 462> 828 33<463.5 499>
VStem: 369 57<729 756 727 762> 528 57<769.5 795.5>
LayerCount: 2
Fore
SplineSet
-23 0 m 1
 -17 29 l 1
 16 33 l 2
 47 36 64 47 96 99 c 0
 133 159 216 308 267 397 c 2
 423 666 l 1
 384 681 369 713 369 745 c 0
 369 779 387 861 491 861 c 0
 540 861 585 830 585 770 c 0
 585 706 547 674 509 665 c 1
 580 90 l 2
 585 49 589 35 620 32 c 2
 658 29 l 1
 652 0 l 1
 406 0 l 1
 412 29 l 1
 465 34 l 2
 485 36 493 44 490 73 c 2
 467 267 l 1
 243 267 l 1
 206 200 173 135 140 71 c 0
 131 50 133 36 153 34 c 2
 208 29 l 1
 202 0 l 1
 -23 0 l 1
263 305 m 1
 462 305 l 1
 427 599 l 1
 425 599 l 1
 371 502 315 404 263 305 c 1
426 745 m 0
 426 709 445 692 467 692 c 0
 522 692 528 759 528 780 c 0
 528 811 510 828 488 828 c 0
 439 828 426 767 426 745 c 0
EndSplineSet
EndChar

StartChar: AE
Encoding: 292 198 134
Width: 880
Flags: MW
HStem: 0 29<-53 -45 -45 -45 -45 185> 341 38<343 483 316 492 588 711> 657 35<464 464 664.5 673 673 794>
VStem: 798 30<255 255> 844 30<464 464> 908 30<525 525>
LayerCount: 2
Fore
SplineSet
-53 0 m 1
 -45 29 l 1
 -11 32 l 2
 17 35 32 48 54 76 c 0
 155 199 331 435 452 599 c 0
 484 642 482 656 464 657 c 2
 397 663 l 1
 406 692 l 1
 976 692 l 1
 938 525 l 1
 908 525 l 1
 917 615 920 657 794 657 c 2
 673 657 l 2
 656 657 650 652 645 628 c 2
 588 379 l 1
 719 379 l 2
 807 379 818 395 844 464 c 1
 874 464 l 1
 828 255 l 1
 798 255 l 1
 802 320 799 341 711 341 c 2
 580 341 l 1
 529 122 l 2
 518 75 519 60 534 48 c 0
 547 38 597 35 646 35 c 0
 769 35 814 53 865 176 c 1
 895 176 l 1
 844 0 l 1
 322 0 l 1
 328 29 l 1
 384 35 l 2
 408 37 417 49 425 83 c 2
 483 341 l 1
 316 341 l 1
 248 250 183 159 127 71 c 0
 113 50 116 36 134 34 c 2
 193 29 l 1
 185 0 l 1
 -53 0 l 1
343 379 m 1
 492 379 l 1
 555 654 l 1
 550 654 l 1
 343 379 l 1
EndSplineSet
EndChar

StartChar: Ccedilla
Encoding: 293 199 135
Width: 661
Flags: MW
HStem: -220 24<282 286> -15 35<420 427 420 420> 672 35<475.5 572 443 591.5>
VStem: 114 107<213.5 294 172 309.5> 692 30<504 504>
LayerCount: 2
Fore
SplineSet
114 275 m 0
 114 344 127 436 182 525 c 0
 240 619 349 707 537 707 c 0
 607 707 701 690 758 654 c 1
 722 504 l 1
 692 504 l 1
 697 613 654 672 529 672 c 0
 422 672 343 614 293 530 c 0
 245 450 221 339 221 249 c 0
 221 95 304 20 420 20 c 0
 543 20 594 86 649 186 c 1
 679 186 l 1
 630 27 l 1
 566 -5 498 -15 427 -15 c 2
 420 -15 l 1
 387 -60 l 1
 433 -66 469 -107 459 -157 c 0
 450 -203 401 -230 348 -230 c 0
 323 -230 297 -226 282 -220 c 1
 286 -196 l 1
 331 -202 384 -195 384 -147 c 0
 384 -120 364 -97 329 -95 c 1
 326 -86 l 1
 377 -12 l 1
 170 7 114 152 114 275 c 0
EndSplineSet
EndChar

StartChar: Egrave
Encoding: 294 200 136
Width: 596
Flags: MW
HStem: 0 35<100 100 337.5 423.5> 341 38<304 427 296 435> 657 35<380.5 389 389 510> 742 149
VStem: 313 242<764 848.5> 514 30<255 255> 560 30<464 464> 581 30<176 176> 624 30<525 525>
LayerCount: 2
Fore
SplineSet
313 841 m 0x18
 313 856 327 891 352 891 c 0
 366 891 380 883 410 863 c 2
 555 764 l 1
 544 742 l 1
 374 798 l 2
 335 810 313 817 313 841 c 0x18
38 0 m 1xe680
 44 29 l 1
 100 35 l 2
 124 37 133 49 141 83 c 2
 261 611 l 2
 269 645 262 657 239 659 c 2
 179 663 l 1
 186 692 l 1
 692 692 l 1
 654 525 l 1
 624 525 l 1
 633 615 636 657 510 657 c 2
 389 657 l 2
 372 657 366 652 361 628 c 2
 304 379 l 1
 435 379 l 2
 523 379 534 395 560 464 c 1
 590 464 l 1xe680
 544 255 l 1
 514 255 l 1
 518 320 515 341 427 341 c 2
 296 341 l 1
 245 122 l 2
 234 75 235 60 250 48 c 0
 263 38 313 35 362 35 c 0
 485 35 530 53 581 176 c 1
 611 176 l 1xe580
 560 0 l 1
 38 0 l 1xe680
EndSplineSet
EndChar

StartChar: Eacute
Encoding: 295 201 137
Width: 596
Flags: MW
HStem: 0 35<100 100 337.5 423.5> 341 38<304 427 296 435> 657 35<380.5 389 389 510> 742 149
VStem: 399 242<764 848.5> 514 30<255 255> 560 30<464 464> 581 30<176 176> 624 30<525 525>
LayerCount: 2
Fore
SplineSet
399 764 m 1x18
 544 863 l 2
 574 883 588 891 602 891 c 0
 627 891 641 856 641 841 c 0
 641 817 619 810 580 798 c 2
 410 742 l 1
 399 764 l 1x18
38 0 m 1xe680
 44 29 l 1
 100 35 l 2
 124 37 133 49 141 83 c 2
 261 611 l 2
 269 645 262 657 239 659 c 2
 179 663 l 1
 186 692 l 1
 692 692 l 1
 654 525 l 1
 624 525 l 1
 633 615 636 657 510 657 c 2
 389 657 l 2
 372 657 366 652 361 628 c 2
 304 379 l 1
 435 379 l 2
 523 379 534 395 560 464 c 1
 590 464 l 1xe680
 544 255 l 1
 514 255 l 1
 518 320 515 341 427 341 c 2
 296 341 l 1
 245 122 l 2
 234 75 235 60 250 48 c 0
 263 38 313 35 362 35 c 0
 485 35 530 53 581 176 c 1
 611 176 l 1xe580
 560 0 l 1
 38 0 l 1xe680
EndSplineSet
EndChar

StartChar: Ecircumflex
Encoding: 296 202 138
Width: 596
Flags: MW
HStem: 0 35<100 100 337.5 423.5> 341 38<304 427 296 435> 657 35<380.5 389 389 510> 797 79<469 495>
VStem: 307 306<741 742> 514 30<255 255> 560 30<464 464> 581 30<176 176> 624 30<525 525>
LayerCount: 2
Fore
SplineSet
307 742 m 1x18
 447 853 l 2
 465 868 476 876 489 876 c 0
 501 876 511 865 522 851 c 2
 613 741 l 1
 595 722 l 1
 505 781 l 2
 493 790 482 797 473 797 c 0
 465 797 450 790 437 783 c 2
 320 722 l 1
 307 742 l 1x18
38 0 m 1xe680
 44 29 l 1
 100 35 l 2
 124 37 133 49 141 83 c 2
 261 611 l 2
 269 645 262 657 239 659 c 2
 179 663 l 1
 186 692 l 1
 692 692 l 1
 654 525 l 1
 624 525 l 1
 633 615 636 657 510 657 c 2
 389 657 l 2
 372 657 366 652 361 628 c 2
 304 379 l 1
 435 379 l 2
 523 379 534 395 560 464 c 1
 590 464 l 1xe680
 544 255 l 1
 514 255 l 1
 518 320 515 341 427 341 c 2
 296 341 l 1
 245 122 l 2
 234 75 235 60 250 48 c 0
 263 38 313 35 362 35 c 0
 485 35 530 53 581 176 c 1
 611 176 l 1xe580
 560 0 l 1
 38 0 l 1xe680
EndSplineSet
EndChar

StartChar: Edieresis
Encoding: 297 203 139
Width: 596
Flags: MW
HStem: 0 35<100 100 337.5 423.5> 341 38<304 427 296 435> 657 35<380.5 389 389 510> 738 110<348.5 372.5 556.5 580.5>
VStem: 306 107<782 805> 514 30<255 255> 514 107<782 805> 560 30<464 464> 581 30<176 176> 624 30<525 525>
LayerCount: 2
Fore
SplineSet
514 787 m 0x1a
 514 823 540 848 573 848 c 0
 603 848 621 824 621 799 c 0
 621 765 598 738 563 738 c 0
 531 738 514 758 514 787 c 0x1a
306 787 m 0
 306 823 332 848 365 848 c 0
 395 848 413 824 413 799 c 0
 413 765 390 738 355 738 c 0
 323 738 306 758 306 787 c 0
38 0 m 1xe540
 44 29 l 1
 100 35 l 2
 124 37 133 49 141 83 c 2
 261 611 l 2
 269 645 262 657 239 659 c 2
 179 663 l 1
 186 692 l 1
 692 692 l 1
 654 525 l 1
 624 525 l 1
 633 615 636 657 510 657 c 2
 389 657 l 2
 372 657 366 652 361 628 c 2
 304 379 l 1
 435 379 l 2
 523 379 534 395 560 464 c 1
 590 464 l 1xe540
 544 255 l 1
 514 255 l 1
 518 320 515 341 427 341 c 2
 296 341 l 1
 245 122 l 2
 234 75 235 60 250 48 c 0
 263 38 313 35 362 35 c 0
 485 35 530 53 581 176 c 1
 611 176 l 1xe4c0
 560 0 l 1
 38 0 l 1xe540
EndSplineSet
EndChar

StartChar: Igrave
Encoding: 298 204 140
Width: 345
Flags: MW
HStem: 0 31 661 31
VStem: 40 423
LayerCount: 2
Fore
SplineSet
182 841 m 0
 182 856 196 891 221 891 c 0
 235 891 249 883 279 863 c 2
 424 764 l 1
 413 742 l 1
 243 798 l 2
 204 810 182 817 182 841 c 0
40 0 m 1
 46 29 l 1
 101 35 l 2
 125 37 136 51 143 83 c 2
 263 609 l 2
 270 639 264 657 241 659 c 2
 182 663 l 1
 189 692 l 1
 463 692 l 1
 456 663 l 1
 401 658 l 2
 376 656 366 640 359 609 c 2
 239 83 l 2
 232 52 237 35 261 33 c 2
 320 29 l 1
 314 0 l 1
 40 0 l 1
EndSplineSet
EndChar

StartChar: Iacute
Encoding: 299 205 141
Width: 345
Flags: MW
HStem: 0 31 661 31
VStem: 40 446
LayerCount: 2
Fore
SplineSet
244 764 m 1
 389 863 l 2
 419 883 433 891 447 891 c 0
 472 891 486 856 486 841 c 0
 486 817 464 810 425 798 c 2
 255 742 l 1
 244 764 l 1
40 0 m 1
 46 29 l 1
 101 35 l 2
 125 37 136 51 143 83 c 2
 263 609 l 2
 270 639 264 657 241 659 c 2
 182 663 l 1
 189 692 l 1
 463 692 l 1
 456 663 l 1
 401 658 l 2
 376 656 366 640 359 609 c 2
 239 83 l 2
 232 52 237 35 261 33 c 2
 320 29 l 1
 314 0 l 1
 40 0 l 1
EndSplineSet
EndChar

StartChar: Icircumflex
Encoding: 300 206 142
Width: 345
Flags: MW
HStem: 0 29<40 46 46 46 46 314> 663 29<182 463 456 456> 797 79<344 370>
VStem: 182 306<663 741 741 742>
LayerCount: 2
Fore
SplineSet
182 742 m 1
 322 853 l 2
 340 868 351 876 364 876 c 0
 376 876 386 865 397 851 c 2
 488 741 l 1
 470 722 l 1
 380 781 l 2
 368 790 357 797 348 797 c 0
 340 797 325 790 312 783 c 2
 195 722 l 1
 182 742 l 1
40 0 m 1
 46 29 l 1
 101 35 l 2
 125 37 136 51 143 83 c 2
 263 609 l 2
 270 639 264 657 241 659 c 2
 182 663 l 1
 189 692 l 1
 463 692 l 1
 456 663 l 1
 401 658 l 2
 376 656 366 640 359 609 c 2
 239 83 l 2
 232 52 237 35 261 33 c 2
 320 29 l 1
 314 0 l 1
 40 0 l 1
EndSplineSet
EndChar

StartChar: Idieresis
Encoding: 301 207 143
Width: 345
Flags: MW
HStem: 0 31 661 31 738 110<223.5 247.5 431.5 455.5>
VStem: 181 107<782 805> 389 107<782 805>
LayerCount: 2
Fore
SplineSet
389 787 m 0
 389 823 415 848 448 848 c 0
 478 848 496 824 496 799 c 0
 496 765 473 738 438 738 c 0
 406 738 389 758 389 787 c 0
181 787 m 0
 181 823 207 848 240 848 c 0
 270 848 288 824 288 799 c 0
 288 765 265 738 230 738 c 0
 198 738 181 758 181 787 c 0
40 0 m 1
 46 29 l 1
 101 35 l 2
 125 37 136 51 143 83 c 2
 263 609 l 2
 270 639 264 657 241 659 c 2
 182 663 l 1
 189 692 l 1
 463 692 l 1
 456 663 l 1
 401 658 l 2
 376 656 366 640 359 609 c 2
 239 83 l 2
 232 52 237 35 261 33 c 2
 320 29 l 1
 314 0 l 1
 40 0 l 1
EndSplineSet
EndChar

StartChar: Eth
Encoding: 302 208 144
Width: 770
Flags: MW
HStem: 0 35<109 109 300.5 354> 341 38<111 208 101 217 313 439> 657 35<436 464 464 476>
VStem: 702 107<390 451.5 381 473>
LayerCount: 2
Fore
SplineSet
47 0 m 1
 53 29 l 1
 109 35 l 2
 133 37 143 50 150 83 c 2
 208 341 l 1
 101 341 l 1
 111 379 l 1
 217 379 l 1
 269 609 l 2
 276 642 271 656 248 658 c 2
 189 663 l 1
 195 692 l 1
 464 692 l 2
 575 692 665 669 723 620 c 0
 780 572 809 492 809 411 c 0
 809 351 799 267 742 181 c 0
 670 72 554 0 354 0 c 2
 47 0 l 1
246 86 m 2
 236 42 273 35 328 35 c 0
 494 35 580 97 637 191 c 0
 682 265 702 347 702 433 c 0
 702 513 684 653 476 657 c 0
 396 657 375 654 367 620 c 2
 313 379 l 1
 450 379 l 1
 439 341 l 1
 304 341 l 1
 246 86 l 2
EndSplineSet
EndChar

StartChar: Ntilde
Encoding: 303 209 145
Width: 763
Flags: MW
HStem: 0 29<31 36 36 36 36 267> 663 29<174 371 885 885> 736 60<625.5 644.5> 774 60<449 471>
LayerCount: 2
Fore
SplineSet
369 736 m 1x20
 389 776 417 834 481 834 c 0x10
 505 834 533 825 560 815 c 0
 588 806 615 796 636 796 c 0
 664 796 676 807 704 842 c 1
 724 831 l 1
 695 774 669 736 620 736 c 0x20
 598 736 569 746 540 755 c 0
 511 765 482 774 460 774 c 0x10
 427 774 410 758 388 723 c 1
 369 736 l 1x20
31 0 m 1xc0
 36 29 l 1
 67 32 l 2
 97 35 114 43 126 75 c 0
 138 108 149 146 161 199 c 2
 255 609 l 2
 263 642 256 655 233 657 c 2
 174 663 l 1
 181 692 l 1
 371 692 l 1
 455 505 541 318 627 131 c 1
 631 131 l 1
 713 493 l 2
 725 546 731 584 734 617 c 0
 737 650 720 655 688 659 c 2
 649 663 l 1
 654 692 l 1
 890 692 l 1
 885 663 l 1
 854 660 l 2
 824 657 807 649 795 617 c 0
 783 584 772 546 760 493 c 2
 648 0 l 1
 583 0 l 1
 491 203 399 406 305 609 c 1
 302 609 l 1
 208 199 l 2
 196 146 190 108 187 75 c 0
 184 44 201 35 233 32 c 2
 272 29 l 1
 267 0 l 1
 31 0 l 1xc0
EndSplineSet
EndChar

StartChar: Ograve
Encoding: 304 210 146
Width: 753
Flags: MW
HStem: -15 35<344 463 344 495.5> 672 35<451 559>
VStem: 114 105<187.5 272 160.5 303> 684 105<437.5 516.5 394.5 536.5>
LayerCount: 2
Fore
SplineSet
377 841 m 0
 377 856 391 891 416 891 c 0
 430 891 444 883 474 863 c 2
 619 764 l 1
 608 742 l 1
 438 798 l 2
 399 810 377 817 377 841 c 0
114 270 m 0
 114 336 128 430 183 523 c 0
 241 619 340 707 500 707 c 0
 665 707 789 619 789 414 c 0
 789 375 780 273 726 175 c 0
 671 76 584 -15 407 -15 c 0
 208 -15 114 105 114 270 c 0
219 230 m 0
 219 91 290 20 398 20 c 0
 528 20 596 113 637 220 c 0
 678 326 684 409 684 466 c 0
 684 607 614 672 504 672 c 0
 398 672 327 599 281 504 c 0
 235 407 219 314 219 230 c 0
EndSplineSet
EndChar

StartChar: Oacute
Encoding: 305 211 147
Width: 753
Flags: MW
HStem: -15 35<344 463 344 495.5> 672 35<451 559>
VStem: 114 105<187.5 272 160.5 303> 684 105<437.5 516.5 394.5 536.5>
LayerCount: 2
Fore
SplineSet
450 764 m 1
 595 863 l 2
 625 883 639 891 653 891 c 0
 678 891 692 856 692 841 c 0
 692 817 670 810 631 798 c 2
 461 742 l 1
 450 764 l 1
114 270 m 0
 114 336 128 430 183 523 c 0
 241 619 340 707 500 707 c 0
 665 707 789 619 789 414 c 0
 789 375 780 273 726 175 c 0
 671 76 584 -15 407 -15 c 0
 208 -15 114 105 114 270 c 0
219 230 m 0
 219 91 290 20 398 20 c 0
 528 20 596 113 637 220 c 0
 678 326 684 409 684 466 c 0
 684 607 614 672 504 672 c 0
 398 672 327 599 281 504 c 0
 235 407 219 314 219 230 c 0
EndSplineSet
EndChar

StartChar: Ocircumflex
Encoding: 306 212 148
Width: 753
Flags: MW
HStem: -15 35<344 463 344 495.5> 672 35<451 559> 797 79<536 562>
VStem: 114 105<187.5 272 160.5 303> 374 306<741 742> 684 105<437.5 516.5 394.5 536.5>
LayerCount: 2
Fore
SplineSet
374 742 m 1
 514 853 l 2
 532 868 543 876 556 876 c 0
 568 876 578 865 589 851 c 2
 680 741 l 1
 662 722 l 1
 572 781 l 2
 560 790 549 797 540 797 c 0
 532 797 517 790 504 783 c 2
 387 722 l 1
 374 742 l 1
114 270 m 0
 114 336 128 430 183 523 c 0
 241 619 340 707 500 707 c 0
 665 707 789 619 789 414 c 0
 789 375 780 273 726 175 c 0
 671 76 584 -15 407 -15 c 0
 208 -15 114 105 114 270 c 0
219 230 m 0
 219 91 290 20 398 20 c 0
 528 20 596 113 637 220 c 0
 678 326 684 409 684 466 c 0
 684 607 614 672 504 672 c 0
 398 672 327 599 281 504 c 0
 235 407 219 314 219 230 c 0
EndSplineSet
EndChar

StartChar: Otilde
Encoding: 307 213 149
Width: 753
Flags: MW
HStem: -15 35<344 463 344 495.5> 672 35<451 559> 736 60<608.5 627.5> 774 60<432 454>
VStem: 114 105<187.5 272 160.5 303> 684 105<437.5 516.5 394.5 536.5>
LayerCount: 2
Fore
SplineSet
352 736 m 1x20
 372 776 400 834 464 834 c 0x10
 488 834 516 825 543 815 c 0
 571 806 598 796 619 796 c 0
 647 796 659 807 687 842 c 1
 707 831 l 1
 678 774 652 736 603 736 c 0x20
 581 736 552 746 523 755 c 0
 494 765 465 774 443 774 c 0x10
 410 774 393 758 371 723 c 1
 352 736 l 1x20
114 270 m 0xcc
 114 336 128 430 183 523 c 0
 241 619 340 707 500 707 c 0
 665 707 789 619 789 414 c 0
 789 375 780 273 726 175 c 0
 671 76 584 -15 407 -15 c 0
 208 -15 114 105 114 270 c 0xcc
219 230 m 0
 219 91 290 20 398 20 c 0
 528 20 596 113 637 220 c 0
 678 326 684 409 684 466 c 0
 684 607 614 672 504 672 c 0
 398 672 327 599 281 504 c 0
 235 407 219 314 219 230 c 0
EndSplineSet
EndChar

StartChar: Odieresis
Encoding: 308 214 150
Width: 753
Flags: MW
HStem: -15 35<344 463 344 495.5> 672 35<451 559> 738 110<427.5 451.5 635.5 659.5>
VStem: 114 105<187.5 272 160.5 303> 385 107<782 805> 593 107<782 805> 684 105<437.5 516.5 394.5 536.5>
LayerCount: 2
Fore
SplineSet
593 787 m 0x2c
 593 823 619 848 652 848 c 0
 682 848 700 824 700 799 c 0
 700 765 677 738 642 738 c 0
 610 738 593 758 593 787 c 0x2c
385 787 m 0
 385 823 411 848 444 848 c 0
 474 848 492 824 492 799 c 0
 492 765 469 738 434 738 c 0
 402 738 385 758 385 787 c 0
114 270 m 0xd2
 114 336 128 430 183 523 c 0
 241 619 340 707 500 707 c 0
 665 707 789 619 789 414 c 0
 789 375 780 273 726 175 c 0
 671 76 584 -15 407 -15 c 0
 208 -15 114 105 114 270 c 0xd2
219 230 m 0
 219 91 290 20 398 20 c 0
 528 20 596 113 637 220 c 0
 678 326 684 409 684 466 c 0
 684 607 614 672 504 672 c 0
 398 672 327 599 281 504 c 0
 235 407 219 314 219 230 c 0
EndSplineSet
EndChar

StartChar: multiply
Encoding: 309 215 151
Width: 570
Flags: MW
HStem: 22 456<164 164 164 525>
VStem: 123 444<66 66 66 432>
LayerCount: 2
Fore
SplineSet
123 66 m 1
 302 250 l 1
 123 432 l 1
 164 478 l 1
 345 294 l 1
 525 478 l 1
 567 432 l 1
 388 250 l 1
 567 66 l 1
 525 22 l 1
 345 206 l 1
 164 22 l 1
 123 66 l 1
EndSplineSet
EndChar

StartChar: Oslash
Encoding: 310 216 152
Width: 753
Flags: MW
HStem: -15 35<369.5 463 369.5 495.5> 672 35<451 532>
VStem: 114 105<226.5 272 208 303> 684 105<437.5 466 394.5 489.5>
LayerCount: 2
Fore
SplineSet
114 270 m 0
 114 336 128 430 183 523 c 0
 241 619 340 707 500 707 c 0
 565 707 625 693 672 663 c 1
 730 736 l 1
 762 710 l 1
 705 638 l 1
 757 592 789 518 789 414 c 0
 789 375 780 273 726 175 c 0
 671 76 584 -15 407 -15 c 0
 332 -15 272 2 227 33 c 1
 165 -45 l 1
 135 -17 l 1
 194 58 l 1
 141 108 114 183 114 270 c 0
219 230 m 0
 219 186 226 148 241 117 c 1
 637 619 l 1
 606 655 560 672 504 672 c 0
 398 672 327 599 281 504 c 0
 235 407 219 314 219 230 c 0
263 79 m 1
 294 40 341 20 398 20 c 0
 528 20 596 113 637 220 c 0
 678 326 684 409 684 466 c 0
 684 513 676 552 661 582 c 1
 263 79 l 1
EndSplineSet
EndChar

StartChar: Ugrave
Encoding: 311 217 153
Width: 794
Flags: MW
HStem: -15 35<359.5 478> 660 32
VStem: 166 99
LayerCount: 2
Fore
SplineSet
362 841 m 0
 362 856 376 891 401 891 c 0
 415 891 429 883 459 863 c 2
 604 764 l 1
 593 742 l 1
 423 798 l 2
 384 810 362 817 362 841 c 0
177 256 m 2
 261 609 l 2
 269 642 262 656 239 658 c 2
 180 663 l 1
 187 692 l 1
 461 692 l 1
 454 663 l 1
 399 659 l 2
 374 657 365 643 357 609 c 2
 278 269 l 2
 234 81 304 20 415 20 c 0
 554 20 603 127 634 260 c 2
 715 609 l 2
 723 642 716 656 693 658 c 2
 634 663 l 1
 641 692 l 1
 915 692 l 1
 908 663 l 1
 853 658 l 2
 828 656 819 643 811 609 c 2
 726 247 l 2
 671 14 546 -15 410 -15 c 0
 238 -15 130 57 177 256 c 2
EndSplineSet
EndChar

StartChar: Uacute
Encoding: 312 218 154
Width: 794
Flags: MW
HStem: -15 35<359.5 478> 660 32
VStem: 166 99
LayerCount: 2
Fore
SplineSet
510 764 m 1
 655 863 l 2
 685 883 699 891 713 891 c 0
 738 891 752 856 752 841 c 0
 752 817 730 810 691 798 c 2
 521 742 l 1
 510 764 l 1
177 256 m 2
 261 609 l 2
 269 642 262 656 239 658 c 2
 180 663 l 1
 187 692 l 1
 461 692 l 1
 454 663 l 1
 399 659 l 2
 374 657 365 643 357 609 c 2
 278 269 l 2
 234 81 304 20 415 20 c 0
 554 20 603 127 634 260 c 2
 715 609 l 2
 723 642 716 656 693 658 c 2
 634 663 l 1
 641 692 l 1
 915 692 l 1
 908 663 l 1
 853 658 l 2
 828 656 819 643 811 609 c 2
 726 247 l 2
 671 14 546 -15 410 -15 c 0
 238 -15 130 57 177 256 c 2
EndSplineSet
EndChar

StartChar: Ucircumflex
Encoding: 313 219 155
Width: 794
Flags: MW
HStem: -15 35<359.5 478> 663 29<180 461 454 454 908 908> 797 79<566 592>
VStem: 404 306<741 742>
LayerCount: 2
Fore
SplineSet
404 742 m 1
 544 853 l 2
 562 868 573 876 586 876 c 0
 598 876 608 865 619 851 c 2
 710 741 l 1
 692 722 l 1
 602 781 l 2
 590 790 579 797 570 797 c 0
 562 797 547 790 534 783 c 2
 417 722 l 1
 404 742 l 1
177 256 m 2
 261 609 l 2
 269 642 262 656 239 658 c 2
 180 663 l 1
 187 692 l 1
 461 692 l 1
 454 663 l 1
 399 659 l 2
 374 657 365 643 357 609 c 2
 278 269 l 2
 234 81 304 20 415 20 c 0
 554 20 603 127 634 260 c 2
 715 609 l 2
 723 642 716 656 693 658 c 2
 634 663 l 1
 641 692 l 1
 915 692 l 1
 908 663 l 1
 853 658 l 2
 828 656 819 643 811 609 c 2
 726 247 l 2
 671 14 546 -15 410 -15 c 0
 238 -15 130 57 177 256 c 2
EndSplineSet
EndChar

StartChar: Udieresis
Encoding: 314 220 156
Width: 794
Flags: MW
HStem: -15 35<359.5 478> 660 32 738 110<452.5 476.5 660.5 684.5>
VStem: 166 99 410 107<782 805> 618 107<782 805>
LayerCount: 2
Fore
SplineSet
618 787 m 0
 618 823 644 848 677 848 c 0
 707 848 725 824 725 799 c 0
 725 765 702 738 667 738 c 0
 635 738 618 758 618 787 c 0
410 787 m 0
 410 823 436 848 469 848 c 0
 499 848 517 824 517 799 c 0
 517 765 494 738 459 738 c 0
 427 738 410 758 410 787 c 0
177 256 m 2
 261 609 l 2
 269 642 262 656 239 658 c 2
 180 663 l 1
 187 692 l 1
 461 692 l 1
 454 663 l 1
 399 659 l 2
 374 657 365 643 357 609 c 2
 278 269 l 2
 234 81 304 20 415 20 c 0
 554 20 603 127 634 260 c 2
 715 609 l 2
 723 642 716 656 693 658 c 2
 634 663 l 1
 641 692 l 1
 915 692 l 1
 908 663 l 1
 853 658 l 2
 828 656 819 643 811 609 c 2
 726 247 l 2
 671 14 546 -15 410 -15 c 0
 238 -15 130 57 177 256 c 2
EndSplineSet
EndChar

StartChar: Yacute
Encoding: 315 221 157
Width: 591
Flags: MW
HStem: 0 29<161 161 161 465 155 161> 663 29<131 386 380 380 773 773> 742 149
VStem: 459 242<764 848.5>
LayerCount: 2
Fore
SplineSet
459 764 m 1
 604 863 l 2
 634 883 648 891 662 891 c 0
 687 891 701 856 701 841 c 0
 701 817 679 810 640 798 c 2
 470 742 l 1
 459 764 l 1
131 663 m 1
 137 692 l 1
 386 692 l 1
 380 663 l 1
 325 658 l 2
 306 656 302 647 306 629 c 2
 397 322 l 1
 400 322 l 1
 479 429 572 563 611 630 c 0
 620 647 617 658 596 659 c 2
 544 663 l 1
 550 692 l 1
 779 692 l 1
 773 663 l 1
 716 659 704 652 668 612 c 0
 614 551 514 418 438 307 c 0
 428 293 417 274 410 247 c 2
 372 78 l 2
 366 50 371 37 395 35 c 2
 471 29 l 1
 465 0 l 1
 155 0 l 1
 161 29 l 1
 233 36 l 2
 259 39 268 50 274 78 c 2
 312 246 l 2
 317 267 317 282 312 299 c 0
 279 409 248 518 214 617 c 0
 201 656 194 658 131 663 c 1
EndSplineSet
EndChar

StartChar: Thorn
Encoding: 316 222 158
Width: 604
Flags: MW
HStem: 0 32 182 35<309.5 352> 512 35<381.5 419 419 458> 660 32
VStem: 546 105
LayerCount: 2
Fore
SplineSet
40 0 m 1
 46 29 l 1
 101 35 l 2
 125 38 135 50 143 83 c 2
 263 609 l 2
 271 642 264 655 241 657 c 2
 182 663 l 1
 189 692 l 1
 463 692 l 1
 456 663 l 1
 401 658 l 2
 376 656 367 643 359 609 c 2
 345 547 l 1
 419 547 l 2
 544 547 653 507 651 381 c 0
 648 207 461 182 352 182 c 2
 261 182 l 1
 239 83 l 2
 232 52 237 37 263 35 c 2
 322 29 l 1
 316 0 l 1
 40 0 l 1
278 251 m 2
 273 231 275 217 344 217 c 0
 456 217 546 271 546 394 c 0
 546 466 502 512 414 512 c 0
 349 512 335 504 329 476 c 2
 278 251 l 2
EndSplineSet
EndChar

StartChar: germandbls
Encoding: 317 223 159
Width: 577
Flags: MW
HStem: -242 37<48 59 48 69> -12 37<435.5 461.5 435.5 469> 452 38<123 200 112 210> 471 20 707 35<493 509>
VStem: 379 76<366 392> 505 73<96.5 113.5> 581 84<592.5 645.5>
LayerCount: 2
Fore
SplineSet
-72 -184 m 0xdf
 -72 -159 -49 -134 -27 -134 c 0
 -14 -134 -7 -146 0 -156 c 0
 27 -197 42 -205 54 -205 c 0
 64 -205 73 -197 77 -175 c 2
 200 452 l 1
 112 452 l 1
 123 490 l 1
 210 490 l 1xef
 217 512 l 2
 245 607 316 744 493 742 c 0
 604 742 665 686 665 606 c 0
 665 570 655 528 592 471 c 1
 480 473 455 422 455 387 c 0
 455 345 496 300 521 269 c 0
 547 236 578 192 578 137 c 0
 578 56 520 -12 418 -12 c 0
 359 -12 304 17 303 46 c 0
 301 72 325 91 344 91 c 0
 355 91 363 86 371 74 c 0
 399 32 424 25 447 25 c 0
 476 25 505 48 505 93 c 0
 505 134 479 174 439 222 c 0
 407 260 379 305 379 350 c 0
 379 434 444 487 523 491 c 1
 567 528 581 574 581 611 c 0
 581 680 528 707 490 707 c 0
 380 707 328 585 285 395 c 2
 203 31 l 2
 160 -161 119 -242 19 -242 c 0
 -28 -242 -71 -217 -72 -184 c 0xdf
EndSplineSet
EndChar

StartChar: agrave
Encoding: 318 224 160
Width: 561
Flags: MW
HStem: -12 52<192.5 215.5> 467 35<341.5 431.5 299 432> 474 20<496 580 580 580> 542 181<303.5 479>
VStem: 66 99<90.5 165 90.5 173> 272 222<562 690>
LayerCount: 2
Fore
SplineSet
66 107 m 0xa8
 66 239 180 502 418 502 c 0xc8
 445 502 474 493 491 481 c 1
 496 494 l 1
 580 494 l 1
 474 95 l 2
 465 63 464 40 484 40 c 0
 512 40 556 111 574 146 c 1
 598 132 l 1
 564 56 508 -12 432 -12 c 0
 378 -12 367 29 388 100 c 2
 422 214 l 1
 420 214 l 1
 362 112 269 -12 162 -12 c 0
 94 -12 66 47 66 107 c 0xa8
165 110 m 0
 165 71 176 40 209 40 c 0
 257 40 318 107 374 192 c 0
 427 272 463 371 481 445 c 1
 466 459 444 467 420 467 c 0
 263 467 165 220 165 110 c 0
272 680 m 0x14
 272 700 296 723 311 723 c 0
 328 723 345 713 375 682 c 2
 494 562 l 1
 479 542 l 1
 328 626 l 2
 298 642 272 659 272 680 c 0x14
EndSplineSet
EndChar

StartChar: aacute
Encoding: 319 225 161
Width: 561
Flags: MW
HStem: -12 52<192.5 215.5> 467 35<341.5 431.5 299 432> 474 20<496 580 580 580> 542 181<385 560.5>
VStem: 66 99<90.5 165 90.5 173> 370 222<562 690>
LayerCount: 2
Fore
SplineSet
370 562 m 1x14
 489 682 l 2
 519 713 536 723 553 723 c 0
 568 723 592 700 592 680 c 0
 592 659 566 642 536 626 c 2
 385 542 l 1
 370 562 l 1x14
66 107 m 0xa8
 66 239 180 502 418 502 c 0xc8
 445 502 474 493 491 481 c 1
 496 494 l 1
 580 494 l 1
 474 95 l 2
 465 63 464 40 484 40 c 0
 512 40 556 111 574 146 c 1
 598 132 l 1
 564 56 508 -12 432 -12 c 0
 378 -12 367 29 388 100 c 2
 422 214 l 1
 420 214 l 1
 362 112 269 -12 162 -12 c 0
 94 -12 66 47 66 107 c 0xa8
165 110 m 0
 165 71 176 40 209 40 c 0
 257 40 318 107 374 192 c 0
 427 272 463 371 481 445 c 1
 466 459 444 467 420 467 c 0
 263 467 165 220 165 110 c 0
EndSplineSet
EndChar

StartChar: acircumflex
Encoding: 320 226 162
Width: 561
Flags: MW
HStem: -12 52<192.5 215.5> 467 35<341.5 431.5 299 432> 474 20<496 580 580 580> 546 174<293 462.5 451 553>
VStem: 66 99<90.5 165 90.5 173> 279 297<567 567>
LayerCount: 2
Fore
SplineSet
279 567 m 1x14
 417 696 l 2
 432 709 445 720 457 720 c 0
 468 720 478 708 487 696 c 2
 576 567 l 1
 553 546 l 1
 468 621 l 2
 458 629 449 636 440 636 c 0
 433 636 420 629 408 621 c 2
 293 546 l 1
 279 567 l 1x14
66 107 m 0xa8
 66 239 180 502 418 502 c 0xc8
 445 502 474 493 491 481 c 1
 496 494 l 1
 580 494 l 1
 474 95 l 2
 465 63 464 40 484 40 c 0
 512 40 556 111 574 146 c 1
 598 132 l 1
 564 56 508 -12 432 -12 c 0
 378 -12 367 29 388 100 c 2
 422 214 l 1
 420 214 l 1
 362 112 269 -12 162 -12 c 0
 94 -12 66 47 66 107 c 0xa8
165 110 m 0
 165 71 176 40 209 40 c 0
 257 40 318 107 374 192 c 0
 427 272 463 371 481 445 c 1
 466 459 444 467 420 467 c 0
 263 467 165 220 165 110 c 0
EndSplineSet
EndChar

StartChar: atilde
Encoding: 321 227 163
Width: 561
Flags: MW
HStem: -12 52<192.5 215.5> 467 35<341.5 431.5 299 432> 474 20<496 580 580 580> 576 60<485.5 504.5> 614 60<309 331>
VStem: 66 99<90.5 165 90.5 173>
LayerCount: 2
Fore
SplineSet
229 576 m 1x10
 249 616 277 674 341 674 c 0x08
 365 674 393 665 420 655 c 0
 448 646 475 636 496 636 c 0
 524 636 536 647 564 682 c 1
 584 671 l 1
 555 614 529 576 480 576 c 0x10
 458 576 429 586 400 595 c 0
 371 605 342 614 320 614 c 0x08
 287 614 270 598 248 563 c 1
 229 576 l 1x10
66 107 m 0xa4
 66 239 180 502 418 502 c 0xc4
 445 502 474 493 491 481 c 1
 496 494 l 1
 580 494 l 1
 474 95 l 2
 465 63 464 40 484 40 c 0
 512 40 556 111 574 146 c 1
 598 132 l 1
 564 56 508 -12 432 -12 c 0
 378 -12 367 29 388 100 c 2
 422 214 l 1
 420 214 l 1
 362 112 269 -12 162 -12 c 0
 94 -12 66 47 66 107 c 0xa4
165 110 m 0
 165 71 176 40 209 40 c 0
 257 40 318 107 374 192 c 0
 427 272 463 371 481 445 c 1
 466 459 444 467 420 467 c 0
 263 467 165 220 165 110 c 0
EndSplineSet
EndChar

StartChar: adieresis
Encoding: 322 228 164
Width: 561
Flags: MW
HStem: -12 52<192.5 215.5> 467 35<341.5 431.5 299 432> 474 20<496 580 580 580> 572 110<306.5 330.5 514.5 538.5>
VStem: 66 99<90.5 165 90.5 173> 264 107<616 639> 472 107<616 639>
LayerCount: 2
Fore
SplineSet
472 621 m 0x16
 472 657 498 682 531 682 c 0
 561 682 579 658 579 633 c 0
 579 599 556 572 521 572 c 0
 489 572 472 592 472 621 c 0x16
264 621 m 0
 264 657 290 682 323 682 c 0
 353 682 371 658 371 633 c 0
 371 599 348 572 313 572 c 0
 281 572 264 592 264 621 c 0
66 107 m 0xa8
 66 239 180 502 418 502 c 0xc8
 445 502 474 493 491 481 c 1
 496 494 l 1
 580 494 l 1
 474 95 l 2
 465 63 464 40 484 40 c 0
 512 40 556 111 574 146 c 1
 598 132 l 1
 564 56 508 -12 432 -12 c 0
 378 -12 367 29 388 100 c 2
 422 214 l 1
 420 214 l 1
 362 112 269 -12 162 -12 c 0
 94 -12 66 47 66 107 c 0xa8
165 110 m 0
 165 71 176 40 209 40 c 0
 257 40 318 107 374 192 c 0
 427 272 463 371 481 445 c 1
 466 459 444 467 420 467 c 0
 263 467 165 220 165 110 c 0
EndSplineSet
EndChar

StartChar: aring
Encoding: 323 229 165
Width: 561
Flags: MW
HStem: -12 52<192.5 215.5> 467 35<341.5 431.5 299 432> 474 20<496 580 580 580> 550 33<389 427.5 389 445.5> 719 33<396.5 432>
VStem: 66 99<90.5 165 90.5 173> 302 57<618 647 618 653> 461 57<660.5 686.5>
LayerCount: 2
Fore
SplineSet
302 636 m 0x1b
 302 670 320 752 423 752 c 0
 473 752 518 721 518 661 c 0
 518 613 493 550 398 550 c 0
 344 550 302 580 302 636 c 0x1b
359 636 m 0
 359 600 378 583 400 583 c 0
 455 583 461 650 461 671 c 0
 461 702 443 719 421 719 c 0
 372 719 359 658 359 636 c 0
66 107 m 0xa4
 66 239 180 502 418 502 c 0xc4
 445 502 474 493 491 481 c 1
 496 494 l 1
 580 494 l 1
 474 95 l 2
 465 63 464 40 484 40 c 0
 512 40 556 111 574 146 c 1
 598 132 l 1
 564 56 508 -12 432 -12 c 0
 378 -12 367 29 388 100 c 2
 422 214 l 1
 420 214 l 1
 362 112 269 -12 162 -12 c 0
 94 -12 66 47 66 107 c 0xa4
165 110 m 0
 165 71 176 40 209 40 c 0
 257 40 318 107 374 192 c 0
 427 272 463 371 481 445 c 1
 466 459 444 467 420 467 c 0
 263 467 165 220 165 110 c 0
EndSplineSet
EndChar

StartChar: ae
Encoding: 324 230 166
Width: 779
Flags: MW
HStem: -12 49<561.5 590.5> 455 35<417 430> 467 35<677.5 698.5>
VStem: 69 99<90 165 90 167> 408 98<137 158> 738 94<388.5 425>
LayerCount: 2
Fore
SplineSet
69 107 m 0xbc
 69 227 178 490 421 490 c 0xdc
 446 490 476 483 499 473 c 1
 534 514 l 1
 571 514 l 1
 546 440 l 1
 548 438 l 1
 598 483 650 502 705 502 c 0
 790 502 832 455 832 402 c 0
 832 375 825 347 788 310 c 0
 751 275 669 227 507 192 c 1
 507 187 506 181 506 176 c 0
 506 98 527 37 596 37 c 0
 671 37 725 104 760 152 c 1
 783 131 l 1
 715 20 627 -12 554 -12 c 0
 494 -12 408 12 408 152 c 0
 408 164 410 175 412 195 c 1
 410 195 l 1
 359 108 268 -12 164 -12 c 0
 97 -12 69 47 69 107 c 0xbc
168 110 m 0
 168 70 179 40 209 40 c 0
 258 40 326 113 380 200 c 0
 426 274 464 371 481 436 c 1
 467 447 443 455 417 455 c 0
 266 454 168 220 168 110 c 0
509 226 m 1
 677 262 738 338 738 407 c 0
 738 443 717 467 680 467 c 0xbc
 600 467 526 347 509 226 c 1
EndSplineSet
EndChar

StartChar: ccedilla
Encoding: 325 231 167
Width: 441
Flags: MW
HStem: -230 34 -12 49<220 301.5> 467 35<301 363>
VStem: 81 99<132.5 230>
LayerCount: 2
Fore
SplineSet
81 148 m 0
 81 312 193 502 371 502 c 0
 446 502 500 464 500 413 c 0
 500 380 460 357 436 357 c 0
 418 357 409 369 407 387 c 0
 401 447 379 467 347 467 c 0
 255 467 180 298 180 168 c 0
 180 97 195 37 268 37 c 0
 335 37 394 108 428 154 c 1
 452 135 l 1
 396 41 329 3 267 -8 c 1
 229 -60 l 1
 275 -66 311 -107 301 -157 c 0
 292 -203 243 -230 190 -230 c 0
 165 -230 139 -226 124 -220 c 1
 128 -196 l 1
 173 -202 226 -195 226 -147 c 0
 226 -120 206 -97 171 -95 c 1
 168 -86 l 1
 220 -12 l 1
 151 -11 81 28 81 148 c 0
EndSplineSet
EndChar

StartChar: egrave
Encoding: 326 232 168
Width: 453
Flags: MW
HStem: -12 49<235 265.5> 467 35<337 371.5>
VStem: 80 99<136.5 178.5 136.5 194> 412 94<388 425.5>
LayerCount: 2
Fore
SplineSet
80 152 m 0
 80 236 110 323 163 388 c 0
 218 456 292 502 382 502 c 0
 464 502 506 455 506 402 c 0
 506 374 499 341 464 306 c 0
 421 266 348 226 180 192 c 1
 179 185 179 181 179 176 c 0
 179 97 200 37 270 37 c 0
 345 37 399 104 435 151 c 1
 458 131 l 1
 390 20 302 -12 229 -12 c 0
 171 -12 80 12 80 152 c 0
182 226 m 1
 351 262 412 338 412 408 c 0
 412 443 389 467 354 467 c 0
 274 467 199 347 182 226 c 1
193 680 m 0
 193 700 217 723 232 723 c 0
 249 723 266 713 296 682 c 2
 415 562 l 1
 400 542 l 1
 249 626 l 2
 219 642 193 659 193 680 c 0
EndSplineSet
EndChar

StartChar: eacute
Encoding: 327 233 169
Width: 453
Flags: MW
HStem: -12 49<235 265.5> 467 35<337 371.5>
VStem: 80 99<136.5 178.5 136.5 194> 412 94<388 425.5>
LayerCount: 2
Fore
SplineSet
296 562 m 1
 415 682 l 2
 445 713 462 723 479 723 c 0
 494 723 518 700 518 680 c 0
 518 659 492 642 462 626 c 2
 311 542 l 1
 296 562 l 1
80 152 m 0
 80 236 110 323 163 388 c 0
 218 456 292 502 382 502 c 0
 464 502 506 455 506 402 c 0
 506 374 499 341 464 306 c 0
 421 266 348 226 180 192 c 1
 179 185 179 181 179 176 c 0
 179 97 200 37 270 37 c 0
 345 37 399 104 435 151 c 1
 458 131 l 1
 390 20 302 -12 229 -12 c 0
 171 -12 80 12 80 152 c 0
182 226 m 1
 351 262 412 338 412 408 c 0
 412 443 389 467 354 467 c 0
 274 467 199 347 182 226 c 1
EndSplineSet
EndChar

StartChar: ecircumflex
Encoding: 328 234 170
Width: 453
Flags: MW
HStem: -12 49<235 265.5> 467 35<337 371.5>
VStem: 80 99<136.5 178.5 136.5 194> 412 94<388 425.5>
LayerCount: 2
Fore
SplineSet
213 567 m 1
 351 696 l 2
 366 709 379 720 391 720 c 0
 402 720 412 708 421 696 c 2
 510 567 l 1
 487 546 l 1
 402 621 l 2
 392 629 383 636 374 636 c 0
 367 636 354 629 342 621 c 2
 227 546 l 1
 213 567 l 1
80 152 m 0
 80 236 110 323 163 388 c 0
 218 456 292 502 382 502 c 0
 464 502 506 455 506 402 c 0
 506 374 499 341 464 306 c 0
 421 266 348 226 180 192 c 1
 179 185 179 181 179 176 c 0
 179 97 200 37 270 37 c 0
 345 37 399 104 435 151 c 1
 458 131 l 1
 390 20 302 -12 229 -12 c 0
 171 -12 80 12 80 152 c 0
182 226 m 1
 351 262 412 338 412 408 c 0
 412 443 389 467 354 467 c 0
 274 467 199 347 182 226 c 1
EndSplineSet
EndChar

StartChar: edieresis
Encoding: 329 235 171
Width: 453
Flags: MW
HStem: -12 49<235 265.5> 467 35<337 371.5> 572 110<252.5 276.5 460.5 484.5>
VStem: 80 99<136.5 178.5 136.5 194> 210 107<616 639> 412 94<388 425.5> 418 107<616 639>
LayerCount: 2
Fore
SplineSet
418 621 m 0x2a
 418 657 444 682 477 682 c 0
 507 682 525 658 525 633 c 0
 525 599 502 572 467 572 c 0
 435 572 418 592 418 621 c 0x2a
210 621 m 0
 210 657 236 682 269 682 c 0
 299 682 317 658 317 633 c 0
 317 599 294 572 259 572 c 0
 227 572 210 592 210 621 c 0
80 152 m 0xd4
 80 236 110 323 163 388 c 0
 218 456 292 502 382 502 c 0
 464 502 506 455 506 402 c 0
 506 374 499 341 464 306 c 0
 421 266 348 226 180 192 c 1
 179 185 179 181 179 176 c 0
 179 97 200 37 270 37 c 0
 345 37 399 104 435 151 c 1
 458 131 l 1
 390 20 302 -12 229 -12 c 0
 171 -12 80 12 80 152 c 0xd4
182 226 m 1
 351 262 412 338 412 408 c 0
 412 443 389 467 354 467 c 0
 274 467 199 347 182 226 c 1
EndSplineSet
EndChar

StartChar: igrave
Encoding: 330 236 172
Width: 317
Flags: MW
HStem: -12 52<145 234> 450 24<126 132> 482 20<314 314> 542 181<161.5 337>
VStem: 130 222<562 690>
LayerCount: 2
Fore
SplineSet
120 86 m 2
 204 399 l 2
 213 434 210 443 183 445 c 2
 126 450 l 1
 132 474 l 1
 314 502 l 1
 319 497 l 1
 210 95 l 2
 201 63 200 40 220 40 c 0
 248 40 292 111 310 146 c 1
 334 132 l 1
 300 56 244 -12 172 -12 c 0
 118 -12 105 29 120 86 c 2
130 680 m 0
 130 700 154 723 169 723 c 0
 186 723 203 713 233 682 c 2
 352 562 l 1
 337 542 l 1
 186 626 l 2
 156 642 130 659 130 680 c 0
EndSplineSet
Ligature2: "'liga' Standard Ligatures in Latin lookup 3 subtable" i gravecomb
EndChar

StartChar: iacute
Encoding: 331 237 173
Width: 317
Flags: MW
HStem: -12 52<145 234> 450 24<126 132> 482 20<314 314> 542 181<208 383.5>
VStem: 193 222<562 690>
LayerCount: 2
Fore
SplineSet
120 86 m 2
 204 399 l 2
 213 434 210 443 183 445 c 2
 126 450 l 1
 132 474 l 1
 314 502 l 1
 319 497 l 1
 210 95 l 2
 201 63 200 40 220 40 c 0
 248 40 292 111 310 146 c 1
 334 132 l 1
 300 56 244 -12 172 -12 c 0
 118 -12 105 29 120 86 c 2
193 562 m 1
 312 682 l 2
 342 713 359 723 376 723 c 0
 391 723 415 700 415 680 c 0
 415 659 389 642 359 626 c 2
 208 542 l 1
 193 562 l 1
EndSplineSet
Substitution2: "'locl' Localized Forms in Latin lookup 33 subtable" iacute.locl
Ligature2: "'liga' Standard Ligatures in Latin lookup 3 subtable" i acutecomb
Ligature2: "'liga' Standard Ligatures in Cyrillic lookup 2 subtable" uni0456 acutecomb
Substitution2: "'aalt' Access All Alternates lookup 0 subtable" iacute.locl
EndChar

StartChar: icircumflex
Encoding: 332 238 174
Width: 317
Flags: MW
HStem: -12 52<145 234> 450 24<126 132> 482 20<314 314> 546 174<135 304.5 293 395>
VStem: 121 297<567 567>
LayerCount: 2
Fore
SplineSet
121 567 m 1
 259 696 l 2
 274 709 287 720 299 720 c 0
 310 720 320 708 329 696 c 2
 418 567 l 1
 395 546 l 1
 310 621 l 2
 300 629 291 636 282 636 c 0
 275 636 262 629 250 621 c 2
 135 546 l 1
 121 567 l 1
120 86 m 2
 204 399 l 2
 213 434 210 443 183 445 c 2
 126 450 l 1
 132 474 l 1
 314 502 l 1
 319 497 l 1
 210 95 l 2
 201 63 200 40 220 40 c 0
 248 40 292 111 310 146 c 1
 334 132 l 1
 300 56 244 -12 172 -12 c 0
 118 -12 105 29 120 86 c 2
EndSplineSet
Ligature2: "'liga' Standard Ligatures in Latin lookup 3 subtable" i uni0302
EndChar

StartChar: idieresis
Encoding: 333 239 175
Width: 317
Flags: MW
HStem: -12 52<145 234> 450 24<126 132> 482 20<314 314> 572 110<160.5 184.5 368.5 392.5>
VStem: 118 107<616 639> 326 107<616 639>
LayerCount: 2
Fore
SplineSet
120 86 m 2
 204 399 l 2
 213 434 210 443 183 445 c 2
 126 450 l 1
 132 474 l 1
 314 502 l 1
 319 497 l 1
 210 95 l 2
 201 63 200 40 220 40 c 0
 248 40 292 111 310 146 c 1
 334 132 l 1
 300 56 244 -12 172 -12 c 0
 118 -12 105 29 120 86 c 2
326 621 m 0
 326 657 352 682 385 682 c 0
 415 682 433 658 433 633 c 0
 433 599 410 572 375 572 c 0
 343 572 326 592 326 621 c 0
118 621 m 0
 118 657 144 682 177 682 c 0
 207 682 225 658 225 633 c 0
 225 599 202 572 167 572 c 0
 135 572 118 592 118 621 c 0
EndSplineSet
Ligature2: "'liga' Standard Ligatures in Latin lookup 3 subtable" i uni0308
EndChar

StartChar: eth
Encoding: 334 240 176
Width: 537
Flags: MW
HStem: -12 35<241 338.5 241 372.5> 467 35<309.5 390 263.5 406.5> 687 20G<515 515> 722 20G<277 277>
VStem: 82 97<115.5 181 91.5 211> 459 97<329 369 271.5 400>
LayerCount: 2
Fore
SplineSet
82 169 m 0
 82 253 143 502 384 502 c 0
 396 502 406 499 419 495 c 1
 419 498 l 1
 410 520 388 555 356 594 c 1
 222 534 l 1
 199 566 l 1
 331 625 l 1
 304 657 273 690 239 719 c 1
 239 725 l 1
 277 742 l 1
 312 718 351 685 387 650 c 1
 515 707 l 1
 538 675 l 1
 416 621 l 1
 444 592 470 562 486 537 c 0
 531 470 556 413 556 325 c 0
 556 218 487 -12 258 -12 c 0
 140 -12 82 62 82 169 c 0
179 125 m 0
 179 58 212 23 270 23 c 0
 407 23 459 291 459 367 c 0
 459 433 436 467 377 467 c 0
 242 467 179 237 179 125 c 0
EndSplineSet
EndChar

StartChar: ntilde
Encoding: 335 241 177
Width: 618
Flags: MW
HStem: -12 52<443 535> 450 24<126 132> 450 52<470 489.5> 576 60<495.5 514.5> 614 60<319 341>
LayerCount: 2
Fore
SplineSet
239 576 m 1x10
 259 616 287 674 351 674 c 0x08
 375 674 403 665 430 655 c 0
 458 646 485 636 506 636 c 0
 534 636 546 647 574 682 c 1
 594 671 l 1
 565 614 539 576 490 576 c 0x10
 468 576 439 586 410 595 c 0
 381 605 352 614 330 614 c 0x08
 297 614 280 598 258 563 c 1
 239 576 l 1x10
98 -12 m 1xa0
 203 397 l 2
 212 429 212 443 188 445 c 2
 126 450 l 1
 132 474 l 1xc0
 315 502 l 1
 320 497 l 1
 255 279 l 1
 258 279 l 1
 318 396 422 502 518 502 c 0
 600 502 612 436 589 357 c 2
 511 95 l 2
 502 63 501 40 521 40 c 0
 549 40 593 111 611 146 c 1
 635 132 l 1
 601 56 545 -12 470 -12 c 0
 416 -12 403 30 419 86 c 2
 505 379 l 2
 516 418 507 450 472 450 c 0
 391 450 295 304 258 218 c 0
 232 156 215 102 186 0 c 1
 98 -12 l 1xa0
EndSplineSet
EndChar

StartChar: ograve
Encoding: 336 242 178
Width: 537
Flags: MW
HStem: -12 35<242 322.5> 467 35<311 407.5>
VStem: 84 97<115.5 183 93.5 212> 460 97<326.5 393>
LayerCount: 2
Fore
SplineSet
84 169 m 0
 84 255 141 502 378 502 c 0
 459 502 557 465 557 327 c 0
 557 273 540 188 494 116 c 0
 447 42 377 -12 268 -12 c 0
 142 -12 84 62 84 169 c 0
181 129 m 0
 181 58 213 23 271 23 c 0
 408 23 460 291 460 362 c 0
 460 424 438 467 377 467 c 0
 245 467 181 237 181 129 c 0
235 680 m 0
 235 700 259 723 274 723 c 0
 291 723 308 713 338 682 c 2
 457 562 l 1
 442 542 l 1
 291 626 l 2
 261 642 235 659 235 680 c 0
EndSplineSet
EndChar

StartChar: oacute
Encoding: 337 243 179
Width: 537
Flags: MW
HStem: -12 35<242 322.5> 467 35<311 407.5>
VStem: 84 97<115.5 183 93.5 212> 460 97<326.5 393>
LayerCount: 2
Fore
SplineSet
318 562 m 1
 437 682 l 2
 467 713 484 723 501 723 c 0
 516 723 540 700 540 680 c 0
 540 659 514 642 484 626 c 2
 333 542 l 1
 318 562 l 1
84 169 m 0
 84 255 141 502 378 502 c 0
 459 502 557 465 557 327 c 0
 557 273 540 188 494 116 c 0
 447 42 377 -12 268 -12 c 0
 142 -12 84 62 84 169 c 0
181 129 m 0
 181 58 213 23 271 23 c 0
 408 23 460 291 460 362 c 0
 460 424 438 467 377 467 c 0
 245 467 181 237 181 129 c 0
EndSplineSet
EndChar

StartChar: ocircumflex
Encoding: 338 244 180
Width: 537
Flags: MW
HStem: -12 35<242 322.5> 467 35<311 407.5>
VStem: 84 97<115.5 183 93.5 212> 460 97<326.5 393>
LayerCount: 2
Fore
SplineSet
239 567 m 1
 377 696 l 2
 392 709 405 720 417 720 c 0
 428 720 438 708 447 696 c 2
 536 567 l 1
 513 546 l 1
 428 621 l 2
 418 629 409 636 400 636 c 0
 393 636 380 629 368 621 c 2
 253 546 l 1
 239 567 l 1
84 169 m 0
 84 255 141 502 378 502 c 0
 459 502 557 465 557 327 c 0
 557 273 540 188 494 116 c 0
 447 42 377 -12 268 -12 c 0
 142 -12 84 62 84 169 c 0
181 129 m 0
 181 58 213 23 271 23 c 0
 408 23 460 291 460 362 c 0
 460 424 438 467 377 467 c 0
 245 467 181 237 181 129 c 0
EndSplineSet
EndChar

StartChar: otilde
Encoding: 339 245 181
Width: 537
Flags: MW
HStem: -12 35<242 322.5> 467 35<311 407.5> 576 60<461.5 480.5> 614 60<285 307>
VStem: 84 97<115.5 183 93.5 212> 460 97<326.5 393>
LayerCount: 2
Fore
SplineSet
205 576 m 1x20
 225 616 253 674 317 674 c 0x10
 341 674 369 665 396 655 c 0
 424 646 451 636 472 636 c 0
 500 636 512 647 540 682 c 1
 560 671 l 1
 531 614 505 576 456 576 c 0x20
 434 576 405 586 376 595 c 0
 347 605 318 614 296 614 c 0x10
 263 614 246 598 224 563 c 1
 205 576 l 1x20
84 169 m 0xcc
 84 255 141 502 378 502 c 0
 459 502 557 465 557 327 c 0
 557 273 540 188 494 116 c 0
 447 42 377 -12 268 -12 c 0
 142 -12 84 62 84 169 c 0xcc
181 129 m 0
 181 58 213 23 271 23 c 0
 408 23 460 291 460 362 c 0
 460 424 438 467 377 467 c 0
 245 467 181 237 181 129 c 0
EndSplineSet
EndChar

StartChar: odieresis
Encoding: 340 246 182
Width: 537
Flags: MW
HStem: -12 35<242 322.5> 467 35<311 407.5> 572 110<294.5 318.5 502.5 526.5>
VStem: 84 97<115.5 183 93.5 212> 252 107<616 639> 460 97<326.5 393> 460 107<616 639>
LayerCount: 2
Fore
SplineSet
460 621 m 0x2a
 460 657 486 682 519 682 c 0
 549 682 567 658 567 633 c 0
 567 599 544 572 509 572 c 0
 477 572 460 592 460 621 c 0x2a
252 621 m 0
 252 657 278 682 311 682 c 0
 341 682 359 658 359 633 c 0
 359 599 336 572 301 572 c 0
 269 572 252 592 252 621 c 0
84 169 m 0xd4
 84 255 141 502 378 502 c 0
 459 502 557 465 557 327 c 0
 557 273 540 188 494 116 c 0
 447 42 377 -12 268 -12 c 0
 142 -12 84 62 84 169 c 0xd4
181 129 m 0
 181 58 213 23 271 23 c 0
 408 23 460 291 460 362 c 0
 460 424 438 467 377 467 c 0
 245 467 181 237 181 129 c 0
EndSplineSet
EndChar

StartChar: divide
Encoding: 341 247 183
Width: 570
Flags: MW
HStem: 26 118<318 351> 221 58<93 577 93 577> 356 118<318 351>
VStem: 93 484<221 279 221 279> 275 117<69 101.5 399 431.5>
CounterMasks: 1 e0
LayerCount: 2
Fore
SplineSet
275 86 m 0xe8
 275 117 301 144 335 144 c 0
 367 144 392 117 392 86 c 0
 392 52 367 26 335 26 c 0
 301 26 275 52 275 86 c 0xe8
275 416 m 0
 275 447 301 474 335 474 c 0
 367 474 392 447 392 416 c 0
 392 382 367 356 335 356 c 0
 301 356 275 382 275 416 c 0
93 221 m 1x50
 93 279 l 1
 577 279 l 1
 577 221 l 1
 93 221 l 1x50
EndSplineSet
EndChar

StartChar: oslash
Encoding: 342 248 184
Width: 537
Flags: MW
HStem: -12 35<253 322.5> 467 35<308.5 393.5>
VStem: 84 92<143 183 124 212> 465 92<326.5 357.5 300 368>
LayerCount: 2
Fore
SplineSet
84 169 m 0
 84 255 141 502 378 502 c 0
 411 502 447 496 477 479 c 1
 517 529 l 1
 546 504 l 1
 508 456 l 1
 538 429 557 388 557 327 c 0
 557 273 540 188 494 116 c 0
 447 42 377 -12 268 -12 c 0
 223 -12 186 -2 159 16 c 1
 115 -39 l 1
 88 -12 l 1
 129 39 l 1
 99 71 84 117 84 169 c 0
176 129 m 0
 176 119 178 110 179 102 c 1
 445 438 l 1
 431 457 410 467 377 467 c 0
 240 467 176 237 176 129 c 0
194 60 m 1
 209 35 235 23 271 23 c 0
 413 23 465 291 465 362 c 0
 465 374 463 386 461 396 c 1
 194 60 l 1
EndSplineSet
EndChar

StartChar: ugrave
Encoding: 343 249 185
Width: 618
Flags: MW
HStem: -12 52<232 249> 450 52 542 181<281.5 457>
VStem: 124 92 250 222<562 690> 423 88
LayerCount: 2
Fore
SplineSet
126 450 m 1xd4
 132 474 l 1
 314 502 l 1
 319 497 l 1
 223 128 l 2
 208 70 216 40 248 40 c 0
 331 40 418 173 462 274 c 0
 488 335 504 388 533 490 c 1
 622 502 l 1
 515 94 l 2
 507 63 507 40 528 40 c 0
 556 40 600 112 620 146 c 1
 644 131 l 1
 609 57 549 -12 477 -12 c 0
 424 -12 412 29 431 96 c 2
 464 210 l 1
 462 210 l 1
 402 94 297 -12 201 -12 c 0
 121 -12 113 53 134 133 c 2
 203 397 l 2
 211 428 212 443 188 445 c 2
 126 450 l 1xd4
250 680 m 0x28
 250 700 274 723 289 723 c 0
 306 723 323 713 353 682 c 2
 472 562 l 1
 457 542 l 1
 306 626 l 2
 276 642 250 659 250 680 c 0x28
EndSplineSet
EndChar

StartChar: uacute
Encoding: 344 250 186
Width: 618
Flags: MW
HStem: -12 52<232 249> 450 52 542 181<378 553.5>
VStem: 124 92 363 222<562 690> 423 88
LayerCount: 2
Fore
SplineSet
363 562 m 1x28
 482 682 l 2
 512 713 529 723 546 723 c 0
 561 723 585 700 585 680 c 0
 585 659 559 642 529 626 c 2
 378 542 l 1
 363 562 l 1x28
126 450 m 1xd4
 132 474 l 1
 314 502 l 1
 319 497 l 1
 223 128 l 2
 208 70 216 40 248 40 c 0
 331 40 418 173 462 274 c 0
 488 335 504 388 533 490 c 1
 622 502 l 1
 515 94 l 2
 507 63 507 40 528 40 c 0
 556 40 600 112 620 146 c 1
 644 131 l 1
 609 57 549 -12 477 -12 c 0
 424 -12 412 29 431 96 c 2
 464 210 l 1
 462 210 l 1
 402 94 297 -12 201 -12 c 0
 121 -12 113 53 134 133 c 2
 203 397 l 2
 211 428 212 443 188 445 c 2
 126 450 l 1xd4
EndSplineSet
EndChar

StartChar: ucircumflex
Encoding: 345 251 187
Width: 618
Flags: MW
HStem: -12 52<232 249> 450 52 546 174<285 454.5 443 545>
VStem: 124 92 271 297<567 567> 423 88
LayerCount: 2
Fore
SplineSet
271 567 m 1x28
 409 696 l 2
 424 709 437 720 449 720 c 0
 460 720 470 708 479 696 c 2
 568 567 l 1
 545 546 l 1
 460 621 l 2
 450 629 441 636 432 636 c 0
 425 636 412 629 400 621 c 2
 285 546 l 1
 271 567 l 1x28
126 450 m 1xd4
 132 474 l 1
 314 502 l 1
 319 497 l 1
 223 128 l 2
 208 70 216 40 248 40 c 0
 331 40 418 173 462 274 c 0
 488 335 504 388 533 490 c 1
 622 502 l 1
 515 94 l 2
 507 63 507 40 528 40 c 0
 556 40 600 112 620 146 c 1
 644 131 l 1
 609 57 549 -12 477 -12 c 0
 424 -12 412 29 431 96 c 2
 464 210 l 1
 462 210 l 1
 402 94 297 -12 201 -12 c 0
 121 -12 113 53 134 133 c 2
 203 397 l 2
 211 428 212 443 188 445 c 2
 126 450 l 1xd4
EndSplineSet
EndChar

StartChar: udieresis
Encoding: 346 252 188
Width: 618
Flags: MW
HStem: -12 52<232 249> 450 52 572 110<322.5 346.5 530.5 554.5>
VStem: 124 92 280 107<616 639> 423 88 488 107<616 639>
LayerCount: 2
Fore
SplineSet
488 621 m 0x2a
 488 657 514 682 547 682 c 0
 577 682 595 658 595 633 c 0
 595 599 572 572 537 572 c 0
 505 572 488 592 488 621 c 0x2a
280 621 m 0
 280 657 306 682 339 682 c 0
 369 682 387 658 387 633 c 0
 387 599 364 572 329 572 c 0
 297 572 280 592 280 621 c 0
126 450 m 1xd4
 132 474 l 1
 314 502 l 1
 319 497 l 1
 223 128 l 2
 208 70 216 40 248 40 c 0
 331 40 418 173 462 274 c 0
 488 335 504 388 533 490 c 1
 622 502 l 1
 515 94 l 2
 507 63 507 40 528 40 c 0
 556 40 600 112 620 146 c 1
 644 131 l 1
 609 57 549 -12 477 -12 c 0
 424 -12 412 29 431 96 c 2
 464 210 l 1
 462 210 l 1
 402 94 297 -12 201 -12 c 0
 121 -12 113 53 134 133 c 2
 203 397 l 2
 211 428 212 443 188 445 c 2
 126 450 l 1xd4
EndSplineSet
EndChar

StartChar: yacute
Encoding: 347 253 189
Width: 468
Flags: MW
HStem: -242 60<46 132> 482 20G<239 239 512.5 525.5>
VStem: 210 77<-2 61> 444 96
LayerCount: 2
Fore
SplineSet
303 562 m 1
 422 682 l 2
 452 713 469 723 486 723 c 0
 501 723 525 700 525 680 c 0
 525 659 499 642 469 626 c 2
 318 542 l 1
 303 562 l 1
-5 -187 m 0
 -5 -158 20 -128 46 -127 c 0
 61 -127 69 -135 81 -151 c 0
 96 -171 107 -182 122 -182 c 0
 142 -182 168 -153 186 -111 c 0
 208 -58 210 -17 210 13 c 0
 210 93 188 285 177 363 c 0
 169 415 164 432 142 431 c 2
 74 429 l 1
 71 454 l 1
 239 502 l 1
 247 498 l 1
 261 425 280 214 287 61 c 1
 290 61 l 1
 356 175 415 283 431 339 c 0
 443 381 445 442 444 477 c 1
 469 494 503 502 522 502 c 0
 529 502 540 481 540 446 c 0
 540 406 477 309 420 215 c 0
 358 113 298 7 278 -27 c 0
 190 -179 153 -242 68 -242 c 0
 24 -242 -5 -214 -5 -187 c 0
EndSplineSet
EndChar

StartChar: thorn
Encoding: 348 254 190
Width: 584
Flags: MW
HStem: -242 21G<51 51> -12 35<277 375 273.5 425.5> 450 52<465.5 480> 648 24<154 160> 680 20G<341 341>
VStem: 516 99<330 393.5>
LayerCount: 2
Fore
SplineSet
51 -242 m 1
 234 595 l 2
 241 626 240 641 216 643 c 2
 154 648 l 1
 160 672 l 1
 341 700 l 1
 346 695 l 1
 249 286 l 1
 252 286 l 1
 328 429 427 502 504 502 c 0
 578 502 615 455 615 368 c 0
 615 292 548 -12 303 -12 c 0
 251 -12 216 -3 195 10 c 1
 140 -230 l 1
 51 -242 l 1
205 53 m 1
 227 34 254 23 293 23 c 0
 457 23 516 288 516 367 c 0
 516 420 498 450 462 450 c 0
 405 450 332 370 284 286 c 0
 246 219 218 117 205 53 c 1
EndSplineSet
EndChar

StartChar: ydieresis
Encoding: 349 255 191
Width: 468
Flags: MW
HStem: -242 60<46 132> 482 20<239 239 512.5 525.5> 572 110<283.5 307.5 491.5 515.5>
VStem: 210 77<-2 61> 241 107<616 639> 444 96 449 107<616 639>
LayerCount: 2
Fore
SplineSet
449 621 m 0x2a
 449 657 475 682 508 682 c 0
 538 682 556 658 556 633 c 0
 556 599 533 572 498 572 c 0
 466 572 449 592 449 621 c 0x2a
241 621 m 0
 241 657 267 682 300 682 c 0
 330 682 348 658 348 633 c 0
 348 599 325 572 290 572 c 0
 258 572 241 592 241 621 c 0
-5 -187 m 0xd4
 -5 -158 20 -128 46 -127 c 0
 61 -127 69 -135 81 -151 c 0
 96 -171 107 -182 122 -182 c 0
 142 -182 168 -153 186 -111 c 0
 208 -58 210 -17 210 13 c 0
 210 93 188 285 177 363 c 0
 169 415 164 432 142 431 c 2
 74 429 l 1
 71 454 l 1
 239 502 l 1
 247 498 l 1
 261 425 280 214 287 61 c 1
 290 61 l 1
 356 175 415 283 431 339 c 0
 443 381 445 442 444 477 c 1
 469 494 503 502 522 502 c 0
 529 502 540 481 540 446 c 0
 540 406 477 309 420 215 c 0
 358 113 298 7 278 -27 c 0
 190 -179 153 -242 68 -242 c 0
 24 -242 -5 -214 -5 -187 c 0xd4
EndSplineSet
EndChar

StartChar: Amacron
Encoding: 350 256 192
Width: 624
Flags: MW
HStem: 0 29<-23 -17 -17 -17 -17 202> 267 38<263 462 263 467 243 462> 672 20<435 506 506 506> 759 59<333 653 347 639>
VStem: 333 320<759 818>
LayerCount: 2
Fore
SplineSet
333 759 m 1
 347 818 l 1
 653 818 l 1
 639 759 l 1
 333 759 l 1
-23 0 m 1
 -17 29 l 1
 16 33 l 2
 47 36 64 47 96 99 c 0
 133 159 216 308 267 397 c 2
 435 692 l 1
 506 692 l 1
 580 90 l 2
 585 49 589 35 620 32 c 2
 658 29 l 1
 652 0 l 1
 406 0 l 1
 412 29 l 1
 465 34 l 2
 485 36 493 44 490 73 c 2
 467 267 l 1
 243 267 l 1
 206 200 173 135 140 71 c 0
 131 50 133 36 153 34 c 2
 208 29 l 1
 202 0 l 1
 -23 0 l 1
263 305 m 1
 462 305 l 1
 427 599 l 1
 425 599 l 1
 371 502 316 404 263 305 c 1
EndSplineSet
EndChar

StartChar: amacron
Encoding: 351 257 193
Width: 561
Flags: MW
HStem: -12 52<192.5 215.5> 467 35<341.5 431.5 299 432> 474 20<496 580 580 580> 597 59<299 595 317 577>
VStem: 66 99<90.5 165 90.5 173> 299 296<597 656>
LayerCount: 2
Fore
SplineSet
299 597 m 1x14
 317 656 l 1
 595 656 l 1
 577 597 l 1
 299 597 l 1x14
66 107 m 0xa8
 66 239 180 502 418 502 c 0xc8
 445 502 474 493 491 481 c 1
 496 494 l 1
 580 494 l 1
 474 95 l 2
 465 63 464 40 484 40 c 0
 512 40 556 111 574 146 c 1
 598 132 l 1
 564 56 508 -12 432 -12 c 0
 378 -12 367 29 388 100 c 2
 422 214 l 1
 420 214 l 1
 362 112 269 -12 162 -12 c 0
 94 -12 66 47 66 107 c 0xa8
165 110 m 0
 165 71 176 40 209 40 c 0
 257 40 318 107 374 192 c 0
 427 272 463 371 481 445 c 1
 466 459 444 467 420 467 c 0
 263 467 165 220 165 110 c 0
EndSplineSet
EndChar

StartChar: Abreve
Encoding: 352 258 194
Width: 624
Flags: MW
HStem: 0 29<-23 -17 -17 -17 -17 202> 267 38<263 462 263 467 243 462> 672 20<435 506 506 506> 749 59<452.5 543>
VStem: 365 28<870 870> 631 28<870 870>
LayerCount: 2
Fore
SplineSet
-23 0 m 1
 -17 29 l 1
 16 33 l 2
 47 36 64 47 96 99 c 0
 133 159 216 308 267 397 c 2
 435 692 l 1
 506 692 l 1
 580 90 l 2
 585 49 589 35 620 32 c 2
 658 29 l 1
 652 0 l 1
 406 0 l 1
 412 29 l 1
 465 34 l 2
 485 36 493 44 490 73 c 2
 467 267 l 1
 243 267 l 1
 206 200 173 135 140 71 c 0
 131 50 133 36 153 34 c 2
 208 29 l 1
 202 0 l 1
 -23 0 l 1
263 305 m 1
 462 305 l 1
 427 599 l 1
 425 599 l 1
 371 502 316 404 263 305 c 1
365 870 m 1
 393 870 l 1
 390 851 407 808 498 808 c 0
 589 808 624 851 631 870 c 1
 659 870 l 1
 646 814 602 749 484 749 c 0
 366 749 352 814 365 870 c 1
EndSplineSet
EndChar

StartChar: abreve
Encoding: 353 259 195
Width: 561
Flags: MW
HStem: -12 52<192.5 215.5> 467 35<341.5 431.5 299 432> 474 20<496 580 580 580> 568 62<401 486.5> 678 20<333 357 357 357 570 596 596 596>
VStem: 66 99<90.5 165 90.5 173> 322 274<615.5 698>
LayerCount: 2
Fore
SplineSet
322 646 m 0x1a
 322 661 326 682 333 698 c 1
 357 698 l 1
 355 678 357 630 445 630 c 0
 534 630 559 678 570 698 c 1
 596 698 l 1
 580 629 546 568 427 568 c 0
 370 568 322 585 322 646 c 0x1a
66 107 m 0xa4
 66 239 180 502 418 502 c 0xc4
 445 502 474 493 491 481 c 1
 496 494 l 1
 580 494 l 1
 474 95 l 2
 465 63 464 40 484 40 c 0
 512 40 556 111 574 146 c 1
 598 132 l 1
 564 56 508 -12 432 -12 c 0
 378 -12 367 29 388 100 c 2
 422 214 l 1
 420 214 l 1
 362 112 269 -12 162 -12 c 0
 94 -12 66 47 66 107 c 0xa4
165 110 m 0
 165 71 176 40 209 40 c 0
 257 40 318 107 374 192 c 0
 427 272 463 371 481 445 c 1
 466 459 444 467 420 467 c 0
 263 467 165 220 165 110 c 0
EndSplineSet
EndChar

StartChar: Aogonek
Encoding: 354 260 196
Width: 624
Flags: MW
HStem: -230 46<457.5 538.5> 0 29<-23 -17 -17 -17 -17 202> 267 38<263 462 263 467 243 462> 672 20G<435 506 506 506>
VStem: 406 71<-154 -121.5>
LayerCount: 2
Fore
SplineSet
-23 0 m 1
 -17 29 l 1
 16 33 l 2
 47 36 64 47 96 99 c 0
 133 159 216 308 267 397 c 2
 435 692 l 1
 506 692 l 1
 580 90 l 2
 585 49 589 35 620 32 c 2
 658 29 l 1
 652 0 l 1
 559 0 l 1
 511 -38 477 -81 477 -137 c 0
 477 -171 500 -184 530 -184 c 0
 547 -184 563 -182 583 -172 c 1
 591 -193 l 1
 561 -222 527 -230 498 -230 c 0
 417 -230 406 -173 406 -152 c 0
 406 -91 459 -36 517 0 c 1
 406 0 l 1
 412 29 l 1
 465 34 l 2
 485 36 493 44 490 73 c 2
 467 267 l 1
 243 267 l 1
 140 71 l 2
 131 50 133 36 153 34 c 2
 208 29 l 1
 202 0 l 1
 -23 0 l 1
263 305 m 1
 462 305 l 1
 427 599 l 1
 425 599 l 1
 263 305 l 1
EndSplineSet
Ligature2: "'liga' Standard Ligatures in Latin lookup 4 subtable" A uni0328
EndChar

StartChar: aogonek
Encoding: 355 261 197
Width: 561
Flags: MW
HStem: -230 46<343.5 424.5> -12 52<192.5 215.5> 467 35<341.5 431.5 299 432> 474 20G<496 580 580 580>
VStem: 66 99<90.5 165 90.5 173> 292 71<-154 -122.5>
LayerCount: 2
Fore
SplineSet
66 107 m 0xdc
 66 239 180 502 418 502 c 0xec
 445 502 474 493 491 481 c 1
 496 494 l 1
 580 494 l 1
 474 95 l 2
 465 63 464 40 484 40 c 0
 512 40 556 111 574 146 c 1
 598 132 l 1
 564 56 519 2 439 -16 c 0
 404 -24 363 -81 363 -137 c 0
 363 -171 386 -184 416 -184 c 0
 433 -184 449 -182 469 -172 c 1
 477 -193 l 1
 447 -222 413 -230 384 -230 c 0
 303 -230 292 -173 292 -152 c 0
 292 -93 343 -37 401 -5 c 1
 374 9 373 48 388 100 c 2
 422 214 l 1
 420 214 l 1
 362 112 269 -12 162 -12 c 0
 94 -12 66 47 66 107 c 0xdc
165 110 m 0
 165 71 176 40 209 40 c 0
 257 40 318 107 374 192 c 0
 427 272 463 371 481 445 c 1
 466 459 444 467 420 467 c 0
 263 467 165 220 165 110 c 0
EndSplineSet
EndChar

StartChar: Cacute
Encoding: 356 262 198
Width: 661
Flags: MW
HStem: -15 35<362 462.5> 672 35<475.5 572 443 591.5> 742 149
VStem: 114 107<209 294 172 309.5> 488 242<764 848.5> 692 30<504 504>
LayerCount: 2
Fore
SplineSet
488 764 m 1x28
 633 863 l 2
 663 883 677 891 691 891 c 0
 716 891 730 856 730 841 c 0
 730 817 708 810 669 798 c 2
 499 742 l 1
 488 764 l 1x28
114 275 m 0xd4
 114 344 127 436 182 525 c 0
 240 619 349 707 537 707 c 0
 607 707 701 690 758 654 c 1
 722 504 l 1
 692 504 l 1
 697 613 654 672 529 672 c 0
 422 672 343 614 293 530 c 0
 245 450 221 339 221 249 c 0
 221 95 304 20 420 20 c 0
 543 20 594 86 649 186 c 1
 679 186 l 1
 630 27 l 1
 566 -5 498 -15 427 -15 c 0
 179 -15 114 143 114 275 c 0xd4
EndSplineSet
EndChar

StartChar: cacute
Encoding: 357 263 199
Width: 441
Flags: MW
HStem: -12 49<231.5 261> 467 35<301 363> 542 181<326 501.5>
VStem: 81 99<132.5 230> 311 222<562 690>
LayerCount: 2
Fore
SplineSet
311 562 m 1
 430 682 l 2
 460 713 477 723 494 723 c 0
 509 723 533 700 533 680 c 0
 533 659 507 642 477 626 c 2
 326 542 l 1
 311 562 l 1
81 148 m 0
 81 312 193 502 371 502 c 0
 446 502 500 464 500 413 c 0
 500 380 460 357 436 357 c 0
 418 357 409 369 407 387 c 0
 401 447 379 467 347 467 c 0
 255 467 180 298 180 168 c 0
 180 97 195 37 268 37 c 0
 335 37 394 108 428 154 c 1
 452 135 l 1
 383 20 298 -12 224 -12 c 0
 154 -12 81 26 81 148 c 0
EndSplineSet
EndChar

StartChar: Ccircumflex
Encoding: 358 264 200
Width: 661
Flags: MW
HStem: -15 35<362 462.5> 672 35<475.5 572 443 591.5> 797 79<554 580>
VStem: 114 107<209 294 172 309.5> 392 306<741 742> 692 30<504 504>
LayerCount: 2
Fore
SplineSet
392 742 m 1x28
 532 853 l 2
 550 868 561 876 574 876 c 0
 586 876 596 865 607 851 c 2
 698 741 l 1
 680 722 l 1
 590 781 l 2
 578 790 567 797 558 797 c 0
 550 797 535 790 522 783 c 2
 405 722 l 1
 392 742 l 1x28
114 275 m 0xd4
 114 344 127 436 182 525 c 0
 240 619 349 707 537 707 c 0
 607 707 701 690 758 654 c 1
 722 504 l 1
 692 504 l 1
 697 613 654 672 529 672 c 0
 422 672 343 614 293 530 c 0
 245 450 221 339 221 249 c 0
 221 95 304 20 420 20 c 0
 543 20 594 86 649 186 c 1
 679 186 l 1
 630 27 l 1
 566 -5 498 -15 427 -15 c 0
 179 -15 114 143 114 275 c 0xd4
EndSplineSet
EndChar

StartChar: ccircumflex
Encoding: 359 265 201
Width: 441
Flags: MW
HStem: -12 49<231.5 261> 467 35<301 363> 546 174<252 421.5 410 512>
VStem: 81 99<132.5 230> 238 297<567 567>
LayerCount: 2
Fore
SplineSet
238 567 m 1
 376 696 l 2
 391 709 404 720 416 720 c 0
 427 720 437 708 446 696 c 2
 535 567 l 1
 512 546 l 1
 427 621 l 2
 417 629 408 636 399 636 c 0
 392 636 379 629 367 621 c 2
 252 546 l 1
 238 567 l 1
81 148 m 0
 81 312 193 502 371 502 c 0
 446 502 500 464 500 413 c 0
 500 380 460 357 436 357 c 0
 418 357 409 369 407 387 c 0
 401 447 379 467 347 467 c 0
 255 467 180 298 180 168 c 0
 180 97 195 37 268 37 c 0
 335 37 394 108 428 154 c 1
 452 135 l 1
 383 20 298 -12 224 -12 c 0
 154 -12 81 26 81 148 c 0
EndSplineSet
EndChar

StartChar: Cdotaccent
Encoding: 360 266 202
Width: 661
Flags: MW
HStem: -15 35<362 462.5> 672 35<475.5 572 443 591.5> 738 110<545.5 569.5>
VStem: 114 107<209 294 172 309.5> 503 107<782 805> 692 30<504 504>
LayerCount: 2
Fore
SplineSet
503 787 m 0
 503 823 529 848 562 848 c 0
 592 848 610 824 610 799 c 0
 610 765 587 738 552 738 c 0
 520 738 503 758 503 787 c 0
114 275 m 0
 114 344 127 436 182 525 c 0
 240 619 349 707 537 707 c 0
 607 707 701 690 758 654 c 1
 722 504 l 1
 692 504 l 1
 697 613 654 672 529 672 c 0
 422 672 343 614 293 530 c 0
 245 450 221 339 221 249 c 0
 221 95 304 20 420 20 c 0
 543 20 594 86 649 186 c 1
 679 186 l 1
 630 27 l 1
 566 -5 498 -15 427 -15 c 0
 179 -15 114 143 114 275 c 0
EndSplineSet
EndChar

StartChar: cdotaccent
Encoding: 361 267 203
Width: 441
Flags: MW
HStem: -12 49<231.5 261> 467 35<301 363> 570 110<388.5 412.5>
VStem: 81 99<132.5 230> 346 107<614 637>
LayerCount: 2
Fore
SplineSet
346 619 m 0
 346 655 372 680 405 680 c 0
 435 680 453 656 453 631 c 0
 453 597 430 570 395 570 c 0
 363 570 346 590 346 619 c 0
81 148 m 0
 81 312 193 502 371 502 c 0
 446 502 500 464 500 413 c 0
 500 380 460 357 436 357 c 0
 418 357 409 369 407 387 c 0
 401 447 379 467 347 467 c 0
 255 467 180 298 180 168 c 0
 180 97 195 37 268 37 c 0
 335 37 394 108 428 154 c 1
 452 135 l 1
 383 20 298 -12 224 -12 c 0
 154 -12 81 26 81 148 c 0
EndSplineSet
EndChar

StartChar: Ccaron
Encoding: 362 268 204
Width: 661
Flags: MW
HStem: -15 35<362 462.5> 672 35<475.5 572 443 591.5> 734 79<539 565>
VStem: 114 107<209 294 172 309.5> 421 306<868 869> 692 30<504 504>
LayerCount: 2
Fore
SplineSet
421 869 m 1x28
 439 888 l 1
 529 828 l 2
 541 820 552 813 561 813 c 0
 569 813 584 820 597 827 c 2
 714 888 l 1
 727 868 l 1
 587 757 l 2
 569 742 558 734 545 734 c 0
 533 734 523 745 512 759 c 2
 421 869 l 1x28
114 275 m 0xd4
 114 344 127 436 182 525 c 0
 240 619 349 707 537 707 c 0
 607 707 701 690 758 654 c 1
 722 504 l 1
 692 504 l 1
 697 613 654 672 529 672 c 0
 422 672 343 614 293 530 c 0
 245 450 221 339 221 249 c 0
 221 95 304 20 420 20 c 0
 543 20 594 86 649 186 c 1
 679 186 l 1
 630 27 l 1
 566 -5 498 -15 427 -15 c 0
 179 -15 114 143 114 275 c 0xd4
EndSplineSet
EndChar

StartChar: ccaron
Encoding: 363 269 205
Width: 441
Flags: MW
HStem: -12 49<231.5 261> 467 35<301 363> 557 174<287 389>
VStem: 81 99<132.5 230> 264 297<710 710>
LayerCount: 2
Fore
SplineSet
264 710 m 1
 287 731 l 1
 372 656 l 2
 382 648 391 641 400 641 c 0
 407 641 420 648 432 656 c 2
 547 731 l 1
 561 710 l 1
 423 581 l 2
 408 568 395 557 383 557 c 0
 372 557 362 569 353 581 c 2
 264 710 l 1
81 148 m 0
 81 312 193 502 371 502 c 0
 446 502 500 464 500 413 c 0
 500 380 460 357 436 357 c 0
 418 357 409 369 407 387 c 0
 401 447 379 467 347 467 c 0
 255 467 180 298 180 168 c 0
 180 97 195 37 268 37 c 0
 335 37 394 108 428 154 c 1
 452 135 l 1
 383 20 298 -12 224 -12 c 0
 154 -12 81 26 81 148 c 0
EndSplineSet
EndChar

StartChar: Dcaron
Encoding: 364 270 206
Width: 763
Flags: MW
HStem: 0 35<102 102 293.5 347> 657 35<425.5 457 457 469> 734 79<524 550>
VStem: 406 306<868 869> 695 107<390 451.5 381 473>
LayerCount: 2
Fore
SplineSet
406 869 m 1x30
 424 888 l 1
 514 828 l 2
 526 820 537 813 546 813 c 0
 554 813 569 820 582 827 c 2
 699 888 l 1
 712 868 l 1
 572 757 l 2
 554 742 543 734 530 734 c 0
 518 734 508 745 497 759 c 2
 406 869 l 1x30
40 0 m 1xc8
 46 29 l 1
 102 35 l 2
 126 37 136 50 143 83 c 2
 262 609 l 2
 269 642 264 656 241 658 c 2
 182 663 l 1
 188 692 l 1
 457 692 l 2
 568 692 658 669 716 620 c 0
 773 572 802 492 802 411 c 0
 802 351 792 267 735 181 c 0
 663 72 547 0 347 0 c 2
 40 0 l 1xc8
239 86 m 2
 229 42 266 35 321 35 c 0
 487 35 573 97 630 191 c 0
 675 265 695 347 695 433 c 0
 695 513 677 653 469 657 c 0
 382 657 368 654 360 620 c 2
 239 86 l 2
EndSplineSet
EndChar

StartChar: dcaron
Encoding: 365 271 207
Width: 607
Flags: MW
HStem: -12 52<205 229.5> 467 35<338 429 295.5 433.5> 552 238<674 754.5> 695 47
VStem: 72 99<89.5 166 89.5 180.5> 710 82<656 745.5>
LayerCount: 2
Fore
SplineSet
682 733 m 0x24
 682 765 706 790 738 790 c 0
 771 790 792 764 792 727 c 0
 792 656 741 602 674 552 c 1
 659 569 l 1
 692 600 710 646 710 666 c 0
 710 695 682 704 682 733 c 0x24
72 120 m 0xd8
 72 241 179 502 412 502 c 0
 446 502 477 495 496 485 c 1
 498 487 l 1
 536 648 l 2
 544 680 542 687 518 689 c 2
 458 695 l 1
 464 718 l 1
 642 742 l 1
 647 737 l 1
 489 95 l 2
 481 63 479 40 499 40 c 0
 527 40 571 111 589 146 c 1
 613 132 l 1
 579 56 523 -12 450 -12 c 0
 399 -13 384 28 404 99 c 2
 437 218 l 1
 435 218 l 1
 376 111 287 -12 172 -12 c 0
 91 -12 72 55 72 120 c 0xd8
171 112 m 0
 171 67 189 40 221 40 c 0
 274 40 340 115 388 193 c 0
 439 276 472 370 487 447 c 1
 475 458 449 467 418 467 c 0
 258 467 171 220 171 112 c 0
EndSplineSet
EndChar

StartChar: Dcroat
Encoding: 366 272 208
Width: 763
Flags: MW
HStem: 0 35<102 102 293.5 347> 323 59<131 197 117 211 306 395> 657 35<425.5 457 457 469>
VStem: 695 107<390 451.5 381 473>
LayerCount: 2
Fore
SplineSet
40 0 m 1
 46 29 l 1
 102 35 l 2
 126 37 136 50 143 83 c 2
 197 323 l 1
 117 323 l 1
 131 382 l 1
 211 382 l 1
 262 609 l 2
 269 642 264 656 241 658 c 2
 182 663 l 1
 188 692 l 1
 457 692 l 2
 568 692 658 669 716 620 c 0
 773 572 802 492 802 411 c 0
 802 351 792 267 735 181 c 0
 663 72 547 0 347 0 c 2
 40 0 l 1
321 35 m 0
 487 35 573 97 630 191 c 0
 675 265 695 347 695 433 c 0
 695 513 677 653 469 657 c 0
 382 657 368 654 360 620 c 2
 306 382 l 1
 409 382 l 1
 395 323 l 1
 292 323 l 1
 239 86 l 2
 229 42 266 35 321 35 c 0
EndSplineSet
EndChar

StartChar: dcroat
Encoding: 367 273 209
Width: 587
Flags: MW
HStem: -12 52<205 229.5> 467 35<338 429 295.5 433.5> 582 59<418 520 404 534 623 682> 695 23<458 464> 722 20G<642 642>
VStem: 72 99<89.5 166 89.5 180.5>
LayerCount: 2
Fore
SplineSet
72 120 m 0
 72 241 179 502 412 502 c 0
 446 502 477 495 496 485 c 1
 498 487 l 1
 520 582 l 1
 404 582 l 1
 418 641 l 1
 534 641 l 1
 536 648 l 2
 544 680 542 687 518 689 c 2
 458 695 l 1
 464 718 l 1
 642 742 l 1
 647 737 l 1
 623 641 l 1
 696 641 l 1
 682 582 l 1
 609 582 l 1
 489 95 l 2
 481 63 479 40 499 40 c 0
 527 40 571 111 589 146 c 1
 613 132 l 1
 579 56 523 -12 450 -12 c 0
 399 -13 384 28 404 99 c 2
 437 218 l 1
 435 218 l 1
 376 111 287 -12 172 -12 c 0
 91 -12 72 55 72 120 c 0
171 112 m 0
 171 67 189 40 221 40 c 0
 274 40 340 115 388 193 c 0
 439 276 472 370 487 447 c 1
 475 458 449 467 418 467 c 0
 258 467 171 220 171 112 c 0
EndSplineSet
EndChar

StartChar: Emacron
Encoding: 368 274 210
Width: 596
Flags: MW
HStem: 0 35<100 100 337.5 423.5> 341 38<304 427 296 435> 657 35<380.5 389 389 510> 759 59<320 640 334 626>
VStem: 320 320<759 818> 514 30<255 255> 560 30<464 464> 581 30<176 176> 624 30<525 525>
LayerCount: 2
Fore
SplineSet
320 759 m 1x18
 334 818 l 1
 640 818 l 1
 626 759 l 1
 320 759 l 1x18
38 0 m 1xe680
 44 29 l 1
 100 35 l 2
 124 37 133 49 141 83 c 2
 261 611 l 2
 269 645 262 657 239 659 c 2
 179 663 l 1
 186 692 l 1
 692 692 l 1
 654 525 l 1
 624 525 l 1
 633 615 636 657 510 657 c 2
 389 657 l 2
 372 657 366 652 361 628 c 2
 304 379 l 1
 435 379 l 2
 523 379 534 395 560 464 c 1
 590 464 l 1xe680
 544 255 l 1
 514 255 l 1
 518 320 515 341 427 341 c 2
 296 341 l 1
 245 122 l 2
 234 75 235 60 250 48 c 0
 263 38 313 35 362 35 c 0
 485 35 530 53 581 176 c 1
 611 176 l 1xe580
 560 0 l 1
 38 0 l 1xe680
EndSplineSet
EndChar

StartChar: emacron
Encoding: 369 275 211
Width: 453
Flags: MW
HStem: -12 49<235 265.5> 467 35<337 371.5> 597 59<263 559 281 541>
VStem: 80 99<136.5 178.5 136.5 194> 263 296<597 656> 412 94<388 425.5>
LayerCount: 2
Fore
SplineSet
263 597 m 1x28
 281 656 l 1
 559 656 l 1
 541 597 l 1
 263 597 l 1x28
80 152 m 0xd4
 80 236 110 323 163 388 c 0
 218 456 292 502 382 502 c 0
 464 502 506 455 506 402 c 0
 506 374 499 341 464 306 c 0
 421 266 348 226 180 192 c 1
 179 185 179 181 179 176 c 0
 179 97 200 37 270 37 c 0
 345 37 399 104 435 151 c 1
 458 131 l 1
 390 20 302 -12 229 -12 c 0
 171 -12 80 12 80 152 c 0xd4
182 226 m 1
 351 262 412 338 412 408 c 0
 412 443 389 467 354 467 c 0
 274 467 199 347 182 226 c 1
EndSplineSet
EndChar

StartChar: Ebreve
Encoding: 370 276 212
Width: 596
Flags: MW
HStem: 0 35<100 100 337.5 423.5> 341 38<304 427 296 435> 657 35<380.5 389 389 510> 749 59<439.5 530>
VStem: 352 28<870 870> 514 30<255 255> 560 30<464 464> 581 30<176 176> 618 28<870 870> 624 30<525 525>
LayerCount: 2
Fore
SplineSet
352 870 m 1x1880
 380 870 l 1
 377 851 394 808 485 808 c 0
 576 808 611 851 618 870 c 1
 646 870 l 1
 633 814 589 749 471 749 c 0
 353 749 339 814 352 870 c 1x1880
38 0 m 1xe640
 44 29 l 1
 100 35 l 2
 124 37 133 49 141 83 c 2
 261 611 l 2
 269 645 262 657 239 659 c 2
 179 663 l 1
 186 692 l 1
 692 692 l 1
 654 525 l 1
 624 525 l 1
 633 615 636 657 510 657 c 2
 389 657 l 2
 372 657 366 652 361 628 c 2
 304 379 l 1
 435 379 l 2
 523 379 534 395 560 464 c 1
 590 464 l 1xe640
 544 255 l 1
 514 255 l 1
 518 320 515 341 427 341 c 2
 296 341 l 1
 245 122 l 2
 234 75 235 60 250 48 c 0
 263 38 313 35 362 35 c 0
 485 35 530 53 581 176 c 1
 611 176 l 1xe540
 560 0 l 1
 38 0 l 1xe640
EndSplineSet
EndChar

StartChar: ebreve
Encoding: 371 277 213
Width: 453
Flags: MW
HStem: -12 49<235 265.5> 467 35<337 371.5> 568 62<365 450.5> 678 20<297 321 321 321 534 560 560 560>
VStem: 80 99<136.5 178.5 136.5 194> 286 274<615.5 698> 412 94<388 425.5>
LayerCount: 2
Fore
SplineSet
286 646 m 0x34
 286 661 290 682 297 698 c 1
 321 698 l 1
 319 678 321 630 409 630 c 0
 498 630 523 678 534 698 c 1
 560 698 l 1
 544 629 510 568 391 568 c 0
 334 568 286 585 286 646 c 0x34
80 152 m 0xca
 80 236 110 323 163 388 c 0
 218 456 292 502 382 502 c 0
 464 502 506 455 506 402 c 0
 506 374 499 341 464 306 c 0
 421 266 348 226 180 192 c 1
 179 185 179 181 179 176 c 0
 179 97 200 37 270 37 c 0
 345 37 399 104 435 151 c 1
 458 131 l 1
 390 20 302 -12 229 -12 c 0
 171 -12 80 12 80 152 c 0xca
182 226 m 1
 351 262 412 338 412 408 c 0
 412 443 389 467 354 467 c 0
 274 467 199 347 182 226 c 1
EndSplineSet
EndChar

StartChar: Edotaccent
Encoding: 372 278 214
Width: 596
Flags: MW
HStem: 0 35<100 100 337.5 423.5> 341 38<304 427 296 435> 657 35<380.5 389 389 510> 738 110<469.5 493.5>
VStem: 427 107<782 805> 514 30<255 255> 560 30<464 464> 581 30<176 176> 624 30<525 525>
LayerCount: 2
Fore
SplineSet
427 787 m 0x18
 427 823 453 848 486 848 c 0
 516 848 534 824 534 799 c 0
 534 765 511 738 476 738 c 0
 444 738 427 758 427 787 c 0x18
38 0 m 1xe680
 44 29 l 1
 100 35 l 2
 124 37 133 49 141 83 c 2
 261 611 l 2
 269 645 262 657 239 659 c 2
 179 663 l 1
 186 692 l 1
 692 692 l 1
 654 525 l 1
 624 525 l 1
 633 615 636 657 510 657 c 2
 389 657 l 2
 372 657 366 652 361 628 c 2
 304 379 l 1
 435 379 l 2
 523 379 534 395 560 464 c 1
 590 464 l 1xe680
 544 255 l 1
 514 255 l 1
 518 320 515 341 427 341 c 2
 296 341 l 1
 245 122 l 2
 234 75 235 60 250 48 c 0
 263 38 313 35 362 35 c 0
 485 35 530 53 581 176 c 1
 611 176 l 1xe580
 560 0 l 1
 38 0 l 1xe680
EndSplineSet
EndChar

StartChar: edotaccent
Encoding: 373 279 215
Width: 453
Flags: MW
HStem: -12 49<235 265.5> 467 35<337 371.5> 570 110<399.5 423.5>
VStem: 80 99<136.5 178.5 136.5 194> 357 107<614 637> 412 94<388 425.5>
LayerCount: 2
Fore
SplineSet
357 619 m 0x28
 357 655 383 680 416 680 c 0
 446 680 464 656 464 631 c 0
 464 597 441 570 406 570 c 0
 374 570 357 590 357 619 c 0x28
80 152 m 0xd4
 80 236 110 323 163 388 c 0
 218 456 292 502 382 502 c 0
 464 502 506 455 506 402 c 0
 506 374 499 341 464 306 c 0
 421 266 348 226 180 192 c 1
 179 185 179 181 179 176 c 0
 179 97 200 37 270 37 c 0
 345 37 399 104 435 151 c 1
 458 131 l 1
 390 20 302 -12 229 -12 c 0
 171 -12 80 12 80 152 c 0xd4
182 226 m 1
 351 262 412 338 412 408 c 0
 412 443 389 467 354 467 c 0
 274 467 199 347 182 226 c 1
EndSplineSet
EndChar

StartChar: Eogonek
Encoding: 374 280 216
Width: 596
Flags: MW
HStem: -230 46<384.5 465.5> 0 35<100 100 337.5 423.5> 341 38<304 427 296 435> 657 35<380.5 389 389 510>
VStem: 333 71<-154 -121.5> 514 30<255 255> 560 30<464 464> 624 30<525 525>
LayerCount: 2
Fore
SplineSet
38 0 m 1
 44 29 l 1
 100 35 l 2
 124 37 133 49 141 83 c 2
 261 611 l 2
 269 645 262 657 239 659 c 2
 179 663 l 1
 186 692 l 1
 692 692 l 1
 654 525 l 1
 624 525 l 1
 633 615 636 657 510 657 c 2
 389 657 l 2
 372 657 366 652 361 628 c 2
 304 379 l 1
 435 379 l 2
 523 379 534 395 560 464 c 1
 590 464 l 1
 544 255 l 1
 514 255 l 1
 518 320 515 341 427 341 c 2
 296 341 l 1
 245 122 l 2
 234 75 235 60 250 48 c 0
 263 38 313 35 362 35 c 0
 485 35 530 53 581 176 c 1
 611 176 l 1
 560 0 l 1
 486 0 l 1
 438 -38 404 -81 404 -137 c 0
 404 -171 427 -184 457 -184 c 0
 474 -184 490 -182 510 -172 c 1
 518 -193 l 1
 488 -222 454 -230 425 -230 c 0
 344 -230 333 -173 333 -152 c 0
 333 -91 386 -36 444 0 c 1
 38 0 l 1
EndSplineSet
EndChar

StartChar: eogonek
Encoding: 375 281 217
Width: 453
Flags: MW
HStem: -230 46<234.5 315.5> -12 49<235 240.5> 467 35<314 371.5>
VStem: 80 99<136.5 178.5 136.5 239> 183 71<-154 -122.5> 412 94<388 425.5>
LayerCount: 2
Fore
SplineSet
80 152 m 0
 80 326 209 502 382 502 c 0
 464 502 506 455 506 402 c 0
 506 374 499 341 464 306 c 0
 421 266 348 226 180 192 c 1
 179 185 179 181 179 176 c 0
 179 97 200 37 270 37 c 0
 345 37 399 104 435 151 c 1
 458 131 l 1
 413 60 385 46 348 15 c 0
 290 -33 254 -81 254 -137 c 0
 254 -171 277 -184 307 -184 c 0
 324 -184 340 -182 360 -172 c 1
 368 -193 l 1
 338 -222 304 -230 275 -230 c 0
 194 -230 183 -173 183 -152 c 0
 183 -93 229 -43 289 -4 c 1
 263 -10 252 -12 229 -12 c 0
 171 -12 80 12 80 152 c 0
182 226 m 1
 351 262 412 338 412 408 c 0
 412 443 389 467 354 467 c 0
 274 467 199 347 182 226 c 1
EndSplineSet
EndChar

StartChar: Ecaron
Encoding: 376 282 218
Width: 596
Flags: MW
HStem: 0 35<100 100 337.5 423.5> 341 38<304 427 296 435> 657 35<380.5 389 389 510> 734 79<463 489>
VStem: 345 306<868 869> 514 30<255 255> 560 30<464 464> 581 30<176 176> 624 30<525 525>
LayerCount: 2
Fore
SplineSet
345 869 m 1x18
 363 888 l 1
 453 828 l 2
 465 820 476 813 485 813 c 0
 493 813 508 820 521 827 c 2
 638 888 l 1
 651 868 l 1
 511 757 l 2
 493 742 482 734 469 734 c 0
 457 734 447 745 436 759 c 2
 345 869 l 1x18
38 0 m 1xe680
 44 29 l 1
 100 35 l 2
 124 37 133 49 141 83 c 2
 261 611 l 2
 269 645 262 657 239 659 c 2
 179 663 l 1
 186 692 l 1
 692 692 l 1
 654 525 l 1
 624 525 l 1
 633 615 636 657 510 657 c 2
 389 657 l 2
 372 657 366 652 361 628 c 2
 304 379 l 1
 435 379 l 2
 523 379 534 395 560 464 c 1
 590 464 l 1xe680
 544 255 l 1
 514 255 l 1
 518 320 515 341 427 341 c 2
 296 341 l 1
 245 122 l 2
 234 75 235 60 250 48 c 0
 263 38 313 35 362 35 c 0
 485 35 530 53 581 176 c 1
 611 176 l 1xe580
 560 0 l 1
 38 0 l 1xe680
EndSplineSet
EndChar

StartChar: ecaron
Encoding: 377 283 219
Width: 453
Flags: MW
HStem: -12 49<235 265.5> 467 35<337 371.5> 557 174<298 400>
VStem: 80 99<136.5 178.5 136.5 194> 275 297<710 710> 412 94<388 425.5>
LayerCount: 2
Fore
SplineSet
275 710 m 1x28
 298 731 l 1
 383 656 l 2
 393 648 402 641 411 641 c 0
 418 641 431 648 443 656 c 2
 558 731 l 1
 572 710 l 1
 434 581 l 2
 419 568 406 557 394 557 c 0
 383 557 373 569 364 581 c 2
 275 710 l 1x28
80 152 m 0xd4
 80 236 110 323 163 388 c 0
 218 456 292 502 382 502 c 0
 464 502 506 455 506 402 c 0
 506 374 499 341 464 306 c 0
 421 266 348 226 180 192 c 1
 179 185 179 181 179 176 c 0
 179 97 200 37 270 37 c 0
 345 37 399 104 435 151 c 1
 458 131 l 1
 390 20 302 -12 229 -12 c 0
 171 -12 80 12 80 152 c 0xd4
182 226 m 1
 351 262 412 338 412 408 c 0
 412 443 389 467 354 467 c 0
 274 467 199 347 182 226 c 1
EndSplineSet
EndChar

StartChar: Gcircumflex
Encoding: 378 284 220
Width: 709
Flags: MW
HStem: -15 35<385.5 468.5> 280 29<503 772 766 766> 672 35<466.5 585 466.5 615.5> 797 79<559 585>
VStem: 114 110<235 329> 397 306<741 742> 701 30<501 501>
LayerCount: 2
Fore
SplineSet
397 742 m 1x14
 537 853 l 2
 555 868 566 876 579 876 c 0
 591 876 601 865 612 851 c 2
 703 741 l 1
 685 722 l 1
 595 781 l 2
 583 790 572 797 563 797 c 0
 555 797 540 790 527 783 c 2
 410 722 l 1
 397 742 l 1x14
114 285 m 0xea
 114 373 143 479 209 563 c 0
 279 652 390 707 543 707 c 0
 627 707 706 690 767 657 c 1
 731 501 l 1
 701 501 l 1
 708 587 689 672 542 672 c 0
 303 672 224 438 224 278 c 0
 224 101 313 20 434 20 c 0
 538 20 551 45 558 74 c 2
 595 225 l 2
 604 260 597 271 578 273 c 2
 503 280 l 1
 509 309 l 1
 772 309 l 1
 766 280 l 1
 722 276 l 2
 705 274 699 259 691 225 c 2
 644 23 l 1
 587 2 505 -15 432 -15 c 0
 339 -15 258 8 199 59 c 0
 147 104 114 185 114 285 c 0xea
EndSplineSet
EndChar

StartChar: gcircumflex
Encoding: 379 285 221
Width: 499
Flags: MW
HStem: -242 35<228.5 309.5 228.5 317.5> 180 35<288.5 334.5 270.5 365.5> 467 35<292.5 355> 546 174<245 414.5 403 505>
VStem: 30 92<-123 -54.5> 113 85<130 138> 120 94<281 332.5 276 353.5> 231 297<567 567> 409 85<-130 -52> 420 92<336.5 372.5 307.5 417.5>
LayerCount: 2
Fore
SplineSet
231 567 m 1x11
 369 696 l 2
 384 709 397 720 409 720 c 0
 420 720 430 708 439 696 c 2
 528 567 l 1
 505 546 l 1
 420 621 l 2
 410 629 401 636 392 636 c 0
 385 636 372 629 360 621 c 2
 245 546 l 1
 231 567 l 1x11
30 -96 m 0xe880
 30 -13 116 29 184 41 c 1
 184 43 l 1
 143 62 113 85 113 118 c 0xe4
 113 158 173 180 204 193 c 1
 204 195 l 1
 174 206 120 244 120 318 c 0xe2
 120 389 169 502 333 502 c 0
 382 502 431 489 457 472 c 1
 602 512 l 1
 608 503 l 1
 575 440 l 1
 491 428 l 1
 504 411 512 386 512 359 c 0
 512 256 435 180 296 180 c 0
 281 180 262 180 242 183 c 1
 218 177 198 163 198 144 c 0xe440
 198 116 235 102 319 82 c 0
 437 54 494 0 494 -75 c 0
 494 -185 385 -242 250 -242 c 0
 123 -242 30 -185 30 -96 c 0xe880
122 -87 m 0xe880
 122 -159 185 -207 272 -207 c 0
 347 -207 409 -170 409 -94 c 0
 409 -10 291 16 228 25 c 1
 187 19 122 -15 122 -87 c 0xe880
214 301 m 0xe240
 214 251 244 215 297 215 c 0
 372 215 420 290 420 383 c 0
 420 452 370 467 340 467 c 0
 245 467 214 364 214 301 c 0xe240
EndSplineSet
EndChar

StartChar: Gbreve
Encoding: 380 286 222
Width: 709
Flags: MW
HStem: -15 35<385.5 468.5> 280 29<503 772 766 766> 672 35<466.5 585 466.5 615.5> 749 59<520.5 611>
VStem: 114 110<235 329> 433 28<870 870> 699 28<870 870> 701 30<501 501>
LayerCount: 2
Fore
SplineSet
433 870 m 1x16
 461 870 l 1
 458 851 475 808 566 808 c 0
 657 808 692 851 699 870 c 1
 727 870 l 1
 714 814 670 749 552 749 c 0
 434 749 420 814 433 870 c 1x16
114 285 m 0xe9
 114 373 143 479 209 563 c 0
 279 652 390 707 543 707 c 0
 627 707 706 690 767 657 c 1
 731 501 l 1
 701 501 l 1
 708 587 689 672 542 672 c 0
 303 672 224 438 224 278 c 0
 224 101 313 20 434 20 c 0
 538 20 551 45 558 74 c 2
 595 225 l 2
 604 260 597 271 578 273 c 2
 503 280 l 1
 509 309 l 1
 772 309 l 1
 766 280 l 1
 722 276 l 2
 705 274 699 259 691 225 c 2
 644 23 l 1
 587 2 505 -15 432 -15 c 0
 339 -15 258 8 199 59 c 0
 147 104 114 185 114 285 c 0xe9
EndSplineSet
EndChar

StartChar: gbreve
Encoding: 381 287 223
Width: 499
Flags: MW
HStem: -242 35<228.5 309.5 228.5 317.5> 180 35<288.5 334.5 270.5 365.5> 467 35<292.5 355> 568 62<347 432.5> 678 20<279 303 303 303 516 542 542 542>
VStem: 30 92<-123 -54.5> 113 85<130 138> 120 94<281 332.5 276 353.5> 268 274<615.5 698> 409 85<-130 -52> 420 92<336.5 372.5 307.5 417.5>
LayerCount: 2
Fore
SplineSet
268 646 m 0x1880
 268 661 272 682 279 698 c 1
 303 698 l 1
 301 678 303 630 391 630 c 0
 480 630 505 678 516 698 c 1
 542 698 l 1
 526 629 492 568 373 568 c 0
 316 568 268 585 268 646 c 0x1880
30 -96 m 0xe440
 30 -13 116 29 184 41 c 1
 184 43 l 1
 143 62 113 85 113 118 c 0xe2
 113 158 173 180 204 193 c 1
 204 195 l 1
 174 206 120 244 120 318 c 0xe1
 120 389 169 502 333 502 c 0
 382 502 431 489 457 472 c 1
 602 512 l 1
 608 503 l 1
 575 440 l 1
 491 428 l 1
 504 411 512 386 512 359 c 0
 512 256 435 180 296 180 c 0
 281 180 262 180 242 183 c 1
 218 177 198 163 198 144 c 0xe220
 198 116 235 102 319 82 c 0
 437 54 494 0 494 -75 c 0
 494 -185 385 -242 250 -242 c 0
 123 -242 30 -185 30 -96 c 0xe440
122 -87 m 0xe440
 122 -159 185 -207 272 -207 c 0
 347 -207 409 -170 409 -94 c 0
 409 -10 291 16 228 25 c 1
 187 19 122 -15 122 -87 c 0xe440
214 301 m 0xe120
 214 251 244 215 297 215 c 0
 372 215 420 290 420 383 c 0
 420 452 370 467 340 467 c 0
 245 467 214 364 214 301 c 0xe120
EndSplineSet
EndChar

StartChar: Gdotaccent
Encoding: 382 288 224
Width: 709
Flags: MW
HStem: -15 35<385.5 468.5> 280 29<503 772 766 766> 672 35<466.5 585 466.5 615.5> 738 110<550.5 574.5>
VStem: 114 110<235 329> 508 107<782 805> 701 30<501 501>
LayerCount: 2
Fore
SplineSet
508 787 m 0
 508 823 534 848 567 848 c 0
 597 848 615 824 615 799 c 0
 615 765 592 738 557 738 c 0
 525 738 508 758 508 787 c 0
114 285 m 0
 114 373 143 479 209 563 c 0
 279 652 390 707 543 707 c 0
 627 707 706 690 767 657 c 1
 731 501 l 1
 701 501 l 1
 708 587 689 672 542 672 c 0
 303 672 224 438 224 278 c 0
 224 101 313 20 434 20 c 0
 538 20 551 45 558 74 c 2
 595 225 l 2
 604 260 597 271 578 273 c 2
 503 280 l 1
 509 309 l 1
 772 309 l 1
 766 280 l 1
 722 276 l 2
 705 274 699 259 691 225 c 2
 644 23 l 1
 587 2 505 -15 432 -15 c 0
 339 -15 258 8 199 59 c 0
 147 104 114 185 114 285 c 0
EndSplineSet
EndChar

StartChar: gdotaccent
Encoding: 383 289 225
Width: 499
Flags: MW
HStem: -242 35<228.5 309.5 228.5 317.5> 180 35<288.5 334.5 270.5 365.5> 467 35<292.5 355> 570 110<381.5 405.5>
VStem: 30 92<-123 -54.5> 113 85<130 138> 120 94<281 332.5 276 353.5> 339 107<614 637> 409 85<-130 -52> 420 92<336.5 372.5 307.5 417.5>
LayerCount: 2
Fore
SplineSet
339 619 m 0x11
 339 655 365 680 398 680 c 0
 428 680 446 656 446 631 c 0
 446 597 423 570 388 570 c 0
 356 570 339 590 339 619 c 0x11
30 -96 m 0xe880
 30 -13 116 29 184 41 c 1
 184 43 l 1
 143 62 113 85 113 118 c 0xe4
 113 158 173 180 204 193 c 1
 204 195 l 1
 174 206 120 244 120 318 c 0xe2
 120 389 169 502 333 502 c 0
 382 502 431 489 457 472 c 1
 602 512 l 1
 608 503 l 1
 575 440 l 1
 491 428 l 1
 504 411 512 386 512 359 c 0
 512 256 435 180 296 180 c 0
 281 180 262 180 242 183 c 1
 218 177 198 163 198 144 c 0xe440
 198 116 235 102 319 82 c 0
 437 54 494 0 494 -75 c 0
 494 -185 385 -242 250 -242 c 0
 123 -242 30 -185 30 -96 c 0xe880
122 -87 m 0xe880
 122 -159 185 -207 272 -207 c 0
 347 -207 409 -170 409 -94 c 0
 409 -10 291 16 228 25 c 1
 187 19 122 -15 122 -87 c 0xe880
214 301 m 0xe240
 214 251 244 215 297 215 c 0
 372 215 420 290 420 383 c 0
 420 452 370 467 340 467 c 0
 245 467 214 364 214 301 c 0xe240
EndSplineSet
EndChar

StartChar: uni0122
Encoding: 384 290 226
Width: 709
Flags: MW
HStem: -292 217<341 424.5> -15 35<385.5 468.5> 280 29<503 772 766 766> 672 35<466.5 585 466.5 615.5>
VStem: 114 110<235 329> 382 75<-201.5 -115> 701 30<501 501>
LayerCount: 2
Fore
SplineSet
327 -278 m 1
 356 -250 382 -216 382 -187 c 0
 382 -157 363 -147 363 -117 c 0
 363 -95 381 -75 407 -75 c 0
 442 -75 457 -101 457 -129 c 0
 457 -199 393 -253 341 -292 c 1
 327 -278 l 1
114 285 m 0
 114 373 143 479 209 563 c 0
 279 652 390 707 543 707 c 0
 627 707 706 690 767 657 c 1
 731 501 l 1
 701 501 l 1
 708 587 689 672 542 672 c 0
 303 672 224 438 224 278 c 0
 224 101 313 20 434 20 c 0
 538 20 551 45 558 74 c 2
 595 225 l 2
 604 260 597 271 578 273 c 2
 503 280 l 1
 509 309 l 1
 772 309 l 1
 766 280 l 1
 722 276 l 2
 705 274 699 259 691 225 c 2
 644 23 l 1
 587 2 505 -15 432 -15 c 0
 339 -15 258 8 199 59 c 0
 147 104 114 185 114 285 c 0
EndSplineSet
EndChar

StartChar: Hcircumflex
Encoding: 385 292 227
Width: 775
Flags: MW
HStem: 0 29<40 46 46 46 46 314> 341 38<306 631 297 640> 663 29<182 463 456 456 885 885> 797 79<566 592>
VStem: 404 306<741 742>
LayerCount: 2
Fore
SplineSet
404 742 m 1
 544 853 l 2
 562 868 573 876 586 876 c 0
 598 876 608 865 619 851 c 2
 710 741 l 1
 692 722 l 1
 602 781 l 2
 590 790 579 797 570 797 c 0
 562 797 547 790 534 783 c 2
 417 722 l 1
 404 742 l 1
40 0 m 1
 46 29 l 1
 101 35 l 2
 125 37 135 49 143 83 c 2
 263 609 l 2
 270 641 264 657 241 659 c 2
 182 663 l 1
 189 692 l 1
 463 692 l 1
 456 663 l 1
 401 658 l 2
 376 656 367 642 359 609 c 2
 306 379 l 1
 640 379 l 1
 692 609 l 2
 699 641 693 657 670 659 c 2
 611 663 l 1
 618 692 l 1
 892 692 l 1
 885 663 l 1
 830 658 l 2
 805 656 796 642 788 609 c 2
 668 83 l 2
 660 50 666 35 690 33 c 2
 749 29 l 1
 743 0 l 1
 469 0 l 1
 475 29 l 1
 530 35 l 2
 554 37 564 49 572 83 c 2
 631 341 l 1
 297 341 l 1
 239 83 l 2
 232 50 237 35 261 33 c 2
 320 29 l 1
 314 0 l 1
 40 0 l 1
EndSplineSet
EndChar

StartChar: hcircumflex
Encoding: 386 293 228
Width: 607
Flags: MW
HStem: -12 52<435.5 523> 450 52<460.5 478> 675 20<161 161> 722 20<347 347> 786 174<342 511.5 500 602>
VStem: 328 297<807 807> 404 89 499 90
LayerCount: 2
Fore
SplineSet
328 807 m 1x0c
 466 936 l 2
 481 949 494 960 506 960 c 0
 517 960 527 948 536 936 c 2
 625 807 l 1
 602 786 l 1
 517 861 l 2
 507 869 498 876 489 876 c 0
 482 876 469 869 457 861 c 2
 342 786 l 1
 328 807 l 1x0c
92 -12 m 1xf3
 238 639 l 2
 247 678 243 685 218 688 c 2
 161 695 l 1
 167 718 l 1
 347 742 l 1
 352 737 l 1
 240 279 l 1
 243 279 l 1
 307 399 413 502 508 502 c 0
 589 502 602 436 578 357 c 2
 499 95 l 2
 489 63 489 40 509 40 c 0
 537 40 581 111 599 146 c 1
 623 132 l 1
 589 56 533 -12 464 -12 c 0
 407 -12 393 30 412 96 c 2
 494 380 l 2
 506 421 494 450 462 450 c 0
 375 450 276 298 246 220 c 0
 221 157 206 102 179 0 c 1
 92 -12 l 1xf3
EndSplineSet
EndChar

StartChar: Hbar
Encoding: 387 294 229
Width: 775
Flags: MW
HStem: 0 29<40 46 46 46 46 314> 341 38<306 631 297 640> 564 35<184 253 176 261 357 682 786 855> 663 29<182 463 456 456 885 885>
LayerCount: 2
Fore
SplineSet
40 0 m 1
 46 29 l 1
 101 35 l 2
 125 37 135 49 143 83 c 2
 253 564 l 1
 176 564 l 1
 184 599 l 1
 261 599 l 1
 263 609 l 2
 270 641 264 657 241 659 c 2
 182 663 l 1
 189 692 l 1
 463 692 l 1
 456 663 l 1
 401 658 l 2
 376 656 367 642 359 609 c 2
 357 599 l 1
 690 599 l 1
 692 609 l 2
 699 641 693 657 670 659 c 2
 611 663 l 1
 618 692 l 1
 892 692 l 1
 885 663 l 1
 830 658 l 2
 805 656 796 642 788 609 c 2
 786 599 l 1
 863 599 l 1
 855 564 l 1
 778 564 l 1
 668 83 l 2
 660 50 666 35 690 33 c 2
 749 29 l 1
 743 0 l 1
 469 0 l 1
 475 29 l 1
 530 35 l 2
 554 37 564 49 572 83 c 2
 631 341 l 1
 297 341 l 1
 239 83 l 2
 232 50 237 35 261 33 c 2
 320 29 l 1
 314 0 l 1
 40 0 l 1
306 379 m 1
 640 379 l 1
 682 564 l 1
 349 564 l 1
 306 379 l 1
EndSplineSet
EndChar

StartChar: hbar
Encoding: 388 295 230
Width: 607
Flags: MW
HStem: -12 52<435.5 523> 450 52<460.5 478> 564 35<154 221 146 229 318 531> 695 23<161 167> 722 20G<347 347>
LayerCount: 2
Fore
SplineSet
92 -12 m 1
 221 564 l 1
 146 564 l 1
 154 599 l 1
 229 599 l 1
 238 639 l 2
 247 678 243 685 218 688 c 2
 161 695 l 1
 167 718 l 1
 347 742 l 1
 352 737 l 1
 318 599 l 1
 539 599 l 1
 531 564 l 1
 310 564 l 1
 240 279 l 1
 243 279 l 1
 307 399 413 502 508 502 c 0
 589 502 602 436 578 357 c 2
 499 95 l 2
 489 63 489 40 509 40 c 0
 537 40 581 111 599 146 c 1
 623 132 l 1
 589 56 533 -12 464 -12 c 0
 407 -12 393 30 412 96 c 2
 494 380 l 2
 506 421 494 450 462 450 c 0
 375 450 276 298 246 220 c 0
 221 157 206 102 179 0 c 1
 92 -12 l 1
EndSplineSet
EndChar

StartChar: Itilde
Encoding: 389 296 231
Width: 345
Flags: MW
HStem: 0 29<40 46 46 46 46 314> 663 29<182 463 456 456> 736 60<430.5 449.5> 774 60<254 276>
LayerCount: 2
Fore
SplineSet
40 0 m 1xc0
 46 29 l 1
 101 35 l 2
 125 37 136 51 143 83 c 2
 263 609 l 2
 270 639 264 657 241 659 c 2
 182 663 l 1
 189 692 l 1
 463 692 l 1
 456 663 l 1
 401 658 l 2
 376 656 366 640 359 609 c 2
 239 83 l 2
 232 52 237 35 261 33 c 2
 320 29 l 1
 314 0 l 1
 40 0 l 1xc0
174 736 m 1x20
 194 776 222 834 286 834 c 0x10
 310 834 338 825 365 815 c 0
 393 806 420 796 441 796 c 0
 469 796 481 807 509 842 c 1
 529 831 l 1
 500 774 474 736 425 736 c 0x20
 403 736 374 746 345 755 c 0
 316 765 287 774 265 774 c 0x10
 232 774 215 758 193 723 c 1
 174 736 l 1x20
EndSplineSet
EndChar

StartChar: itilde
Encoding: 390 297 232
Width: 317
Flags: MW
HStem: -12 52<145 234> 450 24<126 132> 482 20<314 314> 576 60<373.5 392.5> 614 60<197 219>
LayerCount: 2
Fore
SplineSet
120 86 m 2xe0
 204 399 l 2
 213 434 210 443 183 445 c 2
 126 450 l 1
 132 474 l 1
 314 502 l 1
 319 497 l 1
 210 95 l 2
 201 63 200 40 220 40 c 0
 248 40 292 111 310 146 c 1
 334 132 l 1
 300 56 244 -12 172 -12 c 0
 118 -12 105 29 120 86 c 2xe0
117 576 m 1x10
 137 616 165 674 229 674 c 0x08
 253 674 281 665 308 655 c 0
 336 646 363 636 384 636 c 0
 412 636 424 647 452 682 c 1
 472 671 l 1
 443 614 417 576 368 576 c 0x10
 346 576 317 586 288 595 c 0
 259 605 230 614 208 614 c 0x08
 175 614 158 598 136 563 c 1
 117 576 l 1x10
EndSplineSet
EndChar

StartChar: Imacron
Encoding: 391 298 233
Width: 345
Flags: MW
HStem: 0 29<40 46 46 46 46 314> 663 29<182 463 456 456> 759 59<193 513 207 499>
VStem: 193 320<759 818>
LayerCount: 2
Fore
SplineSet
193 759 m 1
 207 818 l 1
 513 818 l 1
 499 759 l 1
 193 759 l 1
40 0 m 1
 46 29 l 1
 101 35 l 2
 125 37 136 51 143 83 c 2
 263 609 l 2
 270 639 264 657 241 659 c 2
 182 663 l 1
 189 692 l 1
 463 692 l 1
 456 663 l 1
 401 658 l 2
 376 656 366 640 359 609 c 2
 239 83 l 2
 232 52 237 35 261 33 c 2
 320 29 l 1
 314 0 l 1
 40 0 l 1
EndSplineSet
EndChar

StartChar: imacron
Encoding: 392 299 234
Width: 317
Flags: MW
HStem: -12 52<145 234> 450 24<126 132> 482 20<314 314> 597 59<147 443 165 425>
VStem: 147 296<597 656>
LayerCount: 2
Fore
SplineSet
147 597 m 1
 165 656 l 1
 443 656 l 1
 425 597 l 1
 147 597 l 1
120 86 m 2
 204 399 l 2
 213 434 210 443 183 445 c 2
 126 450 l 1
 132 474 l 1
 314 502 l 1
 319 497 l 1
 210 95 l 2
 201 63 200 40 220 40 c 0
 248 40 292 111 310 146 c 1
 334 132 l 1
 300 56 244 -12 172 -12 c 0
 118 -12 105 29 120 86 c 2
EndSplineSet
Ligature2: "'liga' Standard Ligatures in Latin lookup 3 subtable" i uni0304
EndChar

StartChar: Ibreve
Encoding: 393 300 235
Width: 345
Flags: MW
HStem: 0 29<40 46 46 46 46 314> 663 29<182 463 456 456> 749 59<312.5 403>
VStem: 225 28<870 870> 491 28<870 870>
LayerCount: 2
Fore
SplineSet
225 870 m 1
 253 870 l 1
 250 851 267 808 358 808 c 0
 449 808 484 851 491 870 c 1
 519 870 l 1
 506 814 462 749 344 749 c 0
 226 749 212 814 225 870 c 1
40 0 m 1
 46 29 l 1
 101 35 l 2
 125 37 136 51 143 83 c 2
 263 609 l 2
 270 639 264 657 241 659 c 2
 182 663 l 1
 189 692 l 1
 463 692 l 1
 456 663 l 1
 401 658 l 2
 376 656 366 640 359 609 c 2
 239 83 l 2
 232 52 237 35 261 33 c 2
 320 29 l 1
 314 0 l 1
 40 0 l 1
EndSplineSet
EndChar

StartChar: ibreve
Encoding: 394 301 236
Width: 317
Flags: MW
HStem: -12 52<145 234> 450 24<126 132> 482 20<314 314> 568 62<249 334.5> 678 20<181 205 205 205 418 444 444 444>
VStem: 170 274<615.5 698>
LayerCount: 2
Fore
SplineSet
170 646 m 0
 170 661 174 682 181 698 c 1
 205 698 l 1
 203 678 205 630 293 630 c 0
 382 630 407 678 418 698 c 1
 444 698 l 1
 428 629 394 568 275 568 c 0
 218 568 170 585 170 646 c 0
120 86 m 2
 204 399 l 2
 213 434 210 443 183 445 c 2
 126 450 l 1
 132 474 l 1
 314 502 l 1
 319 497 l 1
 210 95 l 2
 201 63 200 40 220 40 c 0
 248 40 292 111 310 146 c 1
 334 132 l 1
 300 56 244 -12 172 -12 c 0
 118 -12 105 29 120 86 c 2
EndSplineSet
Ligature2: "'liga' Standard Ligatures in Latin lookup 3 subtable" i uni0306
EndChar

StartChar: Iogonek
Encoding: 395 302 237
Width: 345
Flags: MW
HStem: -212 42<56.5 142> 0 29<40 47 47 47 47 100> 663 29<183 464 457 457>
VStem: 9 66
LayerCount: 2
Fore
SplineSet
40 0 m 1
 47 29 l 1
 102 35 l 2
 126 37 137 51 144 83 c 2
 264 609 l 2
 271 639 265 657 242 659 c 2
 183 663 l 1
 190 692 l 1
 464 692 l 1
 457 663 l 1
 402 658 l 2
 377 656 367 640 360 609 c 2
 240 83 l 2
 233 52 238 35 262 33 c 2
 321 29 l 1
 315 0 l 1
 146 0 l 1
 103 -36 76 -74 76 -119 c 0
 76 -155 103 -170 132 -170 c 0
 152 -170 164 -167 183 -159 c 1
 190 -175 l 1
 160 -204 126 -212 97 -212 c 0
 16 -212 10 -157 10 -133 c 0
 10 -83 48 -31 100 0 c 1
 40 0 l 1
EndSplineSet
EndChar

StartChar: iogonek
Encoding: 396 303 238
Width: 317
Flags: MW
HStem: -220 42<80.5 166> -12 52<165 233 165 233> 450 24<125 131> 482 20G<313 313> 593 122<286.5 317.5>
VStem: 34 66<-145 -114.5> 244 119
LayerCount: 2
Fore
SplineSet
120 86 m 2
 203 399 l 2
 212 434 209 443 182 445 c 2
 125 450 l 1
 131 474 l 1
 313 502 l 1
 318 497 l 1
 209 95 l 2
 200 63 199 40 219 40 c 0
 247 40 291 111 309 146 c 1
 333 132 l 1
 299 56 243 -12 171 -12 c 0
 169 -12 167 -12 165 -12 c 0
 125 -47 100 -84 100 -127 c 0
 100 -163 127 -178 156 -178 c 0
 176 -178 188 -175 207 -167 c 1
 214 -183 l 1
 184 -212 150 -220 121 -220 c 0
 40 -220 34 -165 34 -141 c 0
 34 -88 78 -33 136 -3 c 1
 113 12 109 45 120 86 c 2
243 649 m 0
 243 681 265 715 308 715 c 0
 336 715 362 699 362 660 c 0
 362 620 337 593 298 593 c 0
 268 593 243 612 243 649 c 0
EndSplineSet
EndChar

StartChar: Idotaccent
Encoding: 397 304 239
Width: 345
Flags: MW
HStem: 0 29<40 46 46 46 46 314> 663 29<182 463 456 456> 738 110<342.5 366.5>
VStem: 300 107<782 805>
LayerCount: 2
Fore
SplineSet
300 787 m 0
 300 823 326 848 359 848 c 0
 389 848 407 824 407 799 c 0
 407 765 384 738 349 738 c 0
 317 738 300 758 300 787 c 0
40 0 m 1
 46 29 l 1
 101 35 l 2
 125 37 136 51 143 83 c 2
 263 609 l 2
 270 639 264 657 241 659 c 2
 182 663 l 1
 189 692 l 1
 463 692 l 1
 456 663 l 1
 401 658 l 2
 376 656 366 640 359 609 c 2
 239 83 l 2
 232 52 237 35 261 33 c 2
 320 29 l 1
 314 0 l 1
 40 0 l 1
EndSplineSet
EndChar

StartChar: dotlessi
Encoding: 398 305 240
Width: 317
Flags: MW
HStem: -12 52<145 234> 450 24<126 132> 482 20G<314 314>
LayerCount: 2
Fore
SplineSet
120 86 m 2
 204 399 l 2
 213 434 210 443 183 445 c 2
 126 450 l 1
 132 474 l 1
 314 502 l 1
 319 497 l 1
 210 95 l 2
 201 63 200 40 220 40 c 0
 248 40 292 111 310 146 c 1
 334 132 l 1
 300 56 244 -12 172 -12 c 0
 118 -12 105 29 120 86 c 2
EndSplineSet
EndChar

StartChar: IJ
Encoding: 399 306 241
Width: 697
Flags: MW
HStem: 0 29<40 46 46 46 46 314> 663 29<182 463 456 456 809 809>
LayerCount: 2
Fore
SplineSet
40 0 m 1
 46 29 l 1
 101 35 l 2
 125 37 136 51 143 83 c 2
 263 609 l 2
 270 639 264 657 241 659 c 2
 182 663 l 1
 189 692 l 1
 463 692 l 1
 456 663 l 1
 401 658 l 2
 376 656 366 640 359 609 c 2
 239 83 l 2
 232 52 237 35 261 33 c 2
 320 29 l 1
 314 0 l 1
 40 0 l 1
302 -92 m 1
 352 -87 393 -73 427 -42 c 0
 458 -13 485 50 507 144 c 2
 616 612 l 2
 623 643 617 656 593 658 c 2
 534 663 l 1
 541 692 l 1
 816 692 l 1
 809 663 l 1
 754 659 l 2
 729 657 719 643 712 612 c 2
 595 109 l 2
 572 9 537 -47 490 -80 c 0
 450 -108 381 -119 335 -119 c 0
 324 -119 313 -118 302 -117 c 1
 302 -92 l 1
EndSplineSet
Ligature2: "'locl' Localized Forms in Latin lookup 31 subtable" I J
EndChar

StartChar: ij
Encoding: 400 307 242
Width: 626
Flags: MW
HStem: -12 52<145 234> 450 24<126 132> 482 20<314 314 638 638> 593 122<287.5 318.5 606.5 637.5>
VStem: 244 119<640 665>
LayerCount: 2
Fore
SplineSet
244 649 m 0
 244 681 266 715 309 715 c 0
 337 715 363 699 363 660 c 0
 363 620 338 593 299 593 c 0
 269 593 244 612 244 649 c 0
120 86 m 2
 204 399 l 2
 213 434 210 443 183 445 c 2
 126 450 l 1
 132 474 l 1
 314 502 l 1
 319 497 l 1
 210 95 l 2
 201 63 200 40 220 40 c 0
 248 40 292 111 310 146 c 1
 334 132 l 1
 300 56 244 -12 172 -12 c 0
 118 -12 105 29 120 86 c 2
563 649 m 0
 563 681 585 715 628 715 c 0
 656 715 682 699 682 660 c 0
 682 620 657 593 618 593 c 0
 588 593 563 612 563 649 c 0
257 -184 m 0
 257 -159 280 -134 302 -134 c 0
 315 -134 322 -145 328 -154 c 0
 355 -194 373 -207 385 -207 c 0
 397 -207 404 -195 408 -176 c 2
 530 395 l 2
 538 430 539 443 515 445 c 2
 453 450 l 1
 459 474 l 1
 638 502 l 1
 643 497 l 1
 530 -3 l 2
 510 -92 487 -156 459 -192 c 0
 431 -227 398 -242 352 -242 c 0
 300 -242 258 -217 257 -184 c 0
EndSplineSet
Ligature2: "'locl' Localized Forms in Latin lookup 31 subtable" i j
EndChar

StartChar: Jcircumflex
Encoding: 401 308 243
Width: 352
Flags: MW
HStem: -117 25<-43 -43> 663 29<189 471 464 464> 797 79<357 383>
VStem: 195 306<741 742>
LayerCount: 2
Fore
SplineSet
195 742 m 1
 335 853 l 2
 353 868 364 876 377 876 c 0
 389 876 399 865 410 851 c 2
 501 741 l 1
 483 722 l 1
 393 781 l 2
 381 790 370 797 361 797 c 0
 353 797 338 790 325 783 c 2
 208 722 l 1
 195 742 l 1
-43 -92 m 1
 7 -87 48 -73 82 -42 c 0
 113 -13 140 50 162 144 c 2
 271 612 l 2
 278 643 272 656 248 658 c 2
 189 663 l 1
 196 692 l 1
 471 692 l 1
 464 663 l 1
 409 659 l 2
 384 657 374 643 367 612 c 2
 250 109 l 2
 227 9 192 -47 145 -80 c 0
 105 -108 36 -119 -10 -119 c 0
 -21 -119 -32 -118 -43 -117 c 1
 -43 -92 l 1
EndSplineSet
EndChar

StartChar: jcircumflex
Encoding: 402 309 244
Width: 309
Flags: MW
HStem: -242 35<9 74> 450 24<136 142> 482 20<321 321> 546 174<165 334.5 323 425>
VStem: 151 297<567 567>
LayerCount: 2
Fore
SplineSet
151 567 m 1
 289 696 l 2
 304 709 317 720 329 720 c 0
 340 720 350 708 359 696 c 2
 448 567 l 1
 425 546 l 1
 340 621 l 2
 330 629 321 636 312 636 c 0
 305 636 292 629 280 621 c 2
 165 546 l 1
 151 567 l 1
-60 -184 m 0
 -60 -159 -37 -134 -15 -134 c 0
 -2 -134 5 -145 11 -154 c 0
 38 -194 56 -207 68 -207 c 0
 80 -207 87 -195 91 -176 c 2
 213 395 l 2
 221 430 222 443 198 445 c 2
 136 450 l 1
 142 474 l 1
 321 502 l 1
 326 497 l 1
 213 -3 l 2
 193 -92 170 -156 142 -192 c 0
 114 -227 81 -242 35 -242 c 0
 -17 -242 -59 -217 -60 -184 c 0
EndSplineSet
Ligature2: "'liga' Standard Ligatures in Latin lookup 4 subtable" j uni0302
EndChar

StartChar: uni0136
Encoding: 403 310 245
Width: 650
Flags: MW
HStem: -282 217<562 645.5> 0 29<40 46 46 46 46 314> 663 29<182 463 456 456 817 817>
VStem: 603 75<-191.5 -105>
LayerCount: 2
Fore
SplineSet
548 -268 m 1
 577 -240 603 -206 603 -177 c 0
 603 -147 584 -137 584 -107 c 0
 584 -85 602 -65 628 -65 c 0
 663 -65 678 -91 678 -119 c 0
 678 -189 614 -243 562 -282 c 1
 548 -268 l 1
40 0 m 1
 46 29 l 1
 101 35 l 2
 125 37 136 51 143 83 c 2
 263 609 l 2
 270 639 264 657 241 659 c 2
 182 663 l 1
 189 692 l 1
 463 692 l 1
 456 663 l 1
 401 658 l 2
 376 656 366 640 359 609 c 2
 305 372 l 1
 307 370 l 1
 411 458 509 539 605 627 c 0
 625 646 625 658 606 660 c 2
 568 663 l 1
 572 692 l 1
 821 692 l 1
 817 663 l 1
 736 658 712 643 655 603 c 0
 563 539 480 471 390 395 c 1
 432 307 500 185 567 101 c 0
 603 56 627 29 684 24 c 1
 677 -5 l 1
 628 -4 l 2
 551 -2 508 19 460 84 c 0
 399 167 350 267 304 361 c 1
 302 361 l 1
 239 83 l 2
 232 52 237 35 261 33 c 2
 320 29 l 1
 314 0 l 1
 40 0 l 1
EndSplineSet
EndChar

StartChar: uni0137
Encoding: 404 311 246
Width: 545
Flags: MW
HStem: -289 217<171 254.5> -12 55<456.5 464> 426 76<458 569.5> 695 23<170 176> 722 20G<355 355>
VStem: 212 75<-198.5 -112>
LayerCount: 2
Fore
SplineSet
157 -275 m 1
 186 -247 212 -213 212 -184 c 0
 212 -154 193 -144 193 -114 c 0
 193 -92 211 -72 237 -72 c 0
 272 -72 287 -98 287 -126 c 0
 287 -196 223 -250 171 -289 c 1
 157 -275 l 1
92 -12 m 1
 247 639 l 2
 256 678 252 685 227 688 c 2
 170 695 l 1
 176 718 l 1
 355 742 l 1
 360 737 l 1
 184 0 l 1
 92 -12 l 1
255 267 m 1
 302 324 354 379 410 428 c 0
 461 471 510 502 550 502 c 0
 589 502 602 480 602 453 c 0
 602 428 581 399 553 399 c 0
 542 399 532 403 525 407 c 0
 502 421 491 426 476 426 c 0
 440 426 362 341 334 309 c 1
 353 242 378 177 409 114 c 0
 434 62 448 43 465 43 c 0
 492 43 517 82 545 142 c 1
 570 129 l 1
 540 45 496 -12 432 -12 c 0
 384 -12 355 19 326 83 c 0
 298 144 274 203 255 267 c 1
EndSplineSet
EndChar

StartChar: kgreenlandic
Encoding: 405 312 247
Width: 625
Flags: MW
HStem: 0 21G<166 256 166 166 584 584> 470 20G<572 675 675 675> 482 20G<254.5 305.5>
LayerCount: 2
Fore
SplineSet
308 239 m 1xc0
 256 0 l 1
 166 0 l 1
 229 293 247 376 254 407 c 0
 255 413 256 418 256 422 c 0
 256 435 250 441 243 441 c 0
 221 441 176 414 150 363 c 1
 128 374 l 1
 163 458 218 502 291 502 c 0xa0
 320 502 348 476 348 438 c 0
 348 432 347 427 346 421 c 2
 313 266 l 1
 333 287 l 2
 432 388 524 479 572 490 c 1
 675 490 l 1
 669 458 l 1
 619 454 585 442 545 413 c 0
 496 378 450 345 385 291 c 1
 469 155 525 37 590 27 c 1
 584 0 l 1
 466 1 438 21 398 88 c 0
 349 169 318 221 308 239 c 1xc0
EndSplineSet
EndChar

StartChar: Lacute
Encoding: 406 313 248
Width: 565
Flags: MW
HStem: 0 35<101 101 339.5 420.5> 663 29<182 468 461 461> 742 149
VStem: 410 242<764 848.5> 573 30<176 176>
LayerCount: 2
Fore
SplineSet
410 764 m 1x30
 555 863 l 2
 585 883 599 891 613 891 c 0
 638 891 652 856 652 841 c 0
 652 817 630 810 591 798 c 2
 421 742 l 1
 410 764 l 1x30
40 0 m 1xc8
 46 29 l 1
 101 35 l 2
 125 37 135 48 143 83 c 2
 263 609 l 2
 271 642 264 656 241 658 c 2
 182 663 l 1
 189 692 l 1
 468 692 l 1
 461 663 l 1
 401 659 l 2
 376 657 366 642 358 609 c 2
 247 122 l 2
 236 75 237 60 252 48 c 0
 265 38 315 35 364 35 c 0
 477 35 522 53 573 176 c 1
 603 176 l 1
 552 0 l 1
 40 0 l 1xc8
EndSplineSet
EndChar

StartChar: lacute
Encoding: 407 314 249
Width: 306
Flags: MW
HStem: -12 52<141 227> 695 47 782 181<268 443.5>
VStem: 253 222<802 930>
LayerCount: 2
Fore
SplineSet
253 802 m 1
 372 922 l 2
 402 953 419 963 436 963 c 0
 451 963 475 940 475 920 c 0
 475 899 449 882 419 866 c 2
 268 782 l 1
 253 802 l 1
116 86 m 2
 253 639 l 2
 263 678 258 685 233 688 c 2
 176 695 l 1
 182 718 l 1
 361 742 l 1
 366 737 l 1
 205 94 l 2
 197 61 197 40 215 40 c 0
 239 40 284 101 307 146 c 1
 331 132 l 1
 299 57 238 -12 168 -12 c 0
 114 -12 102 29 116 86 c 2
EndSplineSet
EndChar

StartChar: uni013B
Encoding: 408 315 250
Width: 565
Flags: MW
HStem: -277 217<205 288.5> 0 35<101 101 339.5 420.5> 663 29<182 468 461 461>
VStem: 246 75<-186.5 -100> 573 30<176 176>
LayerCount: 2
Fore
SplineSet
191 -263 m 1
 220 -235 246 -201 246 -172 c 0
 246 -142 227 -132 227 -102 c 0
 227 -80 245 -60 271 -60 c 0
 306 -60 321 -86 321 -114 c 0
 321 -184 257 -238 205 -277 c 1
 191 -263 l 1
40 0 m 1
 46 29 l 1
 101 35 l 2
 125 37 135 48 143 83 c 2
 263 609 l 2
 271 642 264 656 241 658 c 2
 182 663 l 1
 189 692 l 1
 468 692 l 1
 461 663 l 1
 401 659 l 2
 376 657 366 642 358 609 c 2
 247 122 l 2
 236 75 237 60 252 48 c 0
 265 38 315 35 364 35 c 0
 477 35 522 53 573 176 c 1
 603 176 l 1
 552 0 l 1
 40 0 l 1
EndSplineSet
EndChar

StartChar: uni013C
Encoding: 409 316 251
Width: 306
Flags: MW
HStem: -289 217<77 160.5> -12 52<141 227> 695 47
VStem: 118 75<-198.5 -112>
LayerCount: 2
Fore
SplineSet
63 -275 m 1
 92 -247 118 -213 118 -184 c 0
 118 -154 99 -144 99 -114 c 0
 99 -92 117 -72 143 -72 c 0
 178 -72 193 -98 193 -126 c 0
 193 -196 129 -250 77 -289 c 1
 63 -275 l 1
116 86 m 2
 253 639 l 2
 263 678 258 685 233 688 c 2
 176 695 l 1
 182 718 l 1
 361 742 l 1
 366 737 l 1
 205 94 l 2
 197 61 197 40 215 40 c 0
 239 40 284 101 307 146 c 1
 331 132 l 1
 299 57 238 -12 168 -12 c 0
 114 -12 102 29 116 86 c 2
EndSplineSet
EndChar

StartChar: Lcaron
Encoding: 410 317 252
Width: 565
Flags: MW
HStem: 0 35<101 101 339.5 420.5> 552 238<512 592.5> 663 29<182 468 461 461>
VStem: 548 82<656 745.5> 573 30<176 176>
LayerCount: 2
Fore
SplineSet
520 733 m 0x50
 520 765 544 790 576 790 c 0
 609 790 630 764 630 727 c 0
 630 656 579 602 512 552 c 1
 497 569 l 1
 530 600 548 646 548 666 c 0
 548 695 520 704 520 733 c 0x50
40 0 m 1xa8
 46 29 l 1
 101 35 l 2
 125 37 135 48 143 83 c 2
 263 609 l 2
 271 642 264 656 241 658 c 2
 182 663 l 1
 189 692 l 1
 468 692 l 1
 461 663 l 1
 401 659 l 2
 376 657 366 642 358 609 c 2
 247 122 l 2
 236 75 237 60 252 48 c 0
 265 38 315 35 364 35 c 0
 477 35 522 53 573 176 c 1
 603 176 l 1
 552 0 l 1
 40 0 l 1xa8
EndSplineSet
EndChar

StartChar: lcaron
Encoding: 411 318 253
Width: 326
Flags: MW
HStem: -12 52<141 227> 552 238<393 473.5> 695 47
VStem: 429 82<656 745.5>
LayerCount: 2
Fore
SplineSet
401 733 m 0x50
 401 765 425 790 457 790 c 0
 490 790 511 764 511 727 c 0
 511 656 460 602 393 552 c 1
 378 569 l 1
 411 600 429 646 429 666 c 0
 429 695 401 704 401 733 c 0x50
116 86 m 2xa0
 253 639 l 2
 263 678 258 685 233 688 c 2
 176 695 l 1
 182 718 l 1
 361 742 l 1
 366 737 l 1
 205 94 l 2
 197 61 197 40 215 40 c 0
 239 40 284 101 307 146 c 1
 331 132 l 1
 299 57 238 -12 168 -12 c 0
 114 -12 102 29 116 86 c 2xa0
EndSplineSet
EndChar

StartChar: Ldot
Encoding: 412 319 254
Width: 565
Flags: MW
HStem: 0 35<101 101 339.5 420.5> 187 125 663 29<182 468 461 461>
VStem: 221 122 573 30<176 176>
LayerCount: 2
Fore
SplineSet
40 0 m 1
 46 29 l 1
 101 35 l 2
 125 38 135 48 143 83 c 2
 263 609 l 2
 271 642 264 656 241 658 c 2
 182 663 l 1
 189 692 l 1
 468 692 l 1
 461 663 l 1
 401 659 l 2
 376 657 366 642 358 609 c 2
 247 122 l 2
 236 75 237 60 252 48 c 0
 265 38 315 35 364 35 c 0
 477 35 522 53 573 176 c 1
 603 176 l 1
 552 0 l 1
 40 0 l 1
365 289 m 0
 365 330 392 357 430 357 c 0
 466 357 487 331 487 301 c 0
 487 259 461 232 422 232 c 0
 386 232 365 257 365 289 c 0
EndSplineSet
Ligature2: "'locl' Localized Forms in Latin lookup 37 subtable" L periodcentered
EndChar

StartChar: ldot
Encoding: 413 320 255
Width: 571
Flags: MW
HStem: -12 52<141 227> 695 47
LayerCount: 2
Fore
SplineSet
116 86 m 2
 253 639 l 2
 263 678 258 685 233 688 c 2
 176 695 l 1
 182 718 l 1
 361 742 l 1
 366 737 l 1
 205 94 l 2
 197 61 197 40 215 40 c 0
 239 40 284 101 307 146 c 1
 331 132 l 1
 299 57 238 -12 168 -12 c 0
 114 -12 102 29 116 86 c 2
430 244 m 0
 430 285 457 312 495 312 c 0
 531 312 552 286 552 256 c 0
 552 214 526 187 487 187 c 0
 451 187 430 212 430 244 c 0
EndSplineSet
Ligature2: "'locl' Localized Forms in Latin lookup 37 subtable" l periodcentered
EndChar

StartChar: Lslash
Encoding: 414 321 256
Width: 571
Flags: MW
HStem: 0 35<107 107 345.5 426.5> 476 20G<463 463> 663 29<188 474 467 467>
LayerCount: 2
Fore
SplineSet
46 0 m 1
 52 29 l 1
 107 35 l 2
 131 37 141 48 149 83 c 2
 196 291 l 1
 88 222 l 1
 103 275 l 1
 208 342 l 1
 269 609 l 2
 277 642 270 656 247 658 c 2
 188 663 l 1
 195 692 l 1
 474 692 l 1
 467 663 l 1
 407 659 l 2
 382 657 372 642 364 609 c 2
 317 403 l 1
 463 496 l 1
 453 445 l 1
 305 351 l 1
 253 122 l 2
 242 75 243 60 258 48 c 0
 271 38 321 35 370 35 c 0
 483 35 528 53 579 176 c 1
 609 176 l 1
 558 0 l 1
 46 0 l 1
EndSplineSet
EndChar

StartChar: lslash
Encoding: 415 322 257
Width: 318
Flags: MW
HStem: -12 52<147 233> 675 20G<182 182> 722 20G<367 367>
VStem: 117 89
LayerCount: 2
Fore
SplineSet
80 277 m 1
 99 330 l 1
 196 389 l 1
 259 639 l 2
 269 678 264 685 239 688 c 2
 182 695 l 1
 188 718 l 1
 367 742 l 1
 372 737 l 1
 299 443 l 1
 411 511 l 1
 396 458 l 1
 286 392 l 1
 211 94 l 2
 203 61 203 40 221 40 c 0
 245 40 290 101 313 146 c 1
 337 132 l 1
 305 57 244 -12 174 -12 c 0
 120 -12 108 29 122 86 c 2
 184 340 l 1
 80 277 l 1
EndSplineSet
EndChar

StartChar: Nacute
Encoding: 416 323 258
Width: 763
Flags: MW
HStem: 0 29<31 36 36 36 36 267> 663 29<174 371 885 885> 742 149
VStem: 494 242<764 848.5>
LayerCount: 2
Fore
SplineSet
494 764 m 1
 639 863 l 2
 669 883 683 891 697 891 c 0
 722 891 736 856 736 841 c 0
 736 817 714 810 675 798 c 2
 505 742 l 1
 494 764 l 1
31 0 m 1
 36 29 l 1
 67 32 l 2
 97 35 114 43 126 75 c 0
 138 108 149 146 161 199 c 2
 255 609 l 2
 263 642 256 655 233 657 c 2
 174 663 l 1
 181 692 l 1
 371 692 l 1
 455 505 541 318 627 131 c 1
 631 131 l 1
 713 493 l 2
 725 546 731 584 734 617 c 0
 737 650 720 655 688 659 c 2
 649 663 l 1
 654 692 l 1
 890 692 l 1
 885 663 l 1
 854 660 l 2
 824 657 807 649 795 617 c 0
 783 584 772 546 760 493 c 2
 648 0 l 1
 583 0 l 1
 491 203 399 406 305 609 c 1
 302 609 l 1
 208 199 l 2
 196 146 190 108 187 75 c 0
 184 44 201 35 233 32 c 2
 272 29 l 1
 267 0 l 1
 31 0 l 1
EndSplineSet
EndChar

StartChar: nacute
Encoding: 417 324 259
Width: 618
Flags: MW
HStem: -12 52<443 535> 450 24<126 132> 450 52<470 489.5> 542 181<374 549.5>
VStem: 359 222<562 690>
LayerCount: 2
Fore
SplineSet
359 562 m 1x18
 478 682 l 2
 508 713 525 723 542 723 c 0
 557 723 581 700 581 680 c 0
 581 659 555 642 525 626 c 2
 374 542 l 1
 359 562 l 1x18
98 -12 m 1xa0
 203 397 l 2
 212 429 212 443 188 445 c 2
 126 450 l 1
 132 474 l 1xc0
 315 502 l 1
 320 497 l 1
 255 279 l 1
 258 279 l 1
 318 396 422 502 518 502 c 0
 600 502 612 436 589 357 c 2
 511 95 l 2
 502 63 501 40 521 40 c 0
 549 40 593 111 611 146 c 1
 635 132 l 1
 601 56 545 -12 470 -12 c 0
 416 -12 403 30 419 86 c 2
 505 379 l 2
 516 418 507 450 472 450 c 0
 391 450 295 304 258 218 c 0
 232 156 215 102 186 0 c 1
 98 -12 l 1xa0
EndSplineSet
EndChar

StartChar: Ncommaaccent
Encoding: 418 325 260
Width: 763
Flags: MW
HStem: -261 217<299 382.5> 0 29<31 36 36 36 36 267> 663 29<174 371 885 885>
VStem: 340 75<-170.5 -84>
LayerCount: 2
Fore
SplineSet
31 0 m 1
 36 29 l 1
 67 32 l 2
 97 35 114 43 126 75 c 0
 138 108 149 146 161 199 c 2
 255 609 l 2
 263 642 256 655 233 657 c 2
 174 663 l 1
 181 692 l 1
 371 692 l 1
 455 505 541 318 627 131 c 1
 631 131 l 1
 713 493 l 2
 725 546 731 584 734 617 c 0
 737 650 720 655 688 659 c 2
 649 663 l 1
 654 692 l 1
 890 692 l 1
 885 663 l 1
 854 660 l 2
 824 657 807 649 795 617 c 0
 783 584 772 546 760 493 c 2
 648 0 l 1
 583 0 l 1
 491 203 399 406 305 609 c 1
 302 609 l 1
 208 199 l 2
 196 146 190 108 187 75 c 0
 184 44 201 35 233 32 c 2
 272 29 l 1
 267 0 l 1
 31 0 l 1
285 -247 m 1
 314 -219 340 -185 340 -156 c 0
 340 -126 321 -116 321 -86 c 0
 321 -64 339 -44 365 -44 c 0
 400 -44 415 -70 415 -98 c 0
 415 -168 351 -222 299 -261 c 1
 285 -247 l 1
EndSplineSet
EndChar

StartChar: ncommaaccent
Encoding: 419 326 261
Width: 618
Flags: MW
HStem: -261 217<222 305.5> -12 52<443 535> 450 24<126 132> 450 52<470 489.5>
VStem: 263 75<-170.5 -84>
LayerCount: 2
Fore
SplineSet
98 -12 m 1x50
 203 397 l 2
 212 429 212 443 188 445 c 2
 126 450 l 1
 132 474 l 1x60
 315 502 l 1
 320 497 l 1
 255 279 l 1
 258 279 l 1
 318 396 422 502 518 502 c 0
 600 502 612 436 589 357 c 2
 511 95 l 2
 502 63 501 40 521 40 c 0
 549 40 593 111 611 146 c 1
 635 132 l 1
 601 56 545 -12 470 -12 c 0
 416 -12 403 30 419 86 c 2
 505 379 l 2
 516 418 507 450 472 450 c 0
 391 450 295 304 258 218 c 0
 232 156 215 102 186 0 c 1
 98 -12 l 1x50
208 -247 m 1x88
 237 -219 263 -185 263 -156 c 0
 263 -126 244 -116 244 -86 c 0
 244 -64 262 -44 288 -44 c 0
 323 -44 338 -70 338 -98 c 0
 338 -168 274 -222 222 -261 c 1
 208 -247 l 1x88
EndSplineSet
EndChar

StartChar: Ncaron
Encoding: 420 327 262
Width: 763
Flags: MW
HStem: 0 29<31 36 36 36 36 267> 663 29<174 371 885 885> 734 79<545 571>
VStem: 427 306<868 869>
LayerCount: 2
Fore
SplineSet
427 869 m 1
 445 888 l 1
 535 828 l 2
 547 820 558 813 567 813 c 0
 575 813 590 820 603 827 c 2
 720 888 l 1
 733 868 l 1
 593 757 l 2
 575 742 564 734 551 734 c 0
 539 734 529 745 518 759 c 2
 427 869 l 1
31 0 m 1
 36 29 l 1
 67 32 l 2
 97 35 114 43 126 75 c 0
 138 108 149 146 161 199 c 2
 255 609 l 2
 263 642 256 655 233 657 c 2
 174 663 l 1
 181 692 l 1
 371 692 l 1
 455 505 541 318 627 131 c 1
 631 131 l 1
 713 493 l 2
 725 546 731 584 734 617 c 0
 737 650 720 655 688 659 c 2
 649 663 l 1
 654 692 l 1
 890 692 l 1
 885 663 l 1
 854 660 l 2
 824 657 807 649 795 617 c 0
 783 584 772 546 760 493 c 2
 648 0 l 1
 583 0 l 1
 491 203 399 406 305 609 c 1
 302 609 l 1
 208 199 l 2
 196 146 190 108 187 75 c 0
 184 44 201 35 233 32 c 2
 272 29 l 1
 267 0 l 1
 31 0 l 1
EndSplineSet
EndChar

StartChar: ncaron
Encoding: 421 328 263
Width: 618
Flags: MW
HStem: -12 52<443 535> 450 24<126 132> 450 52<470 489.5> 557 174<335 437>
VStem: 312 297<710 710>
LayerCount: 2
Fore
SplineSet
312 710 m 1x18
 335 731 l 1
 420 656 l 2
 430 648 439 641 448 641 c 0
 455 641 468 648 480 656 c 2
 595 731 l 1
 609 710 l 1
 471 581 l 2
 456 568 443 557 431 557 c 0
 420 557 410 569 401 581 c 2
 312 710 l 1x18
98 -12 m 1xa0
 203 397 l 2
 212 429 212 443 188 445 c 2
 126 450 l 1
 132 474 l 1xc0
 315 502 l 1
 320 497 l 1
 255 279 l 1
 258 279 l 1
 318 396 422 502 518 502 c 0
 600 502 612 436 589 357 c 2
 511 95 l 2
 502 63 501 40 521 40 c 0
 549 40 593 111 611 146 c 1
 635 132 l 1
 601 56 545 -12 470 -12 c 0
 416 -12 403 30 419 86 c 2
 505 379 l 2
 516 418 507 450 472 450 c 0
 391 450 295 304 258 218 c 0
 232 156 215 102 186 0 c 1
 98 -12 l 1xa0
EndSplineSet
EndChar

StartChar: Eng
Encoding: 422 330 264
Width: 744
Flags: MW
HStem: -242 35<406 462 390.5 484> 0 29<40 46 46 46 46 317> 645 62<559 628> 663 29<182 378>
LayerCount: 2
Fore
SplineSet
40 0 m 1xe0
 46 29 l 1
 101 35 l 2
 125 37 135 49 143 83 c 2
 263 609 l 2
 270 641 264 657 241 659 c 2
 182 663 l 1
 189 692 l 1
 378 692 l 1xd0
 349 571 l 1
 350 571 l 1
 420 641 504 707 614 707 c 0
 746 707 806 647 766 473 c 2
 662 40 l 2
 614 -162 540 -242 428 -242 c 0
 384 -242 271 -240 271 -159 c 0
 271 -132 310 -112 334 -112 c 0
 379 -112 358 -207 423 -207 c 0
 501 -207 531 -114 559 10 c 2
 676 503 l 2
 698 599 679 645 577 645 c 0
 518 645 457 619 417 589 c 0
 379 561 338 517 324 456 c 2
 239 83 l 2
 231 50 237 35 261 33 c 2
 323 29 l 1
 317 0 l 1
 40 0 l 1xe0
EndSplineSet
EndChar

